<svg version="1.1" xmlns="http://www.w3.org/2000/svg" viewBox="0 0 3191.136069474541 1791.2224853250568" width="3191.136069474541" height="1791.2224853250568">
  <!-- svg-source:excalidraw -->
  
  <defs>
    <style>
      @font-face {
        font-family: "Virgil";
        src: url("https://unpkg.com/@excalidraw/excalidraw@0.13.0-4d26993/dist/excalidraw-assets/Virgil.woff2");
      }
      @font-face {
        font-family: "Cascadia";
        src: url("https://unpkg.com/@excalidraw/excalidraw@0.13.0-4d26993/dist/excalidraw-assets/Cascadia.woff2");
      }
    </style>
  </defs>
  <g transform="translate(130.7840345840823 537.6114263469312) rotate(0 71.5 12)"><text x="0" y="19" font-family="Cascadia, Segoe UI Emoji" font-size="20px" fill="#c92a2a" text-anchor="start" style="white-space: pre;" direction="ltr">Landing page</text></g><g transform="translate(121.74595155301722 1389.354259075726) rotate(0 71.5 12)"><text x="0" y="19" font-family="Cascadia, Segoe UI Emoji" font-size="20px" fill="#2b8a3e" text-anchor="start" style="white-space: pre;" direction="ltr">Landing page</text></g><g stroke-linecap="round"><g transform="translate(231.1840589981448 615.3262227062792) rotate(0 90.70054228751724 -0.37208650949196453)"><path d="M-1.1 -0.54 C29.42 -0.83, 151.8 -2.34, 182.5 -2.53 M0.52 1.78 C30.96 1.76, 151.29 -0.14, 181.66 -1.04" stroke="#c92a2a" stroke-width="2" fill="none"></path></g><g transform="translate(231.1840589981448 615.3262227062792) rotate(0 90.70054228751724 -0.37208650949196453)"><path d="M152.79 10.16 C160.48 8.72, 168.72 6, 182.53 -1.65 M153.06 10.01 C159.88 7.2, 166.94 3.53, 180.84 -1.67" stroke="#c92a2a" stroke-width="2" fill="none"></path></g><g transform="translate(231.1840589981448 615.3262227062792) rotate(0 90.70054228751724 -0.37208650949196453)"><path d="M152.35 -10.36 C160.01 -6.75, 168.36 -4.43, 182.53 -1.65 M152.62 -10.5 C159.62 -8.14, 166.79 -6.62, 180.84 -1.67" stroke="#c92a2a" stroke-width="2" fill="none"></path></g></g><g stroke-linecap="round"><g transform="translate(222.14597596707972 1467.6191297389996) rotate(0 95.82094030785174 -1.0542383621773297)"><path d="M1.16 -0.13 C33.09 -0.37, 159.44 -1.68, 191.32 -1.98 M0.32 -1.25 C32.1 -1.33, 158.4 -1.05, 190.4 -1.02" stroke="#2b8a3e" stroke-width="2" fill="none"></path></g><g transform="translate(222.14597596707972 1467.6191297389996) rotate(0 95.82094030785174 -1.0542383621773297)"><path d="M161.97 9.27 C168.37 8.02, 176.5 1.3, 189.9 -0.69 M162.56 10.13 C173.24 5.79, 182.41 1.14, 191.39 -0.95" stroke="#2b8a3e" stroke-width="2" fill="none"></path></g><g transform="translate(222.14597596707972 1467.6191297389996) rotate(0 95.82094030785174 -1.0542383621773297)"><path d="M162 -11.25 C168.29 -6.7, 176.42 -7.63, 189.9 -0.69 M162.59 -10.39 C173.29 -7.3, 182.46 -4.52, 191.39 -0.95" stroke="#2b8a3e" stroke-width="2" fill="none"></path></g></g><g stroke-linecap="round"><g transform="translate(579.0331960316862 614.8423129424723) rotate(0 152.91224733522176 -34.30023029242602)"><path d="M1.01 -0.23 C51.87 -11.56, 255.13 -57.03, 305.74 -68.37 M0.09 -1.39 C50.82 -12.53, 254.67 -56.1, 305.3 -67.07" stroke="#c92a2a" stroke-width="2" fill="none"></path></g><g transform="translate(579.0331960316862 614.8423129424723) rotate(0 152.91224733522176 -34.30023029242602)"><path d="M279.51 -49.5 C288.04 -57.03, 297.01 -62.59, 303.68 -67.02 M279.2 -51.58 C289.98 -56.96, 298.54 -62.88, 306.03 -67.57" stroke="#c92a2a" stroke-width="2" fill="none"></path></g><g transform="translate(579.0331960316862 614.8423129424723) rotate(0 152.91224733522176 -34.30023029242602)"><path d="M275.2 -69.56 C285.17 -70.14, 295.64 -68.72, 303.68 -67.02 M274.88 -71.65 C287.31 -69.75, 297.43 -68.38, 306.03 -67.57" stroke="#c92a2a" stroke-width="2" fill="none"></path></g></g><g stroke-linecap="round"><g transform="translate(578.5665415720505 1469.4422885284098) rotate(0 152.06743152514628 -34.09557789120299)"><path d="M-0.13 0.04 C50.57 -11.27, 253.02 -55.22, 303.67 -66.74 M-1.66 -0.98 C49.45 -12.09, 254.5 -57.01, 305.8 -68.23" stroke="#2b8a3e" stroke-width="2" fill="none"></path></g><g transform="translate(578.5665415720505 1469.4422885284098) rotate(0 152.06743152514628 -34.09557789120299)"><path d="M280.53 -54.03 C288.68 -57.89, 291.24 -60.76, 306.12 -66.99 M281.38 -51.33 C288.8 -57.54, 295.86 -61.44, 305.86 -67.24" stroke="#2b8a3e" stroke-width="2" fill="none"></path></g><g transform="translate(578.5665415720505 1469.4422885284098) rotate(0 152.06743152514628 -34.09557789120299)"><path d="M276.14 -74.07 C285.59 -72.87, 289.26 -70.68, 306.12 -66.99 M277 -71.38 C285.87 -71.27, 294.32 -68.83, 305.86 -67.24" stroke="#2b8a3e" stroke-width="2" fill="none"></path></g></g><g stroke-linecap="round" transform="translate(418.7553654992598 540.3043590207949) rotate(0 79.5 75)"><path d="M81.51 1.51 C109.35 27.32, 141.26 58.88, 157.72 74.6 M79.45 -0.65 C104.12 25.51, 129.06 47.95, 158.05 76.6 M160.37 75.8 C134.56 98.68, 111.62 117.97, 80.45 151.95 M159.17 76.63 C139.02 95.17, 119.96 112.3, 80.07 150.08 M79.7 148.97 C61.12 132.06, 40.21 115.32, 0.57 77.08 M80.11 150.33 C59.63 131.71, 38.79 112.97, -0.64 76.61 M0.51 74.14 C25.23 53.47, 48.73 30.1, 78.07 0.75 M0.92 76.58 C29.15 48.94, 56.82 20.87, 79.53 0.04" stroke="#c92a2a" stroke-width="2" fill="none"></path></g><g stroke-linecap="round" transform="translate(418.2887110396241 1394.9043346067324) rotate(0 79.5 75)"><path d="M78.16 1.98 C109.6 28.29, 142.15 60.65, 160.24 76.32 M80.85 0.39 C106.57 24.17, 134.22 50.27, 160 76.18 M158.77 77.18 C130.65 104.69, 100 130.61, 78.2 151.65 M159.35 76.28 C131.68 102.35, 104.73 129.25, 79.5 149.74 M79.92 151.39 C48.62 122.22, 20.15 94.04, -0.44 76.36 M79.57 150.35 C52.93 123.57, 23.38 96.61, 0.12 76.36 M1.96 74.66 C21.19 58.74, 40.1 38.86, 81.33 1.24 M-0.22 75.79 C22.23 56.32, 42.14 35.73, 80.35 -0.68" stroke="#2b8a3e" stroke-width="2" fill="none"></path></g><g stroke-linecap="round" transform="translate(1214.1554509484786 465.504340710248) rotate(0 96 75)"><path d="M98.53 0.74 C121.51 17.99, 143.05 34.64, 191.81 76.45 M96.22 -0.03 C118.5 16.69, 137.85 31.26, 191.09 76.62 M190.21 77.81 C172.75 90.92, 148.93 110.44, 97.76 151.26 M192.23 75.21 C166.2 97.07, 139.07 117.55, 96.75 150.04 M97.88 148.19 C58.82 121.88, 21.11 94.06, -1.35 77.73 M96.06 150.16 C61.6 122.99, 24.98 95.68, 0.52 76.31 M-0.67 75.73 C26.14 57.04, 49.65 33.57, 96.27 0.38 M-0.77 76.83 C38.54 45.45, 75.26 17.62, 96.38 -0.31" stroke="#c92a2a" stroke-width="2" fill="none"></path></g><g stroke-linecap="round" transform="translate(1267.9745107745575 1318.675744867614) rotate(0 96 75)"><path d="M98.98 -1.68 C122.62 22.33, 152.24 46.03, 192.32 76.7 M97.39 -0.19 C129.15 25.78, 161.78 51.4, 192.18 76.74 M193.18 77.01 C162.13 99.83, 129.53 122.15, 98.65 150.98 M192.28 76.21 C163.31 99.9, 135.22 121.24, 96.74 150.74 M98.39 148.72 C65.8 126.38, 34.14 101.96, 0.36 77.08 M97.35 150.65 C76.18 132.96, 54.38 117.57, 0.36 75.39 M-1.34 77.93 C27.79 55.71, 52.96 34.19, 98.24 -0.61 M-0.21 77 C34.11 49.45, 67.34 24.33, 96.32 -0.84" stroke="#2b8a3e" stroke-width="2" fill="none"></path></g><g transform="translate(441.2553654992598 596.3043590207949) rotate(0 57 19)"><text x="57" y="15" font-family="Cascadia, Segoe UI Emoji" font-size="16px" fill="#c92a2a" text-anchor="middle" style="white-space: pre;" direction="ltr">Ima li user </text><text x="57" y="34" font-family="Cascadia, Segoe UI Emoji" font-size="16px" fill="#c92a2a" text-anchor="middle" style="white-space: pre;" direction="ltr">račun?</text></g><g transform="translate(440.7887110396241 1450.9043346067324) rotate(0 57 19)"><text x="57" y="15" font-family="Cascadia, Segoe UI Emoji" font-size="16px" fill="#2b8a3e" text-anchor="middle" style="white-space: pre;" direction="ltr">Ima li user </text><text x="57" y="34" font-family="Cascadia, Segoe UI Emoji" font-size="16px" fill="#2b8a3e" text-anchor="middle" style="white-space: pre;" direction="ltr">račun?</text></g><g transform="translate(1248.6554509484786 502.504340710248) rotate(0 61.5 38)"><text x="61.5" y="15" font-family="Cascadia, Segoe UI Emoji" font-size="16px" fill="#c92a2a" text-anchor="middle" style="white-space: pre;" direction="ltr"> Verificiran </text><text x="61.5" y="34" font-family="Cascadia, Segoe UI Emoji" font-size="16px" fill="#c92a2a" text-anchor="middle" style="white-space: pre;" direction="ltr">barem na 1 </text><text x="61.5" y="53" font-family="Cascadia, Segoe UI Emoji" font-size="16px" fill="#c92a2a" text-anchor="middle" style="white-space: pre;" direction="ltr">društvenoj </text><text x="61.5" y="72" font-family="Cascadia, Segoe UI Emoji" font-size="16px" fill="#c92a2a" text-anchor="middle" style="white-space: pre;" direction="ltr">mreži</text></g><g transform="translate(1306.9745107745575 1374.675744867614) rotate(0 57 19)"><text x="57" y="15" font-family="Cascadia, Segoe UI Emoji" font-size="16px" fill="#2b8a3e" text-anchor="middle" style="white-space: pre;" direction="ltr">Verificiran </text><text x="57" y="34" font-family="Cascadia, Segoe UI Emoji" font-size="16px" fill="#2b8a3e" text-anchor="middle" style="white-space: pre;" direction="ltr">korisnik</text></g><g stroke-linecap="round" transform="translate(172.78401932529232 578.5614194804766) rotate(0 27.599998474121094 46)"><path d="M0.28 -1.51 C20.67 0.65, 38.44 -1.65, 55.85 -1.31 M0.01 0.66 C11.7 0.74, 24.4 0.51, 55.48 -0.29 M56.32 -0.11 C54.73 26.2, 53.76 50.98, 56.87 93.8 M54.55 0.52 C53.91 34.79, 53.73 70.19, 54.9 91.71 M54.13 92.01 C36.16 92.44, 20.37 90.01, -1.93 92.45 M54.52 91.33 C39.49 90.99, 24.4 92.47, -0.65 91.83 M-0.86 93.86 C-0.72 68.7, 1.02 42.04, 1.94 0.37 M-0.38 91.33 C0.69 59.85, 0.49 26.86, 0.19 -0.62" stroke="#c92a2a" stroke-width="2" fill="none"></path></g><g stroke-linecap="round" transform="translate(163.74593629422725 1430.3042522092715) rotate(0 27.599998474121094 46)"><path d="M-0.5 0.32 C23.27 0.84, 44.76 1.25, 57.06 1.7 M0.99 0.06 C19.73 0.49, 38.2 0.56, 55.95 -0.12 M55.11 -1.33 C53.87 34.69, 56.65 66.23, 57.14 92.7 M56.06 0.8 C54.9 29.96, 56.14 60.65, 55.17 91.96 M55.4 91.46 C34.35 92.35, 15.47 90.33, -0.6 91.15 M54.64 91.28 C36.82 92.37, 17.59 91.79, -0.16 92.98 M1.75 91 C0.44 71.81, -1.5 50.01, -1.24 -0.45 M-0.65 92.2 C-0.57 65.63, -1.76 41.27, -0.03 0.99" stroke="#2b8a3e" stroke-width="2" fill="none"></path></g><g stroke-linecap="round" transform="translate(891.5554753625411 499.7043071409121) rotate(0 65.60000610351562 56.40000915527344)"><path d="M-0.13 -0.76 C44.74 0.47, 90.16 2.23, 133.17 -1.36 M-0.88 0.41 C46.25 0.79, 91.27 0.64, 131.89 -0.22 M129.53 -1.21 C133.44 44.97, 133.23 91.75, 132.2 114.7 M130.73 -0.36 C130.61 45.08, 132.17 90.85, 131.81 111.83 M131.61 111.91 C99.32 114.22, 68.86 115.6, 0.21 114.32 M130.86 112.44 C102.9 111.88, 75.14 112.55, 0.62 112.83 M-1.02 114.44 C0.91 91.12, -1.45 64.2, 1.84 -1.11 M0.84 111.92 C-0.86 85.56, -1.32 59.37, -0.09 -0.06" stroke="#c92a2a" stroke-width="2" fill="none"></path></g><g stroke-linecap="round" transform="translate(891.0888209029054 1354.3042827268496) rotate(0 65.60000610351562 56.40000915527344)"><path d="M0.32 1.24 C28.67 1.03, 57.43 2.19, 132.9 0.79 M0.06 1 C37.06 -0.55, 73.99 -0.54, 131.08 0.59 M129.87 -1.8 C133.09 40.55, 131.58 81.06, 131.9 113.37 M132 -0.5 C130.64 37, 131.12 72.48, 131.16 113.5 M130.66 112.36 C100.6 114.02, 67.61 112.33, -0.85 113.5 M130.48 112.92 C83.66 111.45, 35.17 111.9, 0.98 112.13 M-1 114.13 C0.82 67.48, 0.45 22.14, -0.45 -0.42 M0.2 113.15 C-1.03 66.88, 0.31 22.6, 0.99 -0.65" stroke="#2b8a3e" stroke-width="2" fill="none"></path></g><g stroke-linecap="round" transform="translate(1623.326977176157 394.73289993178787) rotate(0 65.60000610351562 56.40000915527344)"><path d="M0.58 0.82 C47.41 0.94, 92.6 -2.45, 131 -0.25 M0.7 0.08 C26.97 1.16, 52.11 0.32, 131.13 0.99 M132.64 -0.65 C131.07 41.31, 131.13 82.85, 129.63 113.23 M131.79 0.56 C130.49 45.19, 131.75 91.01, 131.81 111.89 M131.48 112.18 C90.29 115.35, 51.78 115.06, -0.88 111.53 M132.19 113.05 C91.43 112.31, 51.85 111.43, -0.65 113.64 M1.36 111 C-1.15 75.23, 0.38 36.02, 0.84 1.84 M-0.48 111.92 C-0.07 69.73, -0.23 26.08, 0.83 -0.16" stroke="#c92a2a" stroke-width="2" fill="none"></path></g><g stroke-linecap="round" transform="translate(1618.5746084308075 1137.9043040891543) rotate(0 65.60000610351562 56.40000915527344)"><path d="M1.24 0.32 C27.89 0.53, 56.23 1.48, 131.99 -0.38 M1 0.18 C32.74 0.16, 64.76 -0.2, 131.79 0.51 M129.4 1.65 C132.13 36.36, 133.08 73.15, 131.77 113.23 M130.7 -0.26 C132.91 31.13, 132.14 61.8, 131.9 112.16 M130.76 113.16 C93.28 110.79, 52.59 111.59, 0.7 114.1 M131.32 113.16 C90.92 111.63, 51.7 112.84, -0.67 113.76 M1.33 114.04 C-1.6 75.6, -2.23 36.21, -0.42 1.99 M0.35 112.12 C-0.11 76.18, 0.7 39.25, -0.65 -0.46" stroke="#2b8a3e" stroke-width="2" fill="none"></path></g><g stroke-linecap="round" transform="translate(1991.7841566543939 163.361453049813) rotate(0 65.60000610351562 56.40000915527344)"><path d="M1.09 1.08 C42.49 2.28, 80.69 -0.1, 131.52 0.37 M-0.75 -0.4 C30.46 -0.55, 61.2 -0.94, 130.33 -0.21 M129.94 0.16 C133.55 41.77, 132.28 86.97, 132.33 114.25 M130.21 -0.3 C130.54 37.6, 131.15 72.48, 130.95 112.42 M131.08 113.59 C88.85 113.64, 47.85 113.9, -1.69 110.95 M130.71 113.12 C79.34 113.17, 26.01 113.28, -0.61 113.12 M1.67 112.89 C-1.35 76.89, 1.4 43.88, -0.76 1.99 M0.04 112.17 C-0.32 81.58, -0.11 47.86, 0.65 -0.83" stroke="#c92a2a" stroke-width="2" fill="none"></path></g><g stroke-linecap="round" transform="translate(1978.460359337616 1015.1042857786074) rotate(0 65.60000610351562 56.40000915527344)"><path d="M0.32 0.7 C36.79 1.05, 73.81 -0.03, 130.82 -1.12 M0.18 0.74 C52.53 -0.56, 104.46 -0.72, 131.71 0.21 M132.85 0.98 C130.58 35.26, 131.14 67.21, 131.63 112.28 M130.94 0.74 C132.32 43.51, 132.07 87.77, 130.56 112.77 M131.56 113.88 C88.86 111.91, 48.98 113.21, 1.3 112.85 M131.56 112.19 C98.96 112.79, 68.16 112.29, 0.96 113.18 M1.24 112.19 C1.44 67.85, 0.12 24.97, 1.99 0.61 M-0.68 111.96 C0.42 86.29, 0.76 59.2, -0.46 -0.35" stroke="#2b8a3e" stroke-width="2" fill="none"></path></g><g stroke-linecap="round" transform="translate(1991.0984179546167 387.9900061678377) rotate(0 65.60000610351562 56.40000915527344)"><path d="M-0.28 1.22 C38.86 -1.36, 81.95 0.69, 131.61 1.94 M-0.98 -0.36 C46.98 -0.2, 93.1 0.43, 131.9 -0.03 M130.58 1.47 C131.42 44.22, 131.61 90.33, 132.23 114.74 M131.79 -0.2 C130.4 26.36, 131.06 52.49, 130.39 112.29 M129.63 113.39 C103.74 113.74, 79.1 114.44, 1.85 111.17 M130.22 112.92 C80.13 112.38, 27.25 113.09, -0.87 113.58 M-0.65 111.42 C-1.18 70.39, -1.46 31.98, 1.25 0.74 M0.16 113.44 C-0.66 80.78, -0.76 51.03, -0.99 -0.43" stroke="#c92a2a" stroke-width="2" fill="none"></path></g><g stroke-linecap="round" transform="translate(1982.0603349235535 1168.3042674680605) rotate(0 65.60000610351562 56.40000915527344)"><path d="M0.7 0.74 C43.35 1.48, 83.75 -0.59, 130.08 1.97 M0.74 0.25 C40.96 -0.36, 81.01 0.27, 131.41 -0.05 M132.18 0.14 C132.12 27.02, 130.75 53.07, 130.68 114.52 M131.94 0.21 C130.6 42.88, 131.33 85.2, 131.17 112.9 M132.28 111.14 C94.75 112.18, 60.21 114.34, 0.05 111.68 M130.59 112.58 C101.11 114.25, 70.68 114.23, 0.38 113.67 M-0.61 113.67 C-1.99 84.16, -1.16 58.42, 0.61 -1.31 M-0.84 113.45 C-0.43 77.67, -1.05 40.11, -0.35 0.57" stroke="#2b8a3e" stroke-width="2" fill="none"></path></g><g stroke-linecap="round" transform="translate(1979.878505644434 1343.667914928998) rotate(0 65.60000610351562 56.40000915527344)"><path d="M-1.46 -1.38 C49.45 1.18, 96.47 1.81, 130.85 0.71 M-0.08 0.61 C43.78 1.16, 88.7 1.59, 131.45 -1 M129.43 -1.92 C129.34 25.28, 131.09 53.06, 129.3 114.31 M131.84 0.49 C133.26 44.6, 131.85 90.44, 131.01 112.38 M132.77 113.55 C87.91 111.22, 42.26 111.44, -1.99 112.01 M130.56 112.1 C86.46 113.36, 39.99 114.11, 0.66 113.26 M1.74 112.91 C0.17 75.53, 0.25 39.96, 1.72 -0.5 M0.28 112.46 C-1.07 77.8, -0.91 44.85, 0.99 0.57" stroke="#2b8a3e" stroke-width="2" fill="none"></path></g><g stroke-linecap="round" transform="translate(2363.125247793886 1393.1614214225046) rotate(0 65.60000610351562 56.40000915527344)"><path d="M1.08 0.16 C30.97 -0.03, 66.8 0.17, 130.82 -0.49 M-0.19 -0.43 C46.7 1.78, 96.23 1.48, 131.12 0.2 M130.35 -0.4 C132.32 29.15, 130.64 59.57, 132.55 111.18 M131.69 0.86 C130.88 35.39, 129.81 67.96, 131.51 113.11 M131.44 113.45 C97.29 113.89, 61.8 114.14, -0.5 112.59 M130.81 112.63 C94.52 114.73, 58.34 114.58, 0.73 113.25 M-0.91 112.02 C-0.97 79.45, -1.36 50.08, -1.22 -1.7 M0.73 113.74 C1.53 84.91, 0.38 57.4, 0.16 0.34" stroke="#2b8a3e" stroke-width="2" fill="none"></path></g><g stroke-linecap="round" transform="translate(2695.177218040436 1407.9666162276992) rotate(0 65.60000610351562 56.40000915527344)"><path d="M0.21 -1.16 C26.86 0.04, 55.09 -2.05, 129.71 -1.96 M0.4 -0.23 C50.67 1.37, 101.54 0.17, 131.95 -0.43 M131.11 -0.8 C131.19 39.64, 129.01 82.19, 130.61 111.58 M130.3 -0.91 C131.3 42.45, 130.77 84.81, 131.13 112.12 M129.59 113.32 C89.3 113.71, 47.48 114.27, -1.92 114.11 M131.53 111.85 C80.43 113.2, 29.84 113.48, 0.68 112.67 M0.25 111.16 C-0.58 91.58, 0.15 65.26, 0.09 0.85 M0.98 112.86 C0.01 81.07, -0.79 48.64, -0.18 0.37" stroke="#2b8a3e" stroke-width="2" fill="none"></path></g><g stroke-linecap="round" transform="translate(2310.063284359291 150.31912228798274) rotate(0 65.60000610351562 56.40000915527344)"><path d="M0.48 0.97 C34.83 0.7, 74.13 -0.83, 130.65 -0.48 M0.01 0.41 C28.6 -0.31, 56.62 -0.76, 130.56 0.37 M132.52 1.52 C130.54 25.77, 130.76 51.73, 131.48 111.68 M132.2 0.74 C132.08 41.64, 130.76 84.57, 131.1 112.22 M132.16 110.99 C99.44 111.98, 66.96 113.14, 1.44 113.73 M131.08 113.22 C96.08 112.16, 63.83 112.49, 0.21 112.11 M1.23 112.2 C2.28 68.23, 2.28 23.76, -1.82 -1.92 M-0.52 113.46 C-1.17 71.14, -0.99 31.68, 0.97 -0.32" stroke="#c92a2a" stroke-width="2" fill="none"></path></g><g stroke-linecap="round" transform="translate(2320.507917350079 318.52339748456916) rotate(0 65.60000610351562 56.40000915527344)"><path d="M1.59 -0.92 C32.99 -1.09, 69.04 -0.59, 130.15 0.94 M0.23 0.55 C44.34 1.14, 87.3 1.28, 130.95 0.93 M133.1 0.62 C131.5 35.72, 131.32 67.2, 130.98 112.85 M131.94 -0.39 C129.74 34.22, 130.42 69.67, 130.98 113.54 M131.5 112.09 C79.77 114, 30.56 112.34, -0.01 113.8 M131.28 112.44 C84.13 112.9, 35.18 112.79, -0.86 112.02 M1.27 113.92 C0.82 74.25, 1.04 35.89, 0.83 0.45 M0.22 112.99 C0.52 71.89, -0.12 29.6, -0.57 0.35" stroke="#c92a2a" stroke-width="2" fill="none"></path></g><g stroke-linecap="round" transform="translate(2347.650774492936 1054.237683198854) rotate(0 65.60000610351562 56.40000915527344)"><path d="M-0.39 1.42 C42.74 -0.06, 83.5 -0.49, 131.9 -0.41 M0.05 -0.58 C44.5 0.73, 89.66 -0.15, 131.87 -0.41 M130.98 0.17 C129.43 46.28, 132.52 90.86, 129.91 111.7 M131.88 -0.75 C131.38 31.09, 131.53 63.17, 132 112.84 M130.58 111.73 C77.55 111.1, 27.75 110.36, -0.4 112.7 M131.18 112.87 C83.34 114.84, 35.19 114.22, -0.88 112.35 M-1.14 113.01 C2.23 77.3, 2.49 42.12, -0.28 0.32 M-0.04 112.77 C-1.3 75.35, -0.33 39.93, -0.56 -0.89" stroke="#2b8a3e" stroke-width="2" fill="none"></path></g><g stroke-linecap="round" transform="translate(2641.0577800938026 418.5739146757742) rotate(0 65.60000610351562 56.40000915527344)"><path d="M-1.45 -0.06 C41.99 0.22, 81.92 0.46, 131.88 1.37 M-0.73 -0.46 C42.44 -0.67, 86.14 -1.28, 131.41 -0.28 M130.06 -0.9 C131.17 34.12, 129.26 67.92, 132.43 111.69 M131.88 0.5 C132.87 26.04, 132.9 51.62, 130.65 112.83 M130.54 111.37 C93.23 111.52, 51.74 114.26, -1.74 111.74 M131.27 113.45 C92.06 114.3, 52.84 113.3, 0.84 112.86 M-0.7 113.63 C-1.47 69.66, -0.51 24.38, -0.34 -0.17 M0.3 112.54 C0.06 76.26, 0.32 40.15, 0.44 -0.1" stroke="#c92a2a" stroke-width="2" fill="none"></path></g><g stroke-linecap="round" transform="translate(2646.9813798732575 553.106174677318) rotate(0 65.60000610351562 56.40000915527344)"><path d="M-1.29 -1.11 C44.07 0.92, 89.46 1.95, 130.34 -0.02 M-0.85 0.48 C49.27 2.16, 98.14 0.66, 130.58 0.97 M129.67 1.02 C132.67 28.6, 133.12 57.24, 131.69 113.05 M130.62 -0.59 C130.78 26.88, 130.98 54.73, 131.51 112.08 M133.05 113.98 C86.14 115.77, 43.51 113.42, 0.53 113.6 M131.28 111.88 C93.43 113.82, 58.25 114.01, 0.39 113.18 M1.14 111.96 C-0.89 70.38, 2.88 30.23, 1.26 -1.86 M0.72 113.67 C-0.7 89.45, -0.54 65.58, 0.84 0.53" stroke="#c92a2a" stroke-width="2" fill="none"></path></g><g stroke-linecap="round" transform="translate(2797.3815296867087 428.3720324447727) rotate(0 131 50.5)"><path d="M0.13 -1.47 C72.34 -1.98, 148.79 -1.68, 262.62 0.6 M0.45 -0.33 C96.35 -1.52, 194.98 -0.86, 262.5 -0.74 M263.45 1.74 C262.65 20.77, 262.98 40.49, 263.69 102.07 M262.48 0.32 C262.63 25.05, 261.83 51.25, 262.77 100.54 M261.83 100.8 C159.86 100.04, 57.72 99.15, -1.47 101.08 M262.11 101.01 C179.96 100.79, 97.69 100.94, 0.48 101.66 M-0.89 100.89 C-2.36 65.23, 0.95 26.24, 0.24 -1.53 M0.26 101.76 C1.21 78.38, 0.02 57.38, -0.49 -0.98" stroke="#c92a2a" stroke-width="2" fill="none"></path></g><g stroke-linecap="round" transform="translate(2808.048031762748 293.8682821490238) rotate(0 104.5 43.5)"><path d="M1.48 0.18 C46.63 2.82, 95.17 0.54, 210.35 -1.27 M0.53 0.41 C65.98 -1.04, 132.23 -1.96, 209.83 0.07 M208.55 1.75 C209.93 26.61, 210.43 51.21, 209.59 88.38 M208.81 0.82 C208.19 27.71, 209.06 57.56, 209.22 86.81 M208.95 87.83 C167.88 87.31, 125.73 86.24, 0.36 87.44 M209.51 86.89 C141.23 87.86, 73.59 88.65, -0.02 87.23 M1.95 86.96 C0.84 56.59, 1.11 22, -1.79 -1.57 M0.45 86.82 C0.67 59.31, -0.79 32.72, 0.41 -0.28" stroke="#c92a2a" stroke-width="2" fill="none"></path></g><g stroke-linecap="round" transform="translate(2806.1995704070596 552.7092149251075) rotate(0 65.60000610351562 56.40000915527344)"><path d="M-0.34 -0.99 C43.5 1.87, 86.4 -0.33, 132.37 0.63 M-0.64 0.18 C27.67 -1.85, 55.72 -0.37, 132.13 0.54 M129.81 -1.32 C130.42 35.88, 129.51 73.67, 132.46 112.37 M131.8 -0.99 C130.9 43.94, 130.53 89.71, 131.11 113.02 M130.78 113.22 C102 113.42, 68.95 112.44, -0.9 112.92 M130.92 111.92 C103.52 111.74, 74.88 112.75, -0.64 113.71 M0.44 111.71 C1.49 69.22, -1.02 28.38, 0.63 1.31 M-0.56 111.85 C1.65 79.41, 0.12 45.12, -0.55 -0.74" stroke="#c92a2a" stroke-width="2" fill="none"></path></g><g stroke-linecap="round" transform="translate(2633.783508125811 275.9338900494399) rotate(0 65.60000610351562 56.40000915527344)"><path d="M0.16 -0.5 C29.13 0.34, 54.48 1.84, 129.25 1.7 M0.54 -0.41 C37.92 -0.04, 73.84 -0.91, 131.6 -0.55 M130.61 -1.09 C133.01 46.74, 132 89.39, 129.87 111.8 M130.61 -0.49 C131.92 34.5, 131 70.59, 132.18 112.36 M132.34 114.45 C98.47 111.46, 65.3 111.95, 0.73 114.02 M131.16 112.79 C88.66 111.09, 44.79 112.56, 0.98 112.91 M-0.57 112.6 C0.93 85.8, 0.67 57.84, 0.78 -1.94 M0 112.28 C0.73 69.8, -0.36 27.21, 0.24 -0.24" stroke="#c92a2a" stroke-width="2" fill="none"></path></g><g stroke-linecap="round" transform="translate(2327.174584016745 453.5233974845687) rotate(0 65.60000610351562 56.40000915527344)"><path d="M-1.02 -1.22 C40.85 2.21, 77.35 0.84, 130.49 0.92 M0.3 0.61 C50.77 -1.29, 102.14 -1.62, 131.06 -0.8 M131.27 -0.29 C131.09 33.84, 132.65 66.07, 130.84 112.12 M130.35 -0.3 C130.21 37.62, 129.77 76.56, 131.43 113.48 M130.68 113.14 C77.62 111.64, 29.24 111.47, -1.2 113.58 M131.51 113.6 C78.95 113.07, 27.83 111.99, 0.73 112.71 M-1.34 114.63 C-1.21 75.39, 1.87 35.8, 0.91 -1.84 M0.54 113.66 C0.35 76.18, -0.34 41.6, -0.76 -0.77" stroke="#c92a2a" stroke-width="2" fill="none"></path></g><g stroke-linecap="round" transform="translate(2354.317441159602 1189.2376831988536) rotate(0 65.60000610351562 56.40000915527344)"><path d="M1.42 1.22 C52.14 0.71, 103.72 0.96, 130.79 0.85 M-0.58 -0.47 C30.44 -0.33, 59.84 0.6, 130.79 0.97 M131.37 -1.88 C132.14 36.18, 131.88 68.64, 130.1 112.49 M130.45 -0.08 C129.37 36.52, 129.38 73.71, 131.24 113.77 M130.13 111.28 C78.94 113.21, 26.58 111.99, -0.1 114.19 M131.27 113.4 C80.04 113.69, 27.52 111.89, -0.45 112.9 M0.21 114.44 C0.56 86.68, 0.39 56.47, 0.32 0.49 M-0.03 112.37 C-1.25 70.75, -0.07 27.04, -0.89 0.03" stroke="#2b8a3e" stroke-width="2" fill="none"></path></g><g stroke-linecap="round" transform="translate(2360.517453366634 868.3614683086021) rotate(0 65.60000610351562 56.40000915527344)"><path d="M0.74 1.86 C49.2 0.32, 94.63 -1.58, 133.17 0.13 M0.25 0.75 C52.33 -0.38, 105.39 -0.76, 131.15 -0.67 M131.34 1.94 C132.83 24.26, 132.56 46.86, 132.92 114.41 M131.41 -0.03 C130.86 28.9, 130.26 56.37, 131.3 112.53 M129.54 112.2 C93.87 114.21, 59.54 113.56, -1.12 111.36 M130.98 112.64 C91.26 111.32, 50.33 112.37, 0.87 112.3 M0.87 111.56 C-1.15 71.06, 1.29 30.77, -1.31 0.4 M0.65 112.77 C1.76 74.4, 0.31 36.95, 0.57 0.36" stroke="#2b8a3e" stroke-width="2" fill="none"></path></g><g stroke-linecap="round" transform="translate(1617.2126670478083 564.9044566770449) rotate(0 65.60000610351562 56.40000915527344)"><path d="M0.2 -0.08 C34.43 1.67, 70.89 -0.91, 131.87 -0.69 M0.83 -0.39 C39.2 -0.26, 80.21 -0.6, 131.55 0.56 M133.09 -1.69 C130.89 34.88, 133.14 68.98, 129.46 112.44 M131.82 0.28 C130.75 27.16, 130.38 53.29, 131.96 113.4 M132.4 111.56 C83.11 113.16, 38.85 109.62, -1.33 114.71 M131.99 112.28 C86.45 112.77, 42.24 113.9, 0.35 113.72 M0.8 110.82 C-0.26 69.6, 1.4 28.64, -1.97 -1.98 M-0.94 111.93 C0.35 82.46, 0.66 53.07, 0.54 0.43" stroke="#c92a2a" stroke-width="2" fill="none"></path></g><g stroke-linecap="round" transform="translate(1599.6031554453166 1433.7901465486966) rotate(0 65.60000610351562 56.40000915527344)"><path d="M1.86 1.7 C42.27 -0.86, 81.85 1.49, 131.33 1.99 M0.75 -0.12 C42.34 0.18, 83.71 -0.37, 130.53 -0.9 M133.14 0.7 C132.32 43.56, 131.24 87.98, 132.81 111.8 M131.17 -0.04 C132.74 30.23, 132.01 61.83, 130.93 112.58 M130.6 111.95 C90.16 113.01, 47.77 110.59, -1.44 113.04 M131.04 113.78 C86.5 113.47, 43.51 113.38, -0.5 113.46 M-1.24 112.35 C-0.07 73.93, 0.95 29.77, 0.4 0.69 M-0.03 113.79 C0.29 86.21, 0.59 61.09, 0.36 -0.02" stroke="#2b8a3e" stroke-width="2" fill="none"></path></g><g stroke-linecap="round" transform="translate(1993.8983752300082 586.6758364203483) rotate(0 65.60000610351562 56.40000915527344)"><path d="M-0.31 1.77 C38.16 0.83, 73.5 -0.97, 130.64 1.96 M0.97 0.99 C49.06 0.51, 99.13 0.14, 131.29 -0.95 M131.71 0.56 C133.6 29.97, 132.68 60.2, 129.25 113.93 M131.14 0.71 C130.83 40.93, 130.76 81.35, 131.42 113.7 M129.91 114.51 C80.42 111.26, 29.13 113.21, 0.61 113.09 M130.3 112.65 C91.28 112.15, 50.05 113.16, 0.83 112.66 M1.03 112.81 C0.86 83.46, 1.25 54.92, 0.59 0.12 M0.81 112.41 C0.23 85.07, 1.06 57.79, -0.63 0.75" stroke="#c92a2a" stroke-width="2" fill="none"></path></g><g stroke-linecap="round" transform="translate(1977.7174350560872 1524.132954863429) rotate(0 65.60000610351562 56.40000915527344)"><path d="M1.7 0.79 C43.59 -2.34, 89.91 -1.09, 133.19 0.36 M-0.12 0.59 C49.58 -0.78, 98.09 -1.65, 130.3 0.82 M131.9 0.57 C131.71 38.87, 133 80.39, 130.2 112.27 M131.16 0.7 C130.8 42.2, 131.54 84.18, 130.98 112.98 M130.35 113.5 C86.03 112.45, 37.13 110.97, 0.24 113.51 M132.18 112.13 C100.85 112.96, 69.46 112.08, 0.66 113.42 M-0.45 112.38 C1.5 83.01, -1.8 52.4, 0.69 -1.37 M0.99 112.15 C-1.19 88.1, -0.16 64.47, -0.02 -0.51" stroke="#2b8a3e" stroke-width="2" fill="none"></path></g><g stroke-linecap="round" transform="translate(897.5554753625411 699.3043437620058) rotate(0 65.60000610351562 56.40000915527344)"><path d="M1.79 -0.65 C37.53 0.61, 78.29 0.36, 132.64 0.5 M0.7 0.11 C28.13 -0.87, 57.13 -1.39, 131.2 -0.09 M131.08 -0.85 C129.97 41.28, 131.16 82.49, 132.01 111.93 M131.62 0.45 C131.74 32.85, 131.47 66.01, 131.43 113.75 M133.07 111.18 C89 113.5, 47.57 112.42, -0.81 114.45 M131.73 113.65 C87.11 114.12, 42.86 113.63, 0.45 112.58 M0.08 111.42 C0.92 85.46, 2.69 57.51, -0.64 -0.2 M-0.34 111.89 C-0.54 80.13, -0.58 46.37, 0.49 -0.37" stroke="#c92a2a" stroke-width="2" fill="none"></path></g><g stroke-linecap="round" transform="translate(897.0888209029054 1553.9043193479433) rotate(0 65.60000610351562 56.40000915527344)"><path d="M0.79 -0.38 C43.08 0.86, 88.53 0.88, 131.56 1.48 M0.59 0.51 C42.81 0.11, 84.54 -0.75, 132.02 0.49 M131.77 0.43 C131.77 36.33, 133.9 68.22, 130.67 114.29 M131.9 -0.64 C131.14 36.35, 130.9 72.28, 131.38 113.34 M131.9 114.1 C102.76 111.12, 72.78 112.48, 0.71 111.57 M130.53 113.76 C95.16 114.96, 57.88 114.75, 0.62 112.5 M-0.42 114.79 C1.31 72.73, 1.1 35.97, -1.37 -1.68 M-0.65 112.34 C-0.32 72.22, 0.4 30.48, -0.51 0" stroke="#2b8a3e" stroke-width="2" fill="none"></path></g><g transform="translate(932.6554814660567 546.6043162961855) rotate(0 24.5 9.5)"><text x="24.5" y="15" font-family="Cascadia, Segoe UI Emoji" font-size="16px" fill="#c92a2a" text-anchor="middle" style="white-space: pre;" direction="ltr">Login</text></g><g transform="translate(932.188827006421 1401.204291882123) rotate(0 24.5 9.5)"><text x="24.5" y="15" font-family="Cascadia, Segoe UI Emoji" font-size="16px" fill="#2b8a3e" text-anchor="middle" style="white-space: pre;" direction="ltr">Login</text></g><g transform="translate(1641.4269832796726 432.1329090870613) rotate(0 47.5 19)"><text x="47.5" y="15" font-family="Cascadia, Segoe UI Emoji" font-size="16px" fill="#c92a2a" text-anchor="middle" style="white-space: pre;" direction="ltr">Home page </text><text x="47.5" y="34" font-family="Cascadia, Segoe UI Emoji" font-size="16px" fill="#c92a2a" text-anchor="middle" style="white-space: pre;" direction="ltr">dashboard</text></g><g transform="translate(1636.6746145343232 1175.3043132444277) rotate(0 47.5 19)"><text x="47.5" y="15" font-family="Cascadia, Segoe UI Emoji" font-size="16px" fill="#2b8a3e" text-anchor="middle" style="white-space: pre;" direction="ltr">Home page </text><text x="47.5" y="34" font-family="Cascadia, Segoe UI Emoji" font-size="16px" fill="#2b8a3e" text-anchor="middle" style="white-space: pre;" direction="ltr">dashboard</text></g><g transform="translate(2023.3841627579095 200.76146220508645) rotate(0 34 19)"><text x="34" y="15" font-family="Cascadia, Segoe UI Emoji" font-size="16px" fill="#c92a2a" text-anchor="middle" style="white-space: pre;" direction="ltr">See my </text><text x="34" y="34" font-family="Cascadia, Segoe UI Emoji" font-size="16px" fill="#c92a2a" text-anchor="middle" style="white-space: pre;" direction="ltr">profile</text></g><g transform="translate(2010.0603654411316 1052.5042949338808) rotate(0 34 19)"><text x="34" y="15" font-family="Cascadia, Segoe UI Emoji" font-size="16px" fill="#2b8a3e" text-anchor="middle" style="white-space: pre;" direction="ltr">See my </text><text x="34" y="34" font-family="Cascadia, Segoe UI Emoji" font-size="16px" fill="#2b8a3e" text-anchor="middle" style="white-space: pre;" direction="ltr">profile</text></g><g transform="translate(2036.6984240581323 434.89001532311113) rotate(0 20 9.5)"><text x="20" y="15" font-family="Cascadia, Segoe UI Emoji" font-size="16px" fill="#c92a2a" text-anchor="middle" style="white-space: pre;" direction="ltr">Jobs</text></g><g transform="translate(2027.660341027069 1215.204276623334) rotate(0 20 9.5)"><text x="20" y="15" font-family="Cascadia, Segoe UI Emoji" font-size="16px" fill="#2b8a3e" text-anchor="middle" style="white-space: pre;" direction="ltr">Jobs</text></g><g transform="translate(1992.9785117479496 1371.5679240842715) rotate(0 52.5 19)"><text x="52.5" y="15" font-family="Cascadia, Segoe UI Emoji" font-size="16px" fill="#2b8a3e" text-anchor="middle" style="white-space: pre;" direction="ltr">Search </text><text x="52.5" y="34" font-family="Cascadia, Segoe UI Emoji" font-size="16px" fill="#2b8a3e" text-anchor="middle" style="white-space: pre;" direction="ltr">influencers</text></g><g transform="translate(2390.7252538974017 1430.561430577778) rotate(0 38 19)"><text x="38" y="15" font-family="Cascadia, Segoe UI Emoji" font-size="16px" fill="#2b8a3e" text-anchor="middle" style="white-space: pre;" direction="ltr">Inspect </text><text x="38" y="34" font-family="Cascadia, Segoe UI Emoji" font-size="16px" fill="#2b8a3e" text-anchor="middle" style="white-space: pre;" direction="ltr">profile</text></g><g transform="translate(2703.7772241439516 1445.3666253829726) rotate(0 57 19)"><text x="57" y="15" font-family="Cascadia, Segoe UI Emoji" font-size="16px" fill="#2b8a3e" text-anchor="middle" style="white-space: pre;" direction="ltr">Send offer, </text><text x="57" y="34" font-family="Cascadia, Segoe UI Emoji" font-size="16px" fill="#2b8a3e" text-anchor="middle" style="white-space: pre;" direction="ltr">chat</text></g><g transform="translate(2318.163290462807 197.21913144325617) rotate(0 57.5 9.5)"><text x="57.5" y="15" font-family="Cascadia, Segoe UI Emoji" font-size="16px" fill="#c92a2a" text-anchor="middle" style="white-space: pre;" direction="ltr">Edit profile</text></g><g transform="translate(2352.1079234535946 365.4234066398426) rotate(0 34 9.5)"><text x="34" y="15" font-family="Cascadia, Segoe UI Emoji" font-size="16px" fill="#c92a2a" text-anchor="middle" style="white-space: pre;" direction="ltr">Refused</text></g><g transform="translate(2379.2507805964515 1101.1376923541275) rotate(0 34 9.5)"><text x="34" y="15" font-family="Cascadia, Segoe UI Emoji" font-size="16px" fill="#2b8a3e" text-anchor="middle" style="white-space: pre;" direction="ltr">Refused</text></g><g transform="translate(2649.6577861973183 427.4739238310476) rotate(0 57 47.5)"><text x="57" y="15" font-family="Cascadia, Segoe UI Emoji" font-size="16px" fill="#c92a2a" text-anchor="middle" style="white-space: pre;" direction="ltr">Preview </text><text x="57" y="34" font-family="Cascadia, Segoe UI Emoji" font-size="16px" fill="#c92a2a" text-anchor="middle" style="white-space: pre;" direction="ltr">contract, </text><text x="57" y="53" font-family="Cascadia, Segoe UI Emoji" font-size="16px" fill="#c92a2a" text-anchor="middle" style="white-space: pre;" direction="ltr">time, </text><text x="57" y="72" font-family="Cascadia, Segoe UI Emoji" font-size="16px" fill="#c92a2a" text-anchor="middle" style="white-space: pre;" direction="ltr">dates... and</text><text x="57" y="91" font-family="Cascadia, Segoe UI Emoji" font-size="16px" fill="#c92a2a" text-anchor="middle" style="white-space: pre;" direction="ltr">fake post</text></g><g transform="translate(2655.581385976773 590.5061838325914) rotate(0 57 19)"><text x="57" y="15" font-family="Cascadia, Segoe UI Emoji" font-size="16px" fill="#c92a2a" text-anchor="middle" style="white-space: pre;" direction="ltr">Transaction </text><text x="57" y="34" font-family="Cascadia, Segoe UI Emoji" font-size="16px" fill="#c92a2a" text-anchor="middle" style="white-space: pre;" direction="ltr">status</text></g><g transform="translate(2805.8815296867087 440.8720324447727) rotate(0 122.5 38)"><text x="122.5" y="15" font-family="Cascadia, Segoe UI Emoji" font-size="16px" fill="#c92a2a" text-anchor="middle" style="white-space: pre;" direction="ltr">Check my post status, true</text><text x="122.5" y="34" font-family="Cascadia, Segoe UI Emoji" font-size="16px" fill="#c92a2a" text-anchor="middle" style="white-space: pre;" direction="ltr">if published post matches </text><text x="122.5" y="53" font-family="Cascadia, Segoe UI Emoji" font-size="16px" fill="#c92a2a" text-anchor="middle" style="white-space: pre;" direction="ltr">fake post inside Growi </text><text x="122.5" y="72" font-family="Cascadia, Segoe UI Emoji" font-size="16px" fill="#c92a2a" text-anchor="middle" style="white-space: pre;" direction="ltr">(text matching - fuzzy)</text></g><g transform="translate(2813.548031762748 308.8682821490238) rotate(0 99 28.5)"><text x="99" y="15" font-family="Cascadia, Segoe UI Emoji" font-size="16px" fill="#c92a2a" text-anchor="middle" style="white-space: pre;" direction="ltr">Instagram clone, fake</text><text x="99" y="34" font-family="Cascadia, Segoe UI Emoji" font-size="16px" fill="#c92a2a" text-anchor="middle" style="white-space: pre;" direction="ltr">posting, client </text><text x="99" y="53" font-family="Cascadia, Segoe UI Emoji" font-size="16px" fill="#c92a2a" text-anchor="middle" style="white-space: pre;" direction="ltr">approves fake post</text></g><g transform="translate(2814.299576510575 599.609224080381) rotate(0 57.5 9.5)"><text x="57.5" y="15" font-family="Cascadia, Segoe UI Emoji" font-size="16px" fill="#c92a2a" text-anchor="middle" style="white-space: pre;" direction="ltr">Leave review</text></g><g transform="translate(2660.8835142293265 322.83389920471336) rotate(0 38.5 9.5)"><text x="38.5" y="15" font-family="Cascadia, Segoe UI Emoji" font-size="16px" fill="#c92a2a" text-anchor="middle" style="white-space: pre;" direction="ltr">Messages</text></g><g transform="translate(2349.7745901202607 500.42340663984214) rotate(0 43 9.5)"><text x="43" y="15" font-family="Cascadia, Segoe UI Emoji" font-size="16px" fill="#c92a2a" text-anchor="middle" style="white-space: pre;" direction="ltr">Completed</text></g><g transform="translate(2376.9174472631175 1236.137692354127) rotate(0 43 9.5)"><text x="43" y="15" font-family="Cascadia, Segoe UI Emoji" font-size="16px" fill="#2b8a3e" text-anchor="middle" style="white-space: pre;" direction="ltr">Completed</text></g><g transform="translate(2368.6174594701497 915.2614774638755) rotate(0 57.5 9.5)"><text x="57.5" y="15" font-family="Cascadia, Segoe UI Emoji" font-size="16px" fill="#2b8a3e" text-anchor="middle" style="white-space: pre;" direction="ltr">Edit profile</text></g><g transform="translate(1625.812673151324 592.8044658323183) rotate(0 57 28.5)"><text x="57" y="15" font-family="Cascadia, Segoe UI Emoji" font-size="16px" fill="#c92a2a" text-anchor="middle" style="white-space: pre;" direction="ltr">Home page s </text><text x="57" y="34" font-family="Cascadia, Segoe UI Emoji" font-size="16px" fill="#c92a2a" text-anchor="middle" style="white-space: pre;" direction="ltr">blokiranim </text><text x="57" y="53" font-family="Cascadia, Segoe UI Emoji" font-size="16px" fill="#c92a2a" text-anchor="middle" style="white-space: pre;" direction="ltr">stavkama</text></g><g transform="translate(1608.2031615488322 1461.69015570397) rotate(0 57 28.5)"><text x="57" y="15" font-family="Cascadia, Segoe UI Emoji" font-size="16px" fill="#2b8a3e" text-anchor="middle" style="white-space: pre;" direction="ltr">Home page s </text><text x="57" y="34" font-family="Cascadia, Segoe UI Emoji" font-size="16px" fill="#2b8a3e" text-anchor="middle" style="white-space: pre;" direction="ltr">blokiranim </text><text x="57" y="53" font-family="Cascadia, Segoe UI Emoji" font-size="16px" fill="#2b8a3e" text-anchor="middle" style="white-space: pre;" direction="ltr">stavkama</text></g><g transform="translate(2001.9983813335239 633.5758455756218) rotate(0 57.5 9.5)"><text x="57.5" y="15" font-family="Cascadia, Segoe UI Emoji" font-size="16px" fill="#c92a2a" text-anchor="middle" style="white-space: pre;" direction="ltr">Verifikacija</text></g><g transform="translate(1985.8174411596028 1571.0329640187024) rotate(0 57.5 9.5)"><text x="57.5" y="15" font-family="Cascadia, Segoe UI Emoji" font-size="16px" fill="#2b8a3e" text-anchor="middle" style="white-space: pre;" direction="ltr">Verifikacija</text></g><g transform="translate(924.6554814660567 746.2043529172793) rotate(0 38.5 9.5)"><text x="38.5" y="15" font-family="Cascadia, Segoe UI Emoji" font-size="16px" fill="#c92a2a" text-anchor="middle" style="white-space: pre;" direction="ltr">Register</text></g><g transform="translate(924.188827006421 1600.8043285032168) rotate(0 38.5 9.5)"><text x="38.5" y="15" font-family="Cascadia, Segoe UI Emoji" font-size="16px" fill="#2b8a3e" text-anchor="middle" style="white-space: pre;" direction="ltr">Register</text></g><g stroke-linecap="round"><g transform="translate(579.555444844963 618.1043010373965) rotate(0 156.26916648300858 66.4136656003725)"><path d="M1.07 -0.43 C52.98 21.99, 260.62 110.87, 312.36 133.47 M0.18 -1.69 C51.88 20.94, 259.88 112.03, 311.6 134.52" stroke="#c92a2a" stroke-width="2" fill="none"></path></g><g transform="translate(579.555444844963 618.1043010373965) rotate(0 156.26916648300858 66.4136656003725)"><path d="M280.95 133.24 C291.33 132.23, 305.45 133.52, 309.72 134.93 M282.5 133 C290.96 132.38, 302.02 134.5, 312.06 135.3" stroke="#c92a2a" stroke-width="2" fill="none"></path></g><g transform="translate(579.555444844963 618.1043010373965) rotate(0 156.26916648300858 66.4136656003725)"><path d="M289.16 114.43 C296.3 120.56, 307.34 128.91, 309.72 134.93 M290.72 114.19 C296.54 120.02, 304.79 128.56, 312.06 135.3" stroke="#c92a2a" stroke-width="2" fill="none"></path></g></g><g stroke-linecap="round"><g transform="translate(579.0887903853272 1472.704276623334) rotate(0 155.426601633043 67.72086856143073)"><path d="M0.3 0.9 C52.24 23.27, 259.81 112.82, 311.86 135.11 M-1.01 0.33 C50.74 22.28, 258.64 110.73, 310.84 133.36" stroke="#2b8a3e" stroke-width="2" fill="none"></path></g><g transform="translate(579.0887903853272 1472.704276623334) rotate(0 155.426601633043 67.72086856143073)"><path d="M282.39 131.45 C291.61 133.16, 300.38 132.58, 309.51 131.56 M281.85 132.03 C292.63 132.52, 303.54 133.8, 311.64 132.86" stroke="#2b8a3e" stroke-width="2" fill="none"></path></g><g transform="translate(579.0887903853272 1472.704276623334) rotate(0 155.426601633043 67.72086856143073)"><path d="M290.48 112.59 C297.27 120.32, 303.46 125.75, 309.51 131.56 M289.94 113.17 C297.72 120.87, 305.54 129.37, 311.64 132.86" stroke="#2b8a3e" stroke-width="2" fill="none"></path></g></g><g stroke-linecap="round"><g transform="translate(961.1554509484786 692.5042949338808) rotate(0 -1.315687523759152 -35.167845652997585)"><path d="M-0.57 0.39 C-1.2 -11.26, -3.38 -58.84, -3.96 -70.73 M1.33 -0.45 C1.1 -11.86, -1.15 -57.78, -1.65 -69.36" stroke="#c92a2a" stroke-width="2" fill="none"></path></g><g transform="translate(961.1554509484786 692.5042949338808) rotate(0 -1.315687523759152 -35.167845652997585)"><path d="M10.55 -42.94 C6.25 -51.07, 2.61 -56.21, -3.47 -69.8 M9.3 -42 C6.46 -47.82, 4.9 -56.19, -2.56 -69.14" stroke="#c92a2a" stroke-width="2" fill="none"></path></g><g transform="translate(961.1554509484786 692.5042949338808) rotate(0 -1.315687523759152 -35.167845652997585)"><path d="M-9.95 -42 C-8.41 -50.3, -6.23 -55.7, -3.47 -69.8 M-11.2 -41.06 C-8.73 -47.28, -4.99 -55.9, -2.56 -69.14" stroke="#c92a2a" stroke-width="2" fill="none"></path></g></g><g stroke-linecap="round"><g transform="translate(960.6887964888429 1547.1042705198183) rotate(0 -1.080846713012761 -35.86705799678805)"><path d="M0.9 -0.14 C0.34 -11.82, -1.85 -58.07, -2.49 -69.79 M-0.08 -1.26 C-0.82 -13.32, -2.48 -60.28, -3.06 -71.59" stroke="#2b8a3e" stroke-width="2" fill="none"></path></g><g transform="translate(960.6887964888429 1547.1042705198183) rotate(0 -1.080846713012761 -35.86705799678805)"><path d="M8.15 -42.68 C5.05 -53.73, -0.34 -65.85, -4.86 -69.95 M8.73 -43.58 C4.58 -53.7, 1.23 -62.32, -3.56 -71.86" stroke="#2b8a3e" stroke-width="2" fill="none"></path></g><g transform="translate(960.6887964888429 1547.1042705198183) rotate(0 -1.080846713012761 -35.86705799678805)"><path d="M-12.35 -41.81 C-7.79 -53.33, -5.51 -65.79, -4.86 -69.95 M-11.77 -42.71 C-8.76 -53.33, -4.95 -62.25, -3.56 -71.86" stroke="#2b8a3e" stroke-width="2" fill="none"></path></g></g><g stroke-linecap="round"><g transform="translate(1028.9554692590254 545.708204668555) rotate(0 90.46113904955018 0.10785010634936043)"><path d="M0.74 -0.39 C30.81 -0.33, 151.25 0.2, 181.25 0.51 M-0.32 -1.65 C29.58 -1.43, 150.68 1.69, 180.76 1.86" stroke="#c92a2a" stroke-width="2" fill="none"></path></g><g transform="translate(1028.9554692590254 545.708204668555) rotate(0 90.46113904955018 0.10785010634936043)"><path d="M151.74 13.1 C162.38 8.4, 174.52 5.59, 181.34 2.24 M153.22 11.43 C163.09 8.78, 173.26 5.08, 181.38 0.94" stroke="#c92a2a" stroke-width="2" fill="none"></path></g><g transform="translate(1028.9554692590254 545.708204668555) rotate(0 90.46113904955018 0.10785010634936043)"><path d="M152.09 -7.42 C162.62 -4.46, 174.63 0.38, 181.34 2.24 M153.57 -9.09 C163.37 -3.95, 173.42 0.13, 181.38 0.94" stroke="#c92a2a" stroke-width="2" fill="none"></path></g></g><g stroke-linecap="round"><g transform="translate(1028.4888147993897 1400.0518694417103) rotate(0 117.0725656512227 -0.4526965947092094)"><path d="M-0.14 0.71 C39.11 0.62, 196.6 0.61, 235.82 0.37 M-1.67 0.04 C37.45 -0.51, 195.85 -1.65, 235.19 -1.62" stroke="#2b8a3e" stroke-width="2" fill="none"></path></g><g transform="translate(1028.4888147993897 1400.0518694417103) rotate(0 117.0725656512227 -0.4526965947092094)"><path d="M208.22 9.77 C216.53 5.33, 223.91 0.25, 236.84 -0.63 M207.32 8.97 C215.32 6.34, 225.02 1.79, 234.93 -0.87" stroke="#2b8a3e" stroke-width="2" fill="none"></path></g><g transform="translate(1028.4888147993897 1400.0518694417103) rotate(0 117.0725656512227 -0.4526965947092094)"><path d="M208.14 -10.75 C216.63 -8.53, 224.04 -6.94, 236.84 -0.63 M207.24 -11.55 C215.46 -7.89, 225.19 -6.14, 234.93 -0.87" stroke="#2b8a3e" stroke-width="2" fill="none"></path></g></g><g stroke-linecap="round"><g transform="translate(1411.9538944454307 541.8180977362495) rotate(0 103.58450332526218 -29.554838329517906)"><path d="M-0.42 -0.3 C33.94 -9.92, 171.04 -49.09, 205.46 -58.81 M1.57 -1.5 C36.34 -10.81, 173.66 -47.97, 207.59 -57.24" stroke="#c92a2a" stroke-width="2" fill="none"></path></g><g transform="translate(1411.9538944454307 541.8180977362495) rotate(0 103.58450332526218 -29.554838329517906)"><path d="M182.58 -41.81 C189.26 -44.82, 195.53 -50.22, 209.36 -58.43 M182.7 -40.8 C191.06 -45.82, 199.68 -52.96, 207.13 -57.59" stroke="#c92a2a" stroke-width="2" fill="none"></path></g><g transform="translate(1411.9538944454307 541.8180977362495) rotate(0 103.58450332526218 -29.554838329517906)"><path d="M177.19 -61.61 C185 -59.81, 192.57 -60.41, 209.36 -58.43 M177.32 -60.6 C187.54 -58.77, 198.04 -59.02, 207.13 -57.59" stroke="#c92a2a" stroke-width="2" fill="none"></path></g></g><g stroke-linecap="round"><g transform="translate(1455.328007493281 1383.264373171121) rotate(0 80.35495193537417 -63.929206809846846)"><path d="M0.71 0.61 C27.41 -20.78, 134.53 -106.78, 161.09 -128.47 M-0.38 -0.12 C26.11 -21.29, 133.12 -105.52, 160.27 -126.96" stroke="#2b8a3e" stroke-width="2" fill="none"></path></g><g transform="translate(1455.328007493281 1383.264373171121) rotate(0 80.35495193537417 -63.929206809846846)"><path d="M145.5 -101.02 C150.35 -112.45, 154.56 -119.04, 161.26 -126.82 M144.7 -101.71 C151.52 -110.81, 156.42 -122, 161.01 -126.75" stroke="#2b8a3e" stroke-width="2" fill="none"></path></g><g transform="translate(1455.328007493281 1383.264373171121) rotate(0 80.35495193537417 -63.929206809846846)"><path d="M132.79 -117.14 C142.39 -122.59, 151.37 -123.14, 161.26 -126.82 M131.99 -117.82 C143.91 -120.57, 153.86 -125.36, 161.01 -126.75" stroke="#2b8a3e" stroke-width="2" fill="none"></path></g></g><g stroke-linecap="round"><g transform="translate(1408.2006120309188 544.5627580698524) rotate(0 102.18226838675946 44.9839954589163)"><path d="M0.8 -0.82 C34.99 13.88, 170.47 74.24, 204.61 89.27 M-0.25 1.36 C33.84 16.79, 169.39 75.9, 203.66 90.79" stroke="#c92a2a" stroke-width="2" fill="none"></path></g><g transform="translate(1408.2006120309188 544.5627580698524) rotate(0 102.18226838675946 44.9839954589163)"><path d="M172.35 88.93 C181.3 90.91, 189.04 91.05, 205.1 90.31 M174.11 88.73 C184.66 89.48, 195.92 91.08, 202.81 91.57" stroke="#c92a2a" stroke-width="2" fill="none"></path></g><g transform="translate(1408.2006120309188 544.5627580698524) rotate(0 102.18226838675946 44.9839954589163)"><path d="M180.55 70.12 C187.57 76.93, 193.23 81.85, 205.1 90.31 M182.31 69.92 C189.83 77.43, 198.12 85.86, 202.81 91.57" stroke="#c92a2a" stroke-width="2" fill="none"></path></g></g><g stroke-linecap="round"><g transform="translate(1450.3699331093067 1406.8355206238525) rotate(0 72.12349601728647 16.469639745877657)"><path d="M0.61 0.25 C24.76 5.55, 120.92 26.81, 144.78 32.48 M-0.53 -0.66 C23.47 4.71, 119.37 28.08, 143.8 33.6" stroke="#2b8a3e" stroke-width="2" fill="none"></path></g><g transform="translate(1450.3699331093067 1406.8355206238525) rotate(0 72.12349601728647 16.469639745877657)"><path d="M114.43 37.03 C121.24 34.15, 132.81 35.92, 143.94 35.53 M113.75 37.98 C124.78 35.38, 133.69 35.44, 144.01 33.57" stroke="#2b8a3e" stroke-width="2" fill="none"></path></g><g transform="translate(1450.3699331093067 1406.8355206238525) rotate(0 72.12349601728647 16.469639745877657)"><path d="M119.14 17.05 C124.71 19.96, 134.93 27.49, 143.94 35.53 M118.46 18 C127.97 22.1, 135.3 28.85, 144.01 33.57" stroke="#2b8a3e" stroke-width="2" fill="none"></path></g></g><g stroke-linecap="round"><g transform="translate(1758.8125815985904 631.6519775471243) rotate(0 111.86226527846702 7.381467153452149)"><path d="M1.04 -0.65 C37.77 1.93, 184.63 11.64, 221.51 14.44 M0.12 1.62 C37.11 4.4, 186.73 13.33, 223.6 15.42" stroke="#c92a2a" stroke-width="2" fill="none"></path></g><g transform="translate(1758.8125815985904 631.6519775471243) rotate(0 111.86226527846702 7.381467153452149)"><path d="M193.77 22.05 C204.44 19.74, 218.55 17.07, 223.65 14.49 M194.28 24.58 C205.51 21.18, 215.86 18.3, 223.02 15.45" stroke="#c92a2a" stroke-width="2" fill="none"></path></g><g transform="translate(1758.8125815985904 631.6519775471243) rotate(0 111.86226527846702 7.381467153452149)"><path d="M194.97 1.56 C204.99 7.31, 218.62 12.69, 223.65 14.49 M195.48 4.1 C206.14 7.93, 216.06 12.29, 223.02 15.45" stroke="#c92a2a" stroke-width="2" fill="none"></path></g></g><g stroke-linecap="round"><g transform="translate(1741.2030699960987 1515.2581253846552) rotate(0 112.26728268387433 27.822681525422126)"><path d="M0.25 -0.06 C37.35 9.14, 185.84 46.22, 223.31 55.8 M-1.07 -1.13 C36.35 8.13, 187.95 47.35, 225.61 56.78" stroke="#2b8a3e" stroke-width="2" fill="none"></path></g><g transform="translate(1741.2030699960987 1515.2581253846552) rotate(0 112.26728268387433 27.822681525422126)"><path d="M195.66 58.42 C204.66 60.27, 218.17 57.69, 227.54 57.47 M196.61 60.56 C205.05 58.59, 216.1 58.09, 225.57 56.73" stroke="#2b8a3e" stroke-width="2" fill="none"></path></g><g transform="translate(1741.2030699960987 1515.2581253846552) rotate(0 112.26728268387433 27.822681525422126)"><path d="M200.73 38.53 C208.01 47.54, 219.7 52.1, 227.54 57.47 M201.68 40.67 C208.5 45.22, 217.88 51.25, 225.57 56.73" stroke="#2b8a3e" stroke-width="2" fill="none"></path></g></g><g stroke-linecap="round"><g transform="translate(1742.8623382063824 392.73302200210037) rotate(0 122.60021636134752 -84.27011346631116)"><path d="M0.27 0.57 C41.37 -27.54, 205.15 -140.9, 246.24 -169.11 M-1.04 -0.18 C39.9 -28.07, 203.94 -139.88, 245.15 -167.73" stroke="#c92a2a" stroke-width="2" fill="none"></path></g><g transform="translate(1742.8623382063824 392.73302200210037) rotate(0 122.60021636134752 -84.27011346631116)"><path d="M228.54 -143.87 C231.99 -149.6, 237.54 -155.53, 243.95 -168.76 M226.8 -142.68 C232 -149.77, 237.25 -157.68, 245.13 -167.99" stroke="#c92a2a" stroke-width="2" fill="none"></path></g><g transform="translate(1742.8623382063824 392.73302200210037) rotate(0 122.60021636134752 -84.27011346631116)"><path d="M217.01 -160.85 C223.55 -161.96, 232.27 -163.23, 243.95 -168.76 M215.27 -159.66 C223.78 -161.8, 232.37 -164.78, 245.13 -167.99" stroke="#c92a2a" stroke-width="2" fill="none"></path></g></g><g stroke-linecap="round"><g transform="translate(1751.7744985675263 1150.9444356780277) rotate(0 112.2369458388016 -43.759992242524504)"><path d="M-0.8 -1.08 C36.7 -15.52, 187.75 -72.5, 225.27 -86.68 M0.98 0.97 C38.39 -13.82, 187.73 -73.69, 224.84 -88.49" stroke="#2b8a3e" stroke-width="2" fill="none"></path></g><g transform="translate(1751.7744985675263 1150.9444356780277) rotate(0 112.2369458388016 -43.759992242524504)"><path d="M200.68 -66.85 C210.66 -74.63, 218.79 -80.49, 225.41 -88.06 M201.98 -68.76 C209.18 -73.94, 214.54 -79.68, 225.54 -89.13" stroke="#2b8a3e" stroke-width="2" fill="none"></path></g><g transform="translate(1751.7744985675263 1150.9444356780277) rotate(0 112.2369458388016 -43.759992242524504)"><path d="M193.06 -85.9 C205.47 -87.51, 216.06 -87.25, 225.41 -88.06 M194.36 -87.81 C203.81 -87.83, 211.26 -88.35, 225.54 -89.13" stroke="#2b8a3e" stroke-width="2" fill="none"></path></g></g><g stroke-linecap="round"><g transform="translate(2131.783973548927 200.85450972202398) rotate(0 86.07149267755176 -6.190976820030301)"><path d="M0.03 0.18 C28.86 -1.93, 144.9 -10.62, 173.55 -12.56 M-1.41 -0.77 C27.25 -2.73, 143.58 -9.15, 172.86 -11.27" stroke="#c92a2a" stroke-width="2" fill="none"></path></g><g transform="translate(2131.783973548927 200.85450972202398) rotate(0 86.07149267755176 -6.190976820030301)"><path d="M145.67 1.53 C154.18 -5.33, 165.59 -5.86, 173.45 -12.25 M145.07 0.23 C155.42 -4.38, 164.34 -7.56, 173.33 -11.99" stroke="#c92a2a" stroke-width="2" fill="none"></path></g><g transform="translate(2131.783973548927 200.85450972202398) rotate(0 86.07149267755176 -6.190976820030301)"><path d="M144.38 -18.95 C153.37 -18.66, 165.23 -12.05, 173.45 -12.25 M143.78 -20.25 C154.71 -17.89, 164.07 -14.1, 173.33 -11.99" stroke="#c92a2a" stroke-width="2" fill="none"></path></g></g><g stroke-linecap="round"><g transform="translate(2132.4982592632114 437.75282216082223) rotate(0 91.49462773685218 -2.112722845698272)"><path d="M0.92 0.26 C31.61 -0.65, 152.89 -3.96, 183.05 -4.49 M-0.06 -0.65 C30.66 -1.51, 152.44 -2.69, 182.61 -3.39" stroke="#c92a2a" stroke-width="2" fill="none"></path></g><g transform="translate(2132.4982592632114 437.75282216082223) rotate(0 91.49462773685218 -2.112722845698272)"><path d="M155.02 8.94 C158.86 4.52, 167.24 2.76, 183.34 -3.35 M153.89 6.95 C161.58 3.95, 168.7 2.42, 183.01 -2.46" stroke="#c92a2a" stroke-width="2" fill="none"></path></g><g transform="translate(2132.4982592632114 437.75282216082223) rotate(0 91.49462773685218 -2.112722845698272)"><path d="M154.7 -11.58 C158.77 -11.78, 167.21 -9.31, 183.34 -3.35 M153.57 -13.57 C161.37 -11.69, 168.57 -8.32, 183.01 -2.46" stroke="#c92a2a" stroke-width="2" fill="none"></path></g></g><g stroke-linecap="round"><g transform="translate(2467.763604435807 432.0106733607172) rotate(0 53.148210434705106 1.2436247691748576)"><path d="M-1.11 0.9 C16.95 1.17, 89.32 0.86, 107.41 0.94 M0.5 0.33 C18.54 0.81, 88.97 1.78, 106.69 2.16" stroke="#c92a2a" stroke-width="2" fill="none"></path></g><g transform="translate(2467.763604435807 432.0106733607172) rotate(0 53.148210434705106 1.2436247691748576)"><path d="M79.83 12.67 C83.55 10.79, 90.44 9.46, 105.7 3.34 M77.96 12.19 C84.31 10.85, 90.46 8.59, 105.89 1.44" stroke="#c92a2a" stroke-width="2" fill="none"></path></g><g transform="translate(2467.763604435807 432.0106733607172) rotate(0 53.148210434705106 1.2436247691748576)"><path d="M80.18 -7.85 C83.72 -5.26, 90.53 -2.12, 105.7 3.34 M78.31 -8.33 C84.6 -5.06, 90.67 -2.72, 105.89 1.44" stroke="#c92a2a" stroke-width="2" fill="none"></path></g></g><g stroke-linecap="round"><g transform="translate(2118.460176232148 1021.495552480153) rotate(0 118.18401331028781 -48.81761971202582)"><path d="M-1.08 0.99 C38.5 -15.32, 197.6 -82.08, 237.45 -98.62 M0.55 0.46 C40.04 -15.56, 197.26 -80.23, 236.81 -97.04" stroke="#2b8a3e" stroke-width="2" fill="none"></path></g><g transform="translate(2118.460176232148 1021.495552480153) rotate(0 118.18401331028781 -48.81761971202582)"><path d="M216.39 -75.74 C221.53 -80.59, 228.61 -87.96, 237.24 -97.56 M214.48 -75.98 C223.31 -84.49, 231.57 -91.6, 236.17 -97.07" stroke="#2b8a3e" stroke-width="2" fill="none"></path></g><g transform="translate(2118.460176232148 1021.495552480153) rotate(0 118.18401331028781 -48.81761971202582)"><path d="M208.49 -94.68 C215.84 -93.86, 225.25 -95.64, 237.24 -97.56 M206.58 -94.92 C218.61 -96.08, 229.92 -95.88, 236.17 -97.07" stroke="#2b8a3e" stroke-width="2" fill="none"></path></g></g><g stroke-linecap="round"><g transform="translate(1758.9268917269383 436.0106662080789) rotate(0 110.50838591675301 -3.33631710680379)"><path d="M-0.41 -0.45 C36.24 -1.5, 182.52 -5.46, 219.08 -6.22 M1.58 -1.73 C38.69 -2.59, 184.8 -3.86, 221.43 -4.69" stroke="#c92a2a" stroke-width="2" fill="none"></path></g><g transform="translate(1758.9268917269383 436.0106662080789) rotate(0 110.50838591675301 -3.33631710680379)"><path d="M192.64 4.83 C199.86 2.17, 208.35 1.29, 222.34 -5.78 M193.58 5.27 C201.14 2.59, 208.3 0.14, 221.87 -5.47" stroke="#c92a2a" stroke-width="2" fill="none"></path></g><g transform="translate(1758.9268917269383 436.0106662080789) rotate(0 110.50838591675301 -3.33631710680379)"><path d="M192.33 -15.69 C199.64 -13.59, 208.2 -9.71, 222.34 -5.78 M193.27 -15.25 C201.01 -12.52, 208.25 -9.56, 221.87 -5.47" stroke="#c92a2a" stroke-width="2" fill="none"></path></g></g><g stroke-linecap="round"><g transform="translate(1754.1745229815897 1186.6939690534464) rotate(0 107.80773377586866 8.012400663502149)"><path d="M0.99 0.59 C37.05 3.47, 179.75 13.71, 215.57 16.17 M0.05 -0.14 C36.03 2.52, 178.78 12.44, 214.66 14.66" stroke="#2b8a3e" stroke-width="2" fill="none"></path></g><g transform="translate(1754.1745229815897 1186.6939690534464) rotate(0 107.80773377586866 8.012400663502149)"><path d="M186.84 23.17 C194.59 21.54, 199.94 19.31, 214.14 16.38 M186.6 23.24 C196.83 19.88, 208.52 16.09, 214.64 14.76" stroke="#2b8a3e" stroke-width="2" fill="none"></path></g><g transform="translate(1754.1745229815897 1186.6939690534464) rotate(0 107.80773377586866 8.012400663502149)"><path d="M188.2 2.69 C195.45 5.85, 200.48 8.4, 214.14 16.38 M187.96 2.77 C197.56 7.19, 208.74 11.2, 214.64 14.76" stroke="#2b8a3e" stroke-width="2" fill="none"></path></g></g><g stroke-linecap="round"><g transform="translate(1757.4357484301381 1221.220263889865) rotate(0 103.41772992365668 59.49448996887884)"><path d="M-0.22 0.08 C34.56 19.89, 174.06 98.49, 208.63 118.43 M-1.79 -0.92 C32.87 19.13, 172.66 100.09, 207.87 119.91" stroke="#2b8a3e" stroke-width="2" fill="none"></path></g><g transform="translate(1757.4357484301381 1221.220263889865) rotate(0 103.41772992365668 59.49448996887884)"><path d="M178.44 115.42 C186.82 114.55, 197.71 118.15, 207.3 118.01 M177.64 115.72 C186.61 116.96, 193.77 117.86, 207.79 120.26" stroke="#2b8a3e" stroke-width="2" fill="none"></path></g><g transform="translate(1757.4357484301381 1221.220263889865) rotate(0 103.41772992365668 59.49448996887884)"><path d="M188.63 97.61 C193.94 101.98, 201.82 110.83, 207.3 118.01 M187.83 97.9 C194.2 103.85, 198.67 109.43, 207.79 120.26" stroke="#2b8a3e" stroke-width="2" fill="none"></path></g></g><g stroke-linecap="round"><g transform="translate(2124.2669172613078 1405.0161221939236) rotate(0 115.29400519122919 14.796985806722773)"><path d="M-0.7 0.12 C37.79 4.86, 192.91 24.19, 231.28 29.13 M1.14 -0.86 C39.48 3.99, 192.19 25.11, 230.64 30.45" stroke="#2b8a3e" stroke-width="2" fill="none"></path></g><g transform="translate(2124.2669172613078 1405.0161221939236) rotate(0 115.29400519122919 14.796985806722773)"><path d="M201.51 37.72 C210.33 32.9, 221.12 32.72, 230.79 28.53 M201.6 36.52 C209.31 35.9, 217.06 33.63, 230.68 30.49" stroke="#2b8a3e" stroke-width="2" fill="none"></path></g><g transform="translate(2124.2669172613078 1405.0161221939236) rotate(0 115.29400519122919 14.796985806722773)"><path d="M204.33 17.4 C212.32 19.3, 222.18 25.86, 230.79 28.53 M204.42 16.19 C211.37 21.05, 218.37 24.25, 230.68 30.49" stroke="#2b8a3e" stroke-width="2" fill="none"></path></g></g><g stroke-linecap="round"><g transform="translate(2503.695494238531 1455.1015883912391) rotate(0 87.95958280219293 2.9548860496892075)"><path d="M0.13 0.49 C29.46 1.32, 147.73 4.15, 177.18 5.02 M-1.26 -0.3 C27.8 0.68, 146.65 4.99, 176.15 6.21" stroke="#2b8a3e" stroke-width="2" fill="none"></path></g><g transform="translate(2503.695494238531 1455.1015883912391) rotate(0 87.95958280219293 2.9548860496892075)"><path d="M148.4 15.14 C157.88 10.86, 170.43 7.09, 177.79 7.04 M147.64 14.43 C159.18 10.74, 169.98 7.45, 176.62 6.64" stroke="#2b8a3e" stroke-width="2" fill="none"></path></g><g transform="translate(2503.695494238531 1455.1015883912391) rotate(0 87.95958280219293 2.9548860496892075)"><path d="M149.19 -5.37 C158.36 -1.47, 170.6 2.93, 177.79 7.04 M148.43 -6.08 C159.81 -1.8, 170.31 2.88, 176.62 6.64" stroke="#2b8a3e" stroke-width="2" fill="none"></path></g></g><g stroke-linecap="round" transform="translate(2595.223371061844 258.6034377060091) rotate(0 261.27173690697646 245.83333333333326)"><path d="M0.78 0.44 C145.59 0.54, 291.14 0.16, 521.78 -0.38 M522.5 0.52 C522.95 118.34, 523.49 235.11, 521.95 491.71 M521.86 491.96 C373.78 492.97, 223.1 493.1, -0.53 490.9 M0.49 491.03 C1.2 379.95, 1.11 269.02, 0.08 0.34" stroke="#c92a2a" stroke-width="2.5" fill="none" stroke-dasharray="1.5 8"></path></g><g stroke-linecap="round" transform="translate(2166.080513918988 1442.6034377060087) rotate(0 67 30.5)"><path d="M0.99 1.19 C32.43 0.84, 70.32 0.08, 135.35 1.92 M134.4 0.22 C135.95 15.79, 134.96 32.35, 133.34 59.65 M135.1 59.89 C86.53 61.48, 37.54 62.26, -0.71 61.98 M1.35 62.35 C0.1 42.58, -0.3 21.37, 0.08 -1.49" stroke="#2b8a3e" stroke-width="2.5" fill="none" stroke-dasharray="1.5 8"></path></g><g stroke-linecap="round" transform="translate(2680.93765677613 1107.174866277438) rotate(0 76 42.5)"><path d="M-0.51 0.62 C52.86 -0.63, 107.44 0.29, 151.39 -1.32 M151.98 -1.95 C150.42 28.57, 152.04 55.43, 150.93 84.68 M150.47 86.69 C109.74 85.08, 72.28 86.86, 1.98 85.1 M-0.81 83.95 C-0.41 62.4, -1.25 41.35, -0.12 -1.93" stroke="#2b8a3e" stroke-width="2.5" fill="none" stroke-dasharray="1.5 8"></path></g><g transform="translate(2174.580513918988 1456.1034377060087) rotate(0 58.5 17)"><text x="58.5" y="27" font-family="Cascadia, Segoe UI Emoji" font-size="28px" fill="#2b8a3e" text-anchor="middle" style="white-space: pre;" direction="ltr">Search?</text></g><g transform="translate(2731.43765677613 1132.674866277438) rotate(0 25.5 17)"><text x="25.5" y="27" font-family="Cascadia, Segoe UI Emoji" font-size="28px" fill="#2b8a3e" text-anchor="middle" style="white-space: pre;" direction="ltr">...</text></g><g transform="translate(2361.89003772851 570.1034377060091) rotate(0 25.5 17)"><text x="0" y="27" font-family="Cascadia, Segoe UI Emoji" font-size="28px" fill="#c92a2a" text-anchor="start" style="white-space: pre;" direction="ltr">...</text></g><g transform="translate(2389.032894871367 1305.817723420294) rotate(0 25.5 17)"><text x="0" y="27" font-family="Cascadia, Segoe UI Emoji" font-size="28px" fill="#2b8a3e" text-anchor="start" style="white-space: pre;" direction="ltr">...</text></g><g transform="translate(2800.463062014952 703.4872322926285) rotate(0 25.5 17)"><text x="0" y="27" font-family="Cascadia, Segoe UI Emoji" font-size="28px" fill="#c92a2a" text-anchor="start" style="white-space: pre;" direction="ltr">...</text></g><g stroke-linecap="round"><g transform="translate(2066.623298237363 705.6588607943695) rotate(0 -453.3064889549223 -52.948253104608284)"><path d="M-1.64 -0.21 C1.51 16.79, 1.08 32.25, 2.5 45.42 M-0.08 0.1 C0.05 10.41, 0.71 22.36, 1.7 45.05 M1.84 44.08 C-199.74 48.77, -402.91 50.07, -909.4 50.33 M2.91 44.26 C-342.68 44.73, -689.08 47.47, -909.08 50.47 M-909.53 51.79 C-909.32 -16.89, -908.43 -82.06, -906.72 -156.61 M-909.02 50.84 C-907.77 -13.13, -906.73 -76.33, -907.24 -157.69" stroke="#c92a2a" stroke-width="2" fill="none"></path></g><g transform="translate(2066.623298237363 705.6588607943695) rotate(0 -453.3064889549223 -52.948253104608284)"><path d="M-898.59 -129.72 C-899.54 -138.57, -904.55 -148.99, -907.35 -156.92 M-897.03 -129.41 C-900.53 -137.48, -903.11 -143.82, -908.16 -157.29" stroke="#c92a2a" stroke-width="2" fill="none"></path></g><g transform="translate(2066.623298237363 705.6588607943695) rotate(0 -453.3064889549223 -52.948253104608284)"><path d="M-919.11 -129.69 C-912.78 -138.58, -910.49 -149.01, -907.35 -156.92 M-917.55 -129.38 C-915.9 -137.32, -913.33 -143.67, -908.16 -157.29" stroke="#c92a2a" stroke-width="2" fill="none"></path></g></g><g stroke-linecap="round"><g transform="translate(2046.3255164495886 1644.4919054233155) rotate(0 -452.4862495219131 -91.28794875073174)"><path d="M1.58 -0.54 C1.05 13.06, 0.9 27.61, 4.09 46.23 M-0.67 0.35 C0.41 18.47, 1.62 36.17, 2.11 46.36 M3.35 46.5 C-260.9 48.88, -523.55 52.4, -908.39 55.4 M2.86 46.89 C-317.54 52.69, -639.03 55.24, -909.02 54.94 M-908.83 53.67 C-907.68 -55.06, -905.24 -165.08, -907.61 -236.41 M-909.06 55.19 C-907.95 -39.7, -907.49 -136.09, -907.63 -237.98" stroke="#2b8a3e" stroke-width="2" fill="none"></path></g><g transform="translate(2046.3255164495886 1644.4919054233155) rotate(0 -452.4862495219131 -91.28794875073174)"><path d="M-895.8 -210.32 C-900.17 -218.4, -904.12 -225.53, -906.44 -238.46 M-898.05 -209.43 C-902.52 -220.64, -906.48 -232.38, -908.42 -238.33" stroke="#2b8a3e" stroke-width="2" fill="none"></path></g><g transform="translate(2046.3255164495886 1644.4919054233155) rotate(0 -452.4862495219131 -91.28794875073174)"><path d="M-916.32 -210.33 C-914.75 -218.4, -912.77 -225.52, -906.44 -238.46 M-918.57 -209.44 C-914.97 -220.84, -910.87 -232.58, -908.42 -238.33" stroke="#2b8a3e" stroke-width="2" fill="none"></path></g></g><g stroke-linecap="round"><g transform="translate(2125.9455932840665 1226.603437706009) rotate(0 100.29696819113587 -25.126490502322554)"><path d="M0.91 0.43 C44.1 -10.01, 89.47 -23.29, 199.35 -49.79 M0.77 0.56 C69.66 -15.53, 138.57 -33.47, 199.82 -50.81" stroke="#2b8a3e" stroke-width="2" fill="none"></path></g><g transform="translate(2125.9455932840665 1226.603437706009) rotate(0 100.29696819113587 -25.126490502322554)"><path d="M176.39 -32.94 C179.52 -36.06, 185.09 -42.18, 199.1 -50.58 M176.24 -32.8 C184.09 -39.05, 192.03 -45.74, 199.62 -51.72" stroke="#2b8a3e" stroke-width="2" fill="none"></path></g><g transform="translate(2125.9455932840665 1226.603437706009) rotate(0 100.29696819113587 -25.126490502322554)"><path d="M170.94 -52.73 C175.32 -51.35, 182.13 -52.99, 199.1 -50.58 M170.79 -52.59 C180.49 -51.92, 190.32 -51.75, 199.62 -51.72" stroke="#2b8a3e" stroke-width="2" fill="none"></path></g></g><g stroke-linecap="round"><g transform="translate(2516.7163739960415 1162.4142190919047) rotate(0 75.8192339576076 0.37270045140758157)"><path d="M-0.18 1.72 C47.99 0.69, 99.58 -0.67, 151.82 1.23 M0.12 -0.98 C40.01 1.42, 81.46 0.38, 151.21 0.93" stroke="#2b8a3e" stroke-width="2" fill="none"></path></g><g transform="translate(2516.7163739960415 1162.4142190919047) rotate(0 75.8192339576076 0.37270045140758157)"><path d="M122.8 12.82 C130.33 8.35, 141.39 3.39, 152.37 1.48 M123.1 10.11 C129.81 8.82, 138.05 4.84, 151.77 1.18" stroke="#2b8a3e" stroke-width="2" fill="none"></path></g><g transform="translate(2516.7163739960415 1162.4142190919047) rotate(0 75.8192339576076 0.37270045140758157)"><path d="M122.88 -7.7 C130.59 -5.38, 141.62 -3.54, 152.37 1.48 M123.18 -10.41 C129.81 -6.14, 138.03 -4.55, 151.77 1.18" stroke="#2b8a3e" stroke-width="2" fill="none"></path></g></g><g stroke-linecap="round" transform="translate(10 70.27576076293917) rotate(0 1585.5680347372704 855.4733622810588)"><path d="M0.77 -0.77 C1148.28 15.04, 2296.97 14.14, 3170.75 -0.55 M3170.13 -1.11 C3163.26 461.74, 3164.05 922.21, 3171.58 1712.17 M3171.65 1709.96 C2369.02 1689.04, 1566.3 1687.39, -0.88 1710.63 M-0.34 1709.67 C-1.2 1043.17, -3.72 376.49, -0.25 0.84" stroke="#000000" stroke-width="2.5" fill="none" stroke-dasharray="1.5 8"></path></g><g transform="translate(1349.7821494667814 10) rotate(0 96 21.5)"><text x="0" y="35" font-family="Cascadia, Segoe UI Emoji" font-size="36px" fill="#000000" text-anchor="start" style="white-space: pre;" direction="ltr">User flow</text></g><g transform="translate(119.70749804597108 252.0081996107706) rotate(0 106.5 21.5)"><text x="0" y="35" font-family="Cascadia, Segoe UI Emoji" font-size="36px" fill="#c92a2a" text-anchor="start" style="white-space: pre;" direction="ltr">Influencer</text></g><g transform="translate(119.70749804597108 1136.2939138964844) rotate(0 85.5 21.5)"><text x="0" y="35" font-family="Cascadia, Segoe UI Emoji" font-size="36px" fill="#2b8a3e" text-anchor="start" style="white-space: pre;" direction="ltr">Customer</text></g></svg>