<svg width="140" height="62" viewBox="0 0 140 62" fill="none" xmlns="http://www.w3.org/2000/svg">
<path d="M15 5H21M15 8H18M22 11.5C22 16.75 17.75 21 12.5 21C7.25 21 3 16.75 3 11.5C3 6.25 7.25 2 12.5 2M23 22L21 20" stroke="url(#paint0_linear_301_41)" stroke-width="1.5" stroke-linecap="round" stroke-linejoin="round"/>
<path d="M28 11.5C27.7239 11.5 27.5 11.7239 27.5 12C27.5 12.2761 27.7239 12.5 28 12.5V11.5ZM48.3536 12.3536C48.5488 12.1583 48.5488 11.8417 48.3536 11.6464L45.1716 8.46447C44.9763 8.2692 44.6597 8.2692 44.4645 8.46447C44.2692 8.65973 44.2692 8.97631 44.4645 9.17157L47.2929 12L44.4645 14.8284C44.2692 15.0237 44.2692 15.3403 44.4645 15.5355C44.6597 15.7308 44.9763 15.7308 45.1716 15.5355L48.3536 12.3536ZM28 12.5H48V11.5H28V12.5Z" fill="url(#paint1_linear_301_41)" fill-opacity="0.79"/>
<path d="M69.47 16.83L69.86 19.99C69.96 20.82 69.07 21.4 68.36 20.97L64.17 18.48C63.71 18.48 63.26 18.45 62.82 18.39C63.578 17.5113 63.9966 16.3904 64 15.23C64 12.39 61.54 10.09 58.5 10.09C57.34 10.09 56.27 10.42 55.38 11C55.35 10.75 55.34 10.5 55.34 10.24C55.34 5.69 59.29 2 64.17 2C69.05 2 73 5.69 73 10.24C73 12.94 71.61 15.33 69.47 16.83Z" stroke="url(#paint2_linear_301_41)" stroke-width="1.5" stroke-linecap="round" stroke-linejoin="round"/>
<path d="M64 15.23C64 16.42 63.56 17.52 62.82 18.39C61.83 19.59 60.26 20.36 58.5 20.36L55.89 21.91C55.45 22.18 54.89 21.81 54.95 21.3L55.2 19.33C53.86 18.4 53 16.91 53 15.23C53 13.47 53.94 11.92 55.38 11C56.27 10.42 57.34 10.09 58.5 10.09C61.54 10.09 64 12.39 64 15.23Z" stroke="url(#paint3_linear_301_41)" stroke-width="1.5" stroke-linecap="round" stroke-linejoin="round"/>
<path d="M78 11.5C77.7239 11.5 77.5 11.7239 77.5 12C77.5 12.2761 77.7239 12.5 78 12.5V11.5ZM98.3536 12.3536C98.5488 12.1583 98.5488 11.8417 98.3536 11.6464L95.1716 8.46447C94.9763 8.2692 94.6597 8.2692 94.4645 8.46447C94.2692 8.65973 94.2692 8.97631 94.4645 9.17157L97.2929 12L94.4645 14.8284C94.2692 15.0237 94.2692 15.3403 94.4645 15.5355C94.6597 15.7308 94.9763 15.7308 95.1716 15.5355L98.3536 12.3536ZM78 12.5H98V11.5H78V12.5Z" fill="url(#paint4_linear_301_41)" fill-opacity="0.79"/>
<path d="M112 22H117C120.5 22 122 20 122 17V7C122 4 120.5 2 117 2H109C105.5 2 104 4 104 7V14" stroke="url(#paint5_linear_301_41)" stroke-width="1.5" stroke-miterlimit="10" stroke-linecap="round" stroke-linejoin="round"/>
<path d="M115.5 4.5V6.5C115.5 7.6 116.4 8.5 117.5 8.5H119.5M105 17L103 19L105 21M108 17L110 19L108 21" stroke="url(#paint6_linear_301_41)" stroke-width="1.5" stroke-miterlimit="10" stroke-linecap="round" stroke-linejoin="round"/>
<path d="M124.156 11.525C123.894 11.4387 123.611 11.5814 123.525 11.8437C123.439 12.1061 123.581 12.3887 123.844 12.475L124.156 11.525ZM123.539 48.8069C123.432 49.0616 123.552 49.3546 123.807 49.4612L127.958 51.1991C128.213 51.3057 128.505 51.1857 128.612 50.9309C128.719 50.6762 128.599 50.3833 128.344 50.2766L124.654 48.7319L126.199 45.0422C126.306 44.7875 126.186 44.4945 125.931 44.3879C125.676 44.2813 125.383 44.4013 125.277 44.656L123.539 48.8069ZM123.844 12.475C133.518 15.6576 138.422 22.6615 138.499 29.8116C138.576 36.9656 133.82 44.4357 123.81 48.5373L124.19 49.4627C134.496 45.2393 139.581 37.4469 139.499 29.8009C139.417 22.151 134.164 14.8174 124.156 11.525L123.844 12.475Z" fill="url(#paint7_linear_301_41)" fill-opacity="0.79"/>
<path d="M8.672 50.33C8.672 51.62 9.662 52.66 10.892 52.66H13.402C14.472 52.66 15.342 51.75 15.342 50.63C15.342 49.41 14.812 48.98 14.022 48.7L9.992 47.3C9.202 47.02 8.672 46.59 8.672 45.37C8.672 44.25 9.542 43.34 10.612 43.34H13.122C14.352 43.34 15.342 44.38 15.342 45.67M12 42V54" stroke="url(#paint8_linear_301_41)" stroke-width="1.5" stroke-linecap="round" stroke-linejoin="round"/>
<path d="M12 58C17.523 58 22 53.523 22 48C22 42.477 17.523 38 12 38C6.477 38 2 42.477 2 48C2 53.523 6.477 58 12 58Z" stroke="url(#paint9_linear_301_41)" stroke-width="1.5" stroke-linecap="round" stroke-linejoin="round"/>
<path d="M26.4 37C26.4 36.7791 26.2209 36.6 26 36.6H22.4C22.1791 36.6 22 36.7791 22 37C22 37.2209 22.1791 37.4 22.4 37.4H25.6V40.6C25.6 40.8209 25.7791 41 26 41C26.2209 41 26.4 40.8209 26.4 40.6V37ZM22.2828 41.2828L26.2828 37.2828L25.7172 36.7172L21.7172 40.7172L22.2828 41.2828Z" fill="#00B707"/>
<path d="M21.4 33C21.4 32.7791 21.2209 32.6 21 32.6H17.4C17.1791 32.6 17 32.7791 17 33C17 33.2209 17.1791 33.4 17.4 33.4H20.6V36.6C20.6 36.8209 20.7791 37 21 37C21.2209 37 21.4 36.8209 21.4 36.6V33ZM17.2828 37.2828L21.2828 33.2828L20.7172 32.7172L16.7172 36.7172L17.2828 37.2828Z" fill="#00B707"/>
<path d="M106.672 52.33C106.672 53.62 107.662 54.66 108.892 54.66H111.402C112.472 54.66 113.342 53.75 113.342 52.63C113.342 51.41 112.812 50.98 112.022 50.7L107.992 49.3C107.202 49.02 106.672 48.59 106.672 47.37C106.672 46.25 107.542 45.34 108.612 45.34H111.122C112.352 45.34 113.342 46.38 113.342 47.67M110 44V56" stroke="url(#paint10_linear_301_41)" stroke-width="1.5" stroke-linecap="round" stroke-linejoin="round"/>
<path d="M110 60C115.523 60 120 55.523 120 50C120 44.477 115.523 40 110 40C104.477 40 100 44.477 100 50C100 55.523 104.477 60 110 60Z" stroke="url(#paint11_linear_301_41)" stroke-width="1.5" stroke-linecap="round" stroke-linejoin="round"/>
<path d="M119.6 43C119.6 43.2209 119.779 43.4 120 43.4H123.6C123.821 43.4 124 43.2209 124 43C124 42.7791 123.821 42.6 123.6 42.6H120.4V39.4C120.4 39.1791 120.221 39 120 39C119.779 39 119.6 39.1791 119.6 39.4V43ZM123.717 38.7172L119.717 42.7172L120.283 43.2828L124.283 39.2828L123.717 38.7172Z" fill="#00B707"/>
<path d="M114.6 39C114.6 39.2209 114.779 39.4 115 39.4H118.6C118.821 39.4 119 39.2209 119 39C119 38.7791 118.821 38.6 118.6 38.6H115.4V35.4C115.4 35.1791 115.221 35 115 35C114.779 35 114.6 35.1791 114.6 35.4V39ZM118.717 34.7172L114.717 38.7172L115.283 39.2828L119.283 35.2828L118.717 34.7172Z" fill="#00B707"/>
<path d="M48 49.5C48.2761 49.5 48.5 49.2761 48.5 49C48.5 48.7239 48.2761 48.5 48 48.5V49.5ZM27.6464 48.6464C27.4512 48.8417 27.4512 49.1583 27.6464 49.3536L30.8284 52.5355C31.0237 52.7308 31.3403 52.7308 31.5355 52.5355C31.7308 52.3403 31.7308 52.0237 31.5355 51.8284L28.7071 49L31.5355 46.1716C31.7308 45.9763 31.7308 45.6597 31.5355 45.4645C31.3403 45.2692 31.0237 45.2692 30.8284 45.4645L27.6464 48.6464ZM48 48.5H28V49.5H48V48.5Z" fill="url(#paint12_linear_301_41)" fill-opacity="0.79"/>
<path d="M59 59H65C70 59 72 57 72 52V46C72 41 70 39 65 39H59C54 39 52 41 52 46V52C52 57 54 59 59 59Z" stroke="url(#paint13_linear_301_41)" stroke-width="1.5" stroke-linecap="round" stroke-linejoin="round"/>
<path d="M62 52.5C62.4596 52.5 62.9148 52.4095 63.3394 52.2336C63.764 52.0577 64.1499 51.7999 64.4749 51.4749C64.7999 51.1499 65.0577 50.764 65.2336 50.3394C65.4095 49.9148 65.5 49.4596 65.5 49C65.5 48.5404 65.4095 48.0852 65.2336 47.6606C65.0577 47.236 64.7999 46.8501 64.4749 46.5251C64.1499 46.2001 63.764 45.9423 63.3394 45.7664C62.9148 45.5905 62.4596 45.5 62 45.5C61.0717 45.5 60.1815 45.8687 59.5251 46.5251C58.8687 47.1815 58.5 48.0717 58.5 49C58.5 49.9283 58.8687 50.8185 59.5251 51.4749C60.1815 52.1313 61.0717 52.5 62 52.5V52.5Z" stroke="url(#paint14_linear_301_41)" stroke-width="1.5" stroke-linecap="round" stroke-linejoin="round"/>
<path d="M67.636 44H67.648" stroke="url(#paint15_linear_301_41)" stroke-width="2" stroke-linecap="round" stroke-linejoin="round"/>
<path d="M96 49.5C96.2761 49.5 96.5 49.2761 96.5 49C96.5 48.7239 96.2761 48.5 96 48.5V49.5ZM75.6464 48.6464C75.4512 48.8417 75.4512 49.1583 75.6464 49.3536L78.8284 52.5355C79.0237 52.7308 79.3403 52.7308 79.5355 52.5355C79.7308 52.3403 79.7308 52.0237 79.5355 51.8284L76.7071 49L79.5355 46.1716C79.7308 45.9763 79.7308 45.6597 79.5355 45.4645C79.3403 45.2692 79.0237 45.2692 78.8284 45.4645L75.6464 48.6464ZM96 48.5H76V49.5H96V48.5Z" fill="url(#paint16_linear_301_41)" fill-opacity="0.79"/>
<defs>
<linearGradient id="paint0_linear_301_41" x1="13" y1="23.4286" x2="13" y2="0.571428" gradientUnits="userSpaceOnUse">
<stop stop-color="#00B707" stop-opacity="0"/>
<stop offset="0.119792" stop-color="#00B707"/>
</linearGradient>
<linearGradient id="paint1_linear_301_41" x1="42.5" y1="12" x2="28.5" y2="12" gradientUnits="userSpaceOnUse">
<stop stop-color="#555555"/>
<stop offset="0.71875" stop-color="#999999" stop-opacity="0.911458"/>
<stop offset="1" stop-color="#7F817B" stop-opacity="0"/>
</linearGradient>
<linearGradient id="paint2_linear_301_41" x1="64.17" y1="22.4811" x2="64.17" y2="0.634593" gradientUnits="userSpaceOnUse">
<stop stop-color="#00B707" stop-opacity="0"/>
<stop offset="0.119792" stop-color="#00B707"/>
</linearGradient>
<linearGradient id="paint3_linear_301_41" x1="58.5" y1="22.8516" x2="58.5" y2="9.23922" gradientUnits="userSpaceOnUse">
<stop stop-color="#00B707" stop-opacity="0"/>
<stop offset="0.119792" stop-color="#00B707"/>
</linearGradient>
<linearGradient id="paint4_linear_301_41" x1="92.5" y1="12" x2="78.5" y2="12" gradientUnits="userSpaceOnUse">
<stop stop-color="#555555"/>
<stop offset="0.71875" stop-color="#999999" stop-opacity="0.911458"/>
<stop offset="1" stop-color="#7F817B" stop-opacity="0"/>
</linearGradient>
<linearGradient id="paint5_linear_301_41" x1="113" y1="23.4286" x2="113" y2="0.571428" gradientUnits="userSpaceOnUse">
<stop stop-color="#00B707" stop-opacity="0"/>
<stop offset="0.119792" stop-color="#00B707"/>
</linearGradient>
<linearGradient id="paint6_linear_301_41" x1="111.25" y1="22.1786" x2="111.25" y2="3.32143" gradientUnits="userSpaceOnUse">
<stop stop-color="#00B707" stop-opacity="0"/>
<stop offset="0.119792" stop-color="#00B707"/>
</linearGradient>
<linearGradient id="paint7_linear_301_41" x1="139" y1="38.825" x2="139" y2="12.925" gradientUnits="userSpaceOnUse">
<stop stop-color="#555555"/>
<stop offset="0.869792" stop-color="#999999" stop-opacity="0.911458"/>
<stop offset="1" stop-color="#7F817B" stop-opacity="0"/>
</linearGradient>
<linearGradient id="paint8_linear_301_41" x1="12.007" y1="54.8571" x2="12.007" y2="41.1429" gradientUnits="userSpaceOnUse">
<stop stop-color="#00B707" stop-opacity="0"/>
<stop offset="0.119792" stop-color="#00B707"/>
</linearGradient>
<linearGradient id="paint9_linear_301_41" x1="12" y1="59.4286" x2="12" y2="36.5714" gradientUnits="userSpaceOnUse">
<stop stop-color="#00B707" stop-opacity="0"/>
<stop offset="0.119792" stop-color="#00B707"/>
</linearGradient>
<linearGradient id="paint10_linear_301_41" x1="110.007" y1="56.8571" x2="110.007" y2="43.1429" gradientUnits="userSpaceOnUse">
<stop stop-color="#00B707" stop-opacity="0"/>
<stop offset="0.119792" stop-color="#00B707"/>
</linearGradient>
<linearGradient id="paint11_linear_301_41" x1="110" y1="61.4286" x2="110" y2="38.5714" gradientUnits="userSpaceOnUse">
<stop stop-color="#00B707" stop-opacity="0"/>
<stop offset="0.119792" stop-color="#00B707"/>
</linearGradient>
<linearGradient id="paint12_linear_301_41" x1="33.5" y1="49" x2="47.5" y2="49" gradientUnits="userSpaceOnUse">
<stop stop-color="#555555"/>
<stop offset="0.71875" stop-color="#999999" stop-opacity="0.911458"/>
<stop offset="1" stop-color="#7F817B" stop-opacity="0"/>
</linearGradient>
<linearGradient id="paint13_linear_301_41" x1="62" y1="60.4286" x2="62" y2="37.5714" gradientUnits="userSpaceOnUse">
<stop stop-color="#00B707" stop-opacity="0"/>
<stop offset="0.119792" stop-color="#00B707"/>
</linearGradient>
<linearGradient id="paint14_linear_301_41" x1="62" y1="53" x2="62" y2="45" gradientUnits="userSpaceOnUse">
<stop stop-color="#00B707" stop-opacity="0"/>
<stop offset="0.119792" stop-color="#00B707"/>
</linearGradient>
<linearGradient id="paint15_linear_301_41" x1="67.642" y1="45.0714" x2="67.642" y2="43.9286" gradientUnits="userSpaceOnUse">
<stop stop-color="#00B707" stop-opacity="0"/>
<stop offset="0.119792" stop-color="#00B707"/>
</linearGradient>
<linearGradient id="paint16_linear_301_41" x1="81.5" y1="49" x2="95.5" y2="49" gradientUnits="userSpaceOnUse">
<stop stop-color="#555555"/>
<stop offset="0.71875" stop-color="#999999" stop-opacity="0.911458"/>
<stop offset="1" stop-color="#7F817B" stop-opacity="0"/>
</linearGradient>
</defs>
</svg>
