<svg version="1.1" xmlns="http://www.w3.org/2000/svg" viewBox="0 0 758.2883534985592 479.7297411013018" width="758.2883534985592" height="479.7297411013018">
  <!-- svg-source:excalidraw -->
  
  <defs>
    <style>
      @font-face {
        font-family: "Virgil";
        src: url("https://unpkg.com/@excalidraw/excalidraw@0.13.0-4d26993/dist/excalidraw-assets/Virgil.woff2");
      }
      @font-face {
        font-family: "Cascadia";
        src: url("https://unpkg.com/@excalidraw/excalidraw@0.13.0-4d26993/dist/excalidraw-assets/Cascadia.woff2");
      }
    </style>
  </defs>
  <rect x="0" y="0" width="758.2883534985592" height="479.7297411013018" fill="#ffffff"></rect><g stroke-linecap="round" transform="translate(403.1366300593197 64.76699947476311) rotate(0 121.17839995443478 182.53535845051698)"><path d="M0 0 L242.36 0 L242.36 365.07 L0 365.07" stroke="none" stroke-width="0" fill="white"></path><path d="M0 0 C50.6 0, 101.21 0, 242.36 0 M0 0 C96.41 0, 192.81 0, 242.36 0 M242.36 0 C242.36 143, 242.36 286, 242.36 365.07 M242.36 0 C242.36 112.22, 242.36 224.44, 242.36 365.07 M242.36 365.07 C153.54 365.07, 64.73 365.07, 0 365.07 M242.36 365.07 C170.6 365.07, 98.84 365.07, 0 365.07 M0 365.07 C0 272.69, 0 180.31, 0 0 M0 365.07 C0 225.52, 0 85.97, 0 0" stroke="#000000" stroke-width="1" fill="none"></path></g><g stroke-linecap="round" transform="translate(403.28463878692605 64.74686191511648) rotate(0 121.07395448449802 65.19366779934501)"><path d="M0 0 L242.15 0 L242.15 130.39 L0 130.39" stroke="none" stroke-width="0" fill="white"></path><path d="M0 0 C79.36 0, 158.71 0, 242.15 0 M0 0 C67.86 0, 135.73 0, 242.15 0 M242.15 0 C242.15 37.45, 242.15 74.89, 242.15 130.39 M242.15 0 C242.15 38.16, 242.15 76.31, 242.15 130.39 M242.15 130.39 C190.76 130.39, 139.37 130.39, 0 130.39 M242.15 130.39 C149.67 130.39, 57.2 130.39, 0 130.39 M0 130.39 C0 97.68, 0 64.97, 0 0 M0 130.39 C0 103.17, 0 75.96, 0 0" stroke="#000000" stroke-width="1" fill="none"></path></g><g stroke-linecap="round"><g transform="translate(402.98525857704885 390.99020785765197) rotate(0 121.3937300410505 0.2986315622165989)"><path d="M0 0 C69.75 0.17, 139.5 0.34, 242.79 0.6 M0 0 C81.3 0.2, 162.6 0.4, 242.79 0.6" stroke="#000000" stroke-width="1" fill="none"></path></g></g><g transform="translate(597.5861923043205 396.9943801262664) rotate(0 23.5 5)"><text x="0" y="7" font-family="Virgil, Segoe UI Emoji" font-size="7.7653935184527265px" fill="#000000" text-anchor="start" style="white-space: pre;" direction="ltr">Starting at</text></g><g transform="translate(562.3476679627599 408.1410110527138) rotate(0 41 11)"><text x="0" y="15" font-family="Virgil, Segoe UI Emoji" font-size="17.462685202693713px" fill="#000000" text-anchor="start" style="white-space: pre;" direction="ltr">$ 100,00</text></g><g stroke-linecap="round" transform="translate(423.7707479822518 353.75553976831293) rotate(0 5.090935062709207 10.309676026574294)"><path d="M6 0 L10.18 11 L6 20.62 L0 11" stroke="none" stroke-width="0" fill="#868e96" fill-rule="evenodd"></path><path d="M6 0 C7.31 3.44, 8.62 6.89, 10.18 11 M6 0 C7.4 3.67, 8.79 7.34, 10.18 11 M10.18 11 C8.87 14.02, 7.55 17.04, 6 20.62 M10.18 11 C8.79 14.21, 7.39 17.41, 6 20.62 M6 20.62 C4.59 18.36, 3.18 16.09, 0 11 M6 20.62 C3.9 17.24, 1.79 13.87, 0 11 M0 11 C2.21 6.95, 4.42 2.9, 6 0 M0 11 C1.71 7.87, 3.42 4.74, 6 0" stroke="#868e96" stroke-width="4" fill="none"></path></g><g stroke-linecap="round" transform="translate(416.6806772570865 357.5117705467014) rotate(307.9558463880039 5.090935062709207 10.309676026574294)"><path d="M6 0 L10.18 11 L6 20.62 L0 11" stroke="none" stroke-width="0" fill="#868e96" fill-rule="evenodd"></path><path d="M6 0 C7.24 3.27, 8.48 6.53, 10.18 11 M6 0 C6.89 2.34, 7.78 4.67, 10.18 11 M10.18 11 C8.55 14.75, 6.92 18.49, 6 20.62 M10.18 11 C8.74 14.32, 7.3 17.63, 6 20.62 M6 20.62 C4.18 17.71, 2.37 14.8, 0 11 M6 20.62 C4.07 17.53, 2.15 14.45, 0 11 M0 11 C1.63 8.02, 3.25 5.03, 6 0 M0 11 C1.9 7.52, 3.79 4.05, 6 0" stroke="#868e96" stroke-width="4" fill="none"></path></g><g stroke-linecap="round" transform="translate(418.3457828110211 367.2785075183243) rotate(225.81457704975955 5.090935062709207 10.309676026574294)"><path d="M6 0 L10.18 11 L6 20.62 L0 11" stroke="none" stroke-width="0" fill="#868e96" fill-rule="evenodd"></path><path d="M6 0 C6.86 2.27, 7.73 4.54, 10.18 11 M6 0 C7.02 2.69, 8.04 5.37, 10.18 11 M10.18 11 C9.26 13.12, 8.34 15.24, 6 20.62 M10.18 11 C8.81 14.15, 7.45 17.29, 6 20.62 M6 20.62 C3.91 17.27, 1.82 13.92, 0 11 M6 20.62 C3.92 17.28, 1.84 13.94, 0 11 M0 11 C2.23 6.9, 4.47 2.81, 6 0 M0 11 C1.82 7.67, 3.63 4.34, 6 0" stroke="#868e96" stroke-width="4" fill="none"></path></g><g stroke-linecap="round" transform="translate(429.0107899296429 367.23590555127237) rotate(134.18542295024045 5.090935062709207 10.309676026574294)"><path d="M6 0 L10.18 11 L6 20.62 L0 11" stroke="none" stroke-width="0" fill="#868e96" fill-rule="evenodd"></path><path d="M6 0 C7.11 2.93, 8.23 5.86, 10.18 11 M6 0 C7.48 3.88, 8.95 7.77, 10.18 11 M10.18 11 C8.93 13.87, 7.68 16.75, 6 20.62 M10.18 11 C8.85 14.07, 7.51 17.14, 6 20.62 M6 20.62 C3.95 17.33, 1.89 14.04, 0 11 M6 20.62 C4.66 18.47, 3.32 16.32, 0 11 M0 11 C1.37 8.49, 2.74 5.98, 6 0 M0 11 C2.01 7.31, 4.02 3.62, 6 0" stroke="#868e96" stroke-width="4" fill="none"></path></g><g stroke-linecap="round" transform="translate(430.2924777801097 357.1709548102857) rotate(52.04415361199611 5.090935062709207 10.309676026574294)"><path d="M6 0 L10.18 11 L6 20.62 L0 11" stroke="none" stroke-width="0" fill="#868e96" fill-rule="evenodd"></path><path d="M6 0 C7.53 4.04, 9.07 8.07, 10.18 11 M6 0 C7.44 3.79, 8.88 7.59, 10.18 11 M10.18 11 C9.3 13.04, 8.41 15.07, 6 20.62 M10.18 11 C8.66 14.5, 7.14 17.99, 6 20.62 M6 20.62 C4.34 17.96, 2.68 15.3, 0 11 M6 20.62 C3.78 17.06, 1.55 13.49, 0 11 M0 11 C1.48 8.3, 2.95 5.59, 6 0 M0 11 C1.52 8.22, 3.03 5.44, 6 0" stroke="#868e96" stroke-width="4" fill="none"></path></g><g transform="translate(459.6289105692133 364.1521848189167) rotate(0 13.5 10)"><text x="0" y="14" font-family="Virgil, Segoe UI Emoji" font-size="16px" fill="#000000" text-anchor="start" style="white-space: pre;" direction="ltr">3.5</text></g><g transform="translate(502.9504861955659 364.1521848189167) rotate(0 14 10)"><text x="0" y="14" font-family="Virgil, Segoe UI Emoji" font-size="16px" fill="#000000" text-anchor="start" style="white-space: pre;" direction="ltr">(15)</text></g><g stroke-linecap="round" transform="translate(409.2512764888595 198.07679080520415) rotate(0 19.475291493582745 17.515513733222235)"><path d="M38.95 17.52 C38.95 18.53, 38.85 19.56, 38.65 20.56 C38.46 21.56, 38.16 22.55, 37.78 23.51 C37.39 24.46, 36.91 25.4, 36.34 26.27 C35.78 27.15, 35.12 28, 34.39 28.77 C33.67 29.55, 32.86 30.28, 31.99 30.93 C31.13 31.58, 30.19 32.18, 29.21 32.68 C28.24 33.19, 27.2 33.63, 26.14 33.97 C25.08 34.32, 23.97 34.59, 22.86 34.76 C21.75 34.94, 20.6 35.03, 19.48 35.03 C18.35 35.03, 17.2 34.94, 16.09 34.76 C14.98 34.59, 13.87 34.32, 12.81 33.97 C11.76 33.63, 10.71 33.19, 9.74 32.68 C8.76 32.18, 7.82 31.58, 6.96 30.93 C6.09 30.28, 5.28 29.55, 4.56 28.77 C3.83 28, 3.17 27.15, 2.61 26.27 C2.05 25.4, 1.56 24.46, 1.17 23.51 C0.79 22.55, 0.49 21.56, 0.3 20.56 C0.1 19.56, 0 18.53, 0 17.52 C0 16.5, 0.1 15.47, 0.3 14.47 C0.49 13.48, 0.79 12.48, 1.17 11.52 C1.56 10.57, 2.05 9.64, 2.61 8.76 C3.17 7.88, 3.83 7.03, 4.56 6.26 C5.28 5.48, 6.09 4.75, 6.96 4.1 C7.82 3.45, 8.76 2.85, 9.74 2.35 C10.71 1.84, 11.76 1.4, 12.81 1.06 C13.87 0.71, 14.98 0.44, 16.09 0.27 C17.2 0.09, 18.35 0, 19.48 0 C20.6 0, 21.75 0.09, 22.86 0.27 C23.97 0.44, 25.08 0.71, 26.14 1.06 C27.2 1.4, 28.24 1.84, 29.21 2.35 C30.19 2.85, 31.13 3.45, 31.99 4.1 C32.86 4.75, 33.67 5.48, 34.39 6.26 C35.12 7.03, 35.78 7.88, 36.34 8.76 C36.91 9.64, 37.39 10.57, 37.78 11.52 C38.16 12.48, 38.46 13.48, 38.65 14.47 C38.85 15.47, 38.9 17.01, 38.95 17.52 C39 18.02, 39 17.01, 38.95 17.52" stroke="none" stroke-width="0" fill="#868e96"></path><path d="M38.95 17.52 C38.95 18.53, 38.85 19.56, 38.65 20.56 C38.46 21.56, 38.16 22.55, 37.78 23.51 C37.39 24.46, 36.91 25.4, 36.34 26.27 C35.78 27.15, 35.12 28, 34.39 28.77 C33.67 29.55, 32.86 30.28, 31.99 30.93 C31.13 31.58, 30.19 32.18, 29.21 32.68 C28.24 33.19, 27.2 33.63, 26.14 33.97 C25.08 34.32, 23.97 34.59, 22.86 34.76 C21.75 34.94, 20.6 35.03, 19.48 35.03 C18.35 35.03, 17.2 34.94, 16.09 34.76 C14.98 34.59, 13.87 34.32, 12.81 33.97 C11.76 33.63, 10.71 33.19, 9.74 32.68 C8.76 32.18, 7.82 31.58, 6.96 30.93 C6.09 30.28, 5.28 29.55, 4.56 28.77 C3.83 28, 3.17 27.15, 2.61 26.27 C2.05 25.4, 1.56 24.46, 1.17 23.51 C0.79 22.55, 0.49 21.56, 0.3 20.56 C0.1 19.56, 0 18.53, 0 17.52 C0 16.5, 0.1 15.47, 0.3 14.47 C0.49 13.48, 0.79 12.48, 1.17 11.52 C1.56 10.57, 2.05 9.64, 2.61 8.76 C3.17 7.88, 3.83 7.03, 4.56 6.26 C5.28 5.48, 6.09 4.75, 6.96 4.1 C7.82 3.45, 8.76 2.85, 9.74 2.35 C10.71 1.84, 11.76 1.4, 12.81 1.06 C13.87 0.71, 14.98 0.44, 16.09 0.27 C17.2 0.09, 18.35 0, 19.48 0 C20.6 0, 21.75 0.09, 22.86 0.27 C23.97 0.44, 25.08 0.71, 26.14 1.06 C27.2 1.4, 28.24 1.84, 29.21 2.35 C30.19 2.85, 31.13 3.45, 31.99 4.1 C32.86 4.75, 33.67 5.48, 34.39 6.26 C35.12 7.03, 35.78 7.88, 36.34 8.76 C36.91 9.64, 37.39 10.57, 37.78 11.52 C38.16 12.48, 38.46 13.48, 38.65 14.47 C38.85 15.47, 38.9 17.01, 38.95 17.52 C39 18.02, 39 17.01, 38.95 17.52" stroke="#000000" stroke-width="1" fill="none"></path></g><g transform="translate(461.18538713841303 204.55026290768296) rotate(0 36 10)"><text x="0" y="14" font-family="Virgil, Segoe UI Emoji" font-size="16px" fill="#000000" text-anchor="start" style="white-space: pre;" direction="ltr">username</text></g><g transform="translate(415.53576188125066 253.166968241042) rotate(0 57 20)"><text x="0" y="14" font-family="Virgil, Segoe UI Emoji" font-size="16px" fill="#000000" text-anchor="start" style="white-space: pre;" direction="ltr">10k followers</text><text x="0" y="34" font-family="Virgil, Segoe UI Emoji" font-size="16px" fill="#000000" text-anchor="start" style="white-space: pre;" direction="ltr">4% engagment</text></g><g stroke-linecap="round" transform="translate(627.2998591687558 205.37299503397162) rotate(0 6.2267902717125025 5.856147993634664)"><path d="M0.18 2.23 C3.69 -2.02, 5.79 -0.07, 14.82 -2.2 M0.83 0.56 C2.55 0.25, 8.15 0.15, 11.99 0.79 M12.36 0.06 C14.54 3.64, 13.71 6.02, 11 11.16 M11.9 0.24 C11.76 2.93, 13.14 3.85, 13.35 12.54 M14.5 10.99 C6.78 13.69, 4.68 10.1, 1.82 10.36 M11.85 11.91 C8.28 11.71, 5.72 12.11, 0.79 11.12 M0.65 12.11 C2.16 7.46, 2.05 4.46, -0.56 2.21 M0.24 11.03 C-0.89 9.18, -1 6.67, 0.95 0.94" stroke="#000000" stroke-width="1" fill="none"></path></g><g stroke-linecap="round"><g transform="translate(627.2412814927209 216.8578171733759) rotate(0 8.112431003045458 -6.419851033514618)"><path d="M2.51 -0.21 C4.21 -2.35, 8.9 -11.37, 10.61 -12.63 M0.42 -2.79 C2.96 -4.66, 14.04 -8.69, 15.8 -10.2" stroke="#000000" stroke-width="1" fill="none"></path></g></g><g stroke-linecap="round" transform="translate(628.2960221842902 231.32744039368959) rotate(0 6.2267902717125025 5.856147993634664)"><path d="M-1.96 -0.03 C7.22 -2, 9.51 -1.67, 13.28 1.66 M0.87 0.24 C3.83 0.72, 7.53 0.84, 11.65 -0.05 M13.54 0.99 C11.19 2.99, 10.37 5.92, 13.64 10.61 M13.26 -0.9 C13.24 4.58, 12.02 6.35, 13.25 12.68 M11.47 9.93 C10.9 10.54, 5.72 11.06, -0.38 10.51 M13.22 12.15 C9.31 11.13, 5.26 11.8, -0.55 12.06 M2.06 12.75 C-0.78 10.21, -1.12 2.87, -1.05 0.49 M-1.14 12.79 C1.15 9.81, -0.7 5.35, -0.33 0.1" stroke="#000000" stroke-width="1" fill="none"></path></g><g stroke-linecap="round"><g transform="translate(628.2374445082553 242.81226253309364) rotate(0 5.967409573983559 -3.9889080451189187)"><path d="M-0.04 2.66 C2.06 1.26, 8.58 -8.61, 10.38 -10.64 M-3.5 1.64 C-0.35 0.89, 12.11 -4.43, 15.44 -7.12" stroke="#000000" stroke-width="1" fill="none"></path></g></g><g stroke-linecap="round" transform="translate(628.6499831282447 252.14541627066797) rotate(0 6.2267902717125025 5.856147993634664)"><path d="M-0.19 -1.87 C4.55 1.87, 8.55 -1.97, 13.13 1.74 M-1.06 0.91 C3.17 -0.21, 7.98 0.86, 13.05 0.58 M10.18 -1.17 C13.5 2.91, 12.8 6.86, 13.55 13.33 M12.13 -1.17 C13.43 3.58, 12.3 4.16, 13.3 11.25 M12.48 10.88 C9.23 10.37, 7.16 10.72, 0.07 13.24 M13.13 11.79 C7.73 11.94, 4.31 12.75, -0.06 12.81 M-0.91 10.29 C-0.99 8.17, -1.3 1.59, 1.06 -2.29 M-0.9 11.02 C-0.52 7.22, 0.11 2.34, 0.22 -0.01" stroke="#000000" stroke-width="1" fill="none"></path></g><g stroke-linecap="round"><g transform="translate(628.5914054522098 263.63023841007214) rotate(0 6.302155990120184 -6.284707648320364)"><path d="M-2.1 0.93 C0.76 -0.56, 12.63 -7.41, 14.71 -9.17 M1.95 -1.03 C4.83 -3.35, 11.16 -12.65, 13.48 -13.5" stroke="#000000" stroke-width="1" fill="none"></path></g></g><g transform="translate(411.6147644157834 305.38577473270584) rotate(0 92.5 20)"><text x="0" y="14" font-family="Virgil, Segoe UI Emoji" font-size="16px" fill="#000000" text-anchor="start" style="white-space: pre;" direction="ltr">#family #baby #mother</text><text x="0" y="34" font-family="Virgil, Segoe UI Emoji" font-size="16px" fill="#000000" text-anchor="start" style="white-space: pre;" direction="ltr">#traveling #cosmetics</text></g><g transform="translate(430.0312711791587 405.72475230989426) rotate(0 0.8887317305825491 5.90371792458464)" stroke="none"><path d="M0 0 L0 -0.08 L-0.08 -0.38 L-0.08 -0.47 L-0.08 -0.55 L-0.17 -0.76 L-0.3 -0.85 L-0.38 -1.02 L-0.55 -1.23 L-0.55 -1.4 L-0.68 -1.52 L-0.76 -1.69 L-0.85 -1.78 L-0.93 -1.9 L-1.23 -2.16 L-1.31 -2.29 L-1.44 -2.37 L-1.52 -2.54 L-1.61 -2.75 L-1.69 -2.92 L-1.9 -3.05 L-1.99 -3.22 L-2.07 -3.3 L-2.2 -3.51 L-2.37 -3.81 L-2.67 -4.19 L-2.75 -4.36 L-2.96 -4.57 L-3.05 -4.66 L-3.13 -4.74 L-3.34 -5.04 L-3.72 -5.42 L-3.89 -5.59 L-3.98 -5.71 L-4.11 -5.88 L-4.57 -6.35 L-4.87 -6.64 L-5.04 -6.86 L-5.25 -7.03 L-5.42 -7.24 L-5.5 -7.32 L-5.63 -7.41 L-5.88 -7.62 L-6.39 -7.87 L-6.56 -8.08 L-6.77 -8.17 L-7.03 -8.25 L-7.15 -8.38 L-7.24 -8.38 L-7.41 -8.46 L-7.7 -8.55 L-8 -8.55 L-8.08 -8.63 L-8.29 -8.63 L-8.46 -8.63 L-8.76 -8.63 L-9.14 -8.63 L-9.44 -8.63 L-9.52 -8.63 L-9.69 -8.63 L-9.82 -8.63 L-9.99 -8.63 L-10.28 -8.63 L-10.83 -8.63 L-11.21 -8.59 L-11.43 -8.51 L-11.6 -8.51 L-11.81 -8.42 L-11.89 -8.29 L-11.98 -8.29 L-12.19 -8.21 L-12.36 -8.13 L-12.74 -7.91 L-13.03 -7.83 L-13.25 -7.83 L-13.25 -7.74 L-13.33 -7.74 L-13.5 -7.66 L-13.8 -7.53 L-14.01 -7.45 L-14.09 -7.36 L-14.18 -7.28 L-14.39 -7.28 L-14.47 -7.15 L-14.56 -7.07 L-14.64 -7.07 L-14.94 -6.9 L-15.15 -6.69 L-15.32 -6.52 L-15.53 -6.31 L-15.7 -6.22 L-15.7 -6.14 L-15.79 -6.01 L-16 -5.84 L-16.17 -5.46 L-16.38 -5.16 L-16.46 -4.87 L-16.46 -4.7 L-16.55 -4.49 L-16.67 -4.32 L-16.76 -3.94 L-16.76 -3.72 L-16.76 -3.64 L-16.84 -3.47 L-16.84 -3.17 L-16.84 -2.96 L-16.93 -2.79 L-17.06 -2.33 L-17.06 -2.03 L-17.06 -1.82 L-17.06 -1.65 L-17.14 -1.44 L-17.14 -1.18 L-17.14 -1.06 L-17.22 -0.51 L-17.22 -0.13 L-17.22 0.25 L-17.31 0.72 L-17.31 1.1 L-17.31 1.23 L-17.31 1.4 L-17.31 1.69 L-17.31 2.24 L-17.27 2.62 L-17.18 3 L-17.1 3.22 L-17.1 3.39 L-16.89 3.77 L-16.59 4.36 L-16.51 4.66 L-16.42 4.82 L-16.34 4.91 L-15.95 5.42 L-15.66 5.8 L-15.57 5.97 L-15.36 6.18 L-15.19 6.56 L-14.81 7.03 L-14.52 7.32 L-14.3 7.41 L-14.14 7.7 L-13.92 7.79 L-13.46 8.25 L-12.99 8.55 L-12.91 8.63 L-12.7 8.84 L-12.53 8.93 L-12.15 9.1 L-11.77 9.4 L-11.17 9.86 L-11 9.99 L-10.79 10.07 L-10.5 10.24 L-10.33 10.45 L-9.86 10.75 L-9.35 11 L-9.18 11.13 L-8.97 11.21 L-8.8 11.3 L-8.59 11.51 L-7.66 11.98 L-7.36 12.06 L-6.9 12.36 L-6.69 12.44 L-6.43 12.53 L-6.14 12.74 L-5.67 13.03 L-4.99 13.29 L-4.78 13.42 L-4.53 13.58 L-4.23 13.8 L-3.77 14.05 L-3.26 14.43 L-3.09 14.64 L-3 14.73 L-2.79 14.81 L-2.5 15.11 L-2.24 15.4 L-2.03 15.49 L-1.86 15.79 L-1.74 15.87 L-1.57 16.17 L-1.27 16.55 L-1.18 16.72 L-1.18 16.84 L-0.97 17.01 L-0.97 17.22 L-0.89 17.48 L-0.8 17.86 L-0.8 17.99 L-0.72 18.16 L-0.72 18.24 L-0.72 18.45 L-0.59 18.92 L-0.59 19 L-0.59 19.13 L-0.59 19.21 L-0.59 19.38 L-0.59 19.59 L-0.68 19.76 L-0.68 19.89 L-0.68 19.98 L-0.76 20.14 L-0.76 20.27 L-0.76 20.44 L-0.76 20.4 L-0.72 20.19 L-0.59 20.1 L-0.51 20.02 L-0.34 19.81 L-0.21 19.72 L-0.13 19.64 L-0.04 19.55 L0.17 19.34 L0.42 19.04 L0.63 18.96 L0.72 18.87 L0.93 18.66 L1.4 18.49 L1.69 18.28 L1.86 18.11 L2.16 18.03 L2.33 17.82 L2.62 17.65 L3.09 17.27 L3.3 17.27 L3.6 17.06 L3.77 16.97 L4.06 16.76 L4.23 16.67 L4.36 16.59 L4.53 16.59 L4.61 16.51 L5.12 16.29 L5.88 15.91 L6.26 15.83 L6.81 15.62 L7.03 15.45 L7.96 14.98 L8.42 14.77 L8.72 14.69 L9.01 14.6 L9.69 14.3 L10.45 14.09 L10.62 13.92 L10.92 13.92 L11.47 13.54 L12.15 13.25 L12.44 13.08 L12.74 12.95 L13.12 12.78 L13.75 12.32 L14.26 11.93 L14.73 11.43 L15.19 10.96 L15.57 10.41 L15.95 10.11 L16.17 9.65 L16.55 9.14 L16.8 8.59 L17.01 8.21 L17.18 7.91 L17.48 7.24 L17.69 6.69 L17.86 6.39 L17.94 6.01 L18.07 5.54 L18.32 4.78 L18.45 4.49 L18.62 4.19 L18.92 3.17 L19 2.67 L19.09 2.12 L19.09 1.44 L19.09 0.76 L19.09 0.13 L19.09 -0.17 L19.04 -0.47 L18.96 -0.55 L18.66 -1.69 L18.37 -2.29 L18.28 -2.54 L18.2 -2.75 L18.11 -3.05 L17.9 -3.43 L17.44 -4.19 L17.22 -4.44 L17.06 -4.66 L16.97 -4.82 L16.67 -5.12 L16.46 -5.42 L16.08 -5.71 L15.91 -5.88 L15.7 -6.09 L15.53 -6.18 L15.24 -6.26 L14.69 -6.48 L14.47 -6.56 L14.18 -6.64 L13.92 -6.73 L13.16 -6.94 L12.57 -7.11 L12.4 -7.24 L12.1 -7.24 L11.81 -7.24 L11.43 -7.32 L10.75 -7.32 L10.58 -7.32 L10.37 -7.32 L10.11 -7.32 L9.73 -7.32 L9.06 -7.28 L8.84 -7.15 L8.59 -7.07 L8.46 -6.98 L8.08 -6.9 L7.62 -6.77 L7.32 -6.69 L6.94 -6.52 L6.39 -6.31 L5.92 -6.14 L5.42 -5.84 L5.25 -5.76 L4.78 -5.63 L4.4 -5.37 L4.11 -5.16 L3.64 -5.08 L3.26 -4.7 L2.96 -4.4 L2.75 -4.32 L2.58 -4.11 L2.5 -4.02 L2.2 -3.64 L1.9 -3.26 L1.82 -3.17 L1.74 -2.96 L1.74 -2.79 L1.52 -2.33 L1.44 -2.03 L1.44 -1.82 L1.44 -1.74 L1.44 -1.57 L1.44 -1.27 L1.35 -1.18 L1.35 -1.06 L1.35 -0.89 L1.23 -0.89 L1.23 -0.8 L1.23 -0.68 L1.14 -0.68 L1.14 -0.59 L1.14 -0.51 L1.14 -0.42 L1.06 -0.42 L1.06 -0.3 L1.06 -0.3" stroke="none" stroke-width="0" fill="#868e96" fill-rule="evenodd"></path><path fill="#000000" d="M -2.21,0.98 Q -2.21,0.98 -2.45,0.56 -2.68,0.14 -3.37,-0.67 -4.06,-1.49 -4.84,-2.27 -5.61,-3.04 -6.42,-3.79 -7.23,-4.54 -8.31,-4.86 -9.39,-5.18 -10.46,-4.88 -11.53,-4.58 -12.46,-3.98 -13.39,-3.37 -13.42,-2.03 -13.45,-0.69 -13.48,0.41 -13.51,1.52 -13.01,2.60 -12.50,3.67 -11.75,4.45 -11.00,5.23 -10.11,5.87 -9.21,6.51 -8.27,7.12 -7.33,7.72 -6.34,8.26 -5.35,8.79 -4.33,9.30 -3.31,9.82 -2.35,10.41 -1.40,11.01 -0.52,11.76 0.35,12.51 1.16,13.48 1.97,14.45 2.44,15.55 2.90,16.66 3.10,17.79 3.29,18.92 3.12,20.14 2.95,21.35 3.04,20.98 3.14,20.60 3.05,21.07 2.97,21.53 2.77,21.96 2.58,22.39 2.29,22.76 2.00,23.13 1.63,23.42 1.26,23.71 0.83,23.90 0.40,24.09 -0.06,24.18 -0.52,24.26 -0.99,24.23 -1.46,24.21 -1.91,24.07 -2.36,23.93 -2.76,23.68 -3.17,23.44 -3.50,23.10 -3.83,22.77 -4.08,22.37 -4.32,21.96 -4.46,21.51 -4.60,21.06 -4.63,20.59 -4.65,20.12 -4.11,18.85 -3.57,17.57 -2.67,16.72 -1.77,15.87 -0.74,15.22 0.28,14.58 1.18,13.98 2.09,13.38 3.34,12.82 4.58,12.26 5.77,11.72 6.96,11.17 8.34,10.69 9.72,10.20 10.67,9.61 11.63,9.02 12.39,8.12 13.14,7.22 13.68,6.11 14.22,5.00 14.60,3.91 14.98,2.82 15.10,1.68 15.22,0.55 14.86,-0.53 14.51,-1.62 13.50,-2.36 12.49,-3.09 11.38,-3.26 10.27,-3.43 9.20,-3.12 8.12,-2.80 6.67,-2.15 5.22,-1.51 5.03,-0.45 4.84,0.60 4.60,1.18 4.35,1.76 3.93,2.23 3.51,2.70 2.97,3.01 2.42,3.32 1.80,3.44 1.18,3.56 0.56,3.48 -0.06,3.40 -0.62,3.12 -1.19,2.84 -1.64,2.40 -2.09,1.96 -2.37,1.39 -2.65,0.83 -2.74,0.21 -2.82,-0.41 -2.71,-1.03 -2.59,-1.65 -2.28,-2.20 -1.98,-2.75 -1.51,-3.17 -1.04,-3.59 -0.46,-3.84 0.10,-4.10 0.73,-4.15 1.36,-4.20 1.97,-4.05 2.59,-3.90 3.12,-3.57 3.65,-3.23 4.05,-2.74 4.44,-2.25 4.66,-1.66 4.88,-1.07 4.90,-0.44 4.92,0.18 4.74,0.79 4.56,1.39 4.19,1.90 3.83,2.42 3.31,2.78 2.80,3.15 2.20,3.34 1.60,3.53 0.97,3.51 0.34,3.50 -0.24,3.28 -0.83,3.07 -1.33,2.68 -1.82,2.28 -2.16,1.75 -2.50,1.22 -2.66,0.61 -2.81,0.00 -2.76,-0.62 -2.71,-1.24 -2.71,-1.24 -2.71,-1.24 -1.67,-3.79 -0.62,-6.33 0.34,-7.20 1.30,-8.08 2.52,-8.71 3.74,-9.35 4.78,-9.80 5.82,-10.25 7.01,-10.62 8.19,-10.99 9.57,-11.09 10.94,-11.19 12.00,-11.09 13.06,-10.99 14.34,-10.62 15.62,-10.24 16.78,-9.72 17.94,-9.20 18.85,-8.33 19.76,-7.45 20.39,-6.57 21.02,-5.68 21.58,-4.43 22.15,-3.18 22.53,-1.82 22.91,-0.46 22.90,0.86 22.90,2.19 22.65,3.55 22.41,4.91 21.96,6.22 21.51,7.53 20.96,8.81 20.40,10.08 19.78,11.10 19.16,12.13 18.35,13.11 17.54,14.09 16.51,14.96 15.49,15.82 14.25,16.48 13.01,17.14 11.89,17.60 10.78,18.07 9.69,18.55 8.59,19.04 7.31,19.60 6.02,20.16 5.04,20.75 4.07,21.35 3.16,22.06 2.26,22.76 2.70,21.68 3.14,20.60 3.05,21.06 2.97,21.53 2.77,21.96 2.58,22.39 2.29,22.76 2.00,23.13 1.63,23.42 1.26,23.71 0.83,23.90 0.40,24.09 -0.06,24.18 -0.52,24.26 -0.99,24.23 -1.46,24.21 -1.91,24.07 -2.36,23.93 -2.76,23.68 -3.17,23.44 -3.50,23.10 -3.83,22.77 -4.07,22.37 -4.32,21.96 -4.46,21.51 -4.60,21.06 -4.63,20.59 -4.65,20.12 -4.79,19.09 -4.92,18.05 -5.95,17.34 -6.98,16.63 -8.11,16.04 -9.24,15.45 -10.41,14.81 -11.58,14.17 -12.71,13.41 -13.85,12.66 -14.72,12.03 -15.59,11.39 -16.60,10.49 -17.62,9.58 -18.43,8.49 -19.24,7.39 -19.86,6.21 -20.48,5.04 -20.77,3.80 -21.07,2.55 -21.03,1.21 -20.99,-0.12 -20.88,-1.19 -20.78,-2.26 -20.59,-3.37 -20.40,-4.48 -20.07,-5.52 -19.74,-6.56 -19.16,-7.48 -18.58,-8.40 -17.38,-9.32 -16.18,-10.25 -15.18,-10.71 -14.19,-11.17 -13.05,-11.58 -11.91,-11.99 -10.73,-12.04 -9.55,-12.08 -8.46,-11.97 -7.36,-11.86 -6.12,-11.38 -4.89,-10.89 -3.89,-10.04 -2.89,-9.20 -2.20,-8.37 -1.51,-7.54 -0.83,-6.64 -0.15,-5.75 0.34,-4.80 0.84,-3.85 1.37,-2.87 1.90,-1.89 2.06,-1.44 2.21,-0.98 2.29,-0.70 2.38,-0.42 2.40,-0.13 2.41,0.15 2.36,0.44 2.30,0.73 2.18,0.99 2.06,1.26 1.88,1.49 1.70,1.72 1.47,1.89 1.24,2.07 0.97,2.19 0.70,2.31 0.42,2.36 0.13,2.41 -0.15,2.39 -0.44,2.38 -0.72,2.29 -1.00,2.20 -1.25,2.05 -1.50,1.89 -1.70,1.69 -1.91,1.48 -2.06,1.23 -2.21,0.98 -2.21,0.98 L -2.21,0.98 Z"></path></g><g stroke-linecap="round" transform="translate(626.1508429658502 111.12062545758386) rotate(0 9.102960653929244 9.61822257773656)"><path d="M18.21 9.62 C18.21 10.17, 18.16 10.74, 18.07 11.29 C17.98 11.84, 17.84 12.38, 17.66 12.91 C17.48 13.43, 17.25 13.95, 16.99 14.43 C16.72 14.91, 16.41 15.37, 16.08 15.8 C15.74 16.23, 15.36 16.63, 14.95 16.99 C14.55 17.34, 14.11 17.67, 13.65 17.95 C13.2 18.23, 12.71 18.47, 12.22 18.66 C11.72 18.85, 11.2 18.99, 10.68 19.09 C10.16 19.19, 9.63 19.24, 9.1 19.24 C8.58 19.24, 8.04 19.19, 7.52 19.09 C7 18.99, 6.48 18.85, 5.99 18.66 C5.49 18.47, 5.01 18.23, 4.55 17.95 C4.1 17.67, 3.66 17.34, 3.25 16.99 C2.85 16.63, 2.47 16.23, 2.13 15.8 C1.79 15.37, 1.48 14.91, 1.22 14.43 C0.96 13.95, 0.73 13.43, 0.55 12.91 C0.37 12.38, 0.23 11.84, 0.14 11.29 C0.05 10.74, 0 10.17, 0 9.62 C0 9.06, 0.05 8.5, 0.14 7.95 C0.23 7.4, 0.37 6.85, 0.55 6.33 C0.73 5.81, 0.96 5.29, 1.22 4.81 C1.48 4.33, 1.79 3.86, 2.13 3.44 C2.47 3.01, 2.85 2.61, 3.25 2.25 C3.66 1.89, 4.1 1.57, 4.55 1.29 C5.01 1.01, 5.49 0.77, 5.99 0.58 C6.48 0.39, 7 0.24, 7.52 0.15 C8.04 0.05, 8.58 0, 9.1 0 C9.63 0, 10.16 0.05, 10.68 0.15 C11.2 0.24, 11.72 0.39, 12.22 0.58 C12.71 0.77, 13.2 1.01, 13.65 1.29 C14.11 1.57, 14.55 1.89, 14.95 2.25 C15.36 2.61, 15.74 3.01, 16.08 3.44 C16.41 3.86, 16.72 4.33, 16.99 4.81 C17.25 5.29, 17.48 5.81, 17.66 6.33 C17.84 6.85, 17.98 7.4, 18.07 7.95 C18.16 8.5, 18.18 9.34, 18.21 9.62 C18.23 9.9, 18.23 9.34, 18.21 9.62" stroke="#000000" stroke-width="1" fill="none"></path></g><g stroke-linecap="round"><g transform="translate(633.7322233340558 113.58382626691468) rotate(0 3.5594038128677994 7.155021768405618)"><path d="M0 0 C2.63 2.24, 5.26 4.49, 7.12 6.07 M0 0 C2.47 2.1, 4.93 4.21, 7.12 6.07 M7.12 6.07 C4.62 9.11, 2.12 12.15, 0.34 14.31 M7.12 6.07 C5.35 8.22, 3.59 10.37, 0.34 14.31" stroke="#000000" stroke-width="1" fill="none"></path></g></g><g stroke-linecap="round" transform="translate(404.63229225942746 111.12062545758386) rotate(188.09800442180745 9.102960653929244 9.61822257773656)"><path d="M18.21 9.62 C18.21 10.17, 18.16 10.74, 18.07 11.29 C17.98 11.84, 17.84 12.38, 17.66 12.91 C17.48 13.43, 17.25 13.95, 16.99 14.43 C16.72 14.91, 16.41 15.37, 16.08 15.8 C15.74 16.23, 15.36 16.63, 14.95 16.99 C14.55 17.34, 14.11 17.67, 13.65 17.95 C13.2 18.23, 12.71 18.47, 12.22 18.66 C11.72 18.85, 11.2 18.99, 10.68 19.09 C10.16 19.19, 9.63 19.24, 9.1 19.24 C8.58 19.24, 8.04 19.19, 7.52 19.09 C7 18.99, 6.48 18.85, 5.99 18.66 C5.49 18.47, 5.01 18.23, 4.55 17.95 C4.1 17.67, 3.66 17.34, 3.25 16.99 C2.85 16.63, 2.47 16.23, 2.13 15.8 C1.79 15.37, 1.48 14.91, 1.22 14.43 C0.96 13.95, 0.73 13.43, 0.55 12.91 C0.37 12.38, 0.23 11.84, 0.14 11.29 C0.05 10.74, 0 10.17, 0 9.62 C0 9.06, 0.05 8.5, 0.14 7.95 C0.23 7.4, 0.37 6.85, 0.55 6.33 C0.73 5.81, 0.96 5.29, 1.22 4.81 C1.48 4.33, 1.79 3.86, 2.13 3.44 C2.47 3.01, 2.85 2.61, 3.25 2.25 C3.66 1.89, 4.1 1.57, 4.55 1.29 C5.01 1.01, 5.49 0.77, 5.99 0.58 C6.48 0.39, 7 0.24, 7.52 0.15 C8.04 0.05, 8.58 0, 9.1 0 C9.63 0, 10.16 0.05, 10.68 0.15 C11.2 0.24, 11.72 0.39, 12.22 0.58 C12.71 0.77, 13.2 1.01, 13.65 1.29 C14.11 1.57, 14.55 1.89, 14.95 2.25 C15.36 2.61, 15.74 3.01, 16.08 3.44 C16.41 3.86, 16.72 4.33, 16.99 4.81 C17.25 5.29, 17.48 5.81, 17.66 6.33 C17.84 6.85, 17.98 7.4, 18.07 7.95 C18.16 8.5, 18.18 9.34, 18.21 9.62 C18.23 9.9, 18.23 9.34, 18.21 9.62" stroke="#000000" stroke-width="1" fill="none"></path></g><g stroke-linecap="round"><g transform="translate(408.1754583350796 113.17649430946653) rotate(188.09800442180745 3.5594038128677994 7.155021768405618)"><path d="M0 0 C1.53 1.3, 3.06 2.61, 7.12 6.07 M0 0 C1.44 1.23, 2.89 2.46, 7.12 6.07 M7.12 6.07 C5.27 8.32, 3.42 10.57, 0.34 14.31 M7.12 6.07 C5.08 8.55, 3.04 11.03, 0.34 14.31" stroke="#000000" stroke-width="1" fill="none"></path></g></g><g stroke-linecap="round" transform="translate(510.03525924599717 182.31480841006487) rotate(0 2.7192546675770473 2.816370905704673)"><path d="M5.44 2.82 C5.44 2.98, 5.42 3.14, 5.4 3.31 C5.37 3.47, 5.33 3.63, 5.27 3.78 C5.22 3.93, 5.15 4.08, 5.07 4.22 C5 4.37, 4.9 4.5, 4.8 4.63 C4.7 4.75, 4.59 4.87, 4.47 4.97 C4.35 5.08, 4.22 5.17, 4.08 5.26 C3.94 5.34, 3.8 5.41, 3.65 5.46 C3.5 5.52, 3.35 5.56, 3.19 5.59 C3.04 5.62, 2.88 5.63, 2.72 5.63 C2.56 5.63, 2.4 5.62, 2.25 5.59 C2.09 5.56, 1.94 5.52, 1.79 5.46 C1.64 5.41, 1.5 5.34, 1.36 5.26 C1.22 5.17, 1.09 5.08, 0.97 4.97 C0.85 4.87, 0.74 4.75, 0.64 4.63 C0.54 4.5, 0.44 4.37, 0.36 4.22 C0.29 4.08, 0.22 3.93, 0.16 3.78 C0.11 3.63, 0.07 3.47, 0.04 3.31 C0.01 3.14, 0 2.98, 0 2.82 C0 2.65, 0.01 2.49, 0.04 2.33 C0.07 2.17, 0.11 2.01, 0.16 1.85 C0.22 1.7, 0.29 1.55, 0.36 1.41 C0.44 1.27, 0.54 1.13, 0.64 1.01 C0.74 0.88, 0.85 0.76, 0.97 0.66 C1.09 0.55, 1.22 0.46, 1.36 0.38 C1.5 0.3, 1.64 0.23, 1.79 0.17 C1.94 0.11, 2.09 0.07, 2.25 0.04 C2.4 0.01, 2.56 0, 2.72 0 C2.88 0, 3.04 0.01, 3.19 0.04 C3.35 0.07, 3.5 0.11, 3.65 0.17 C3.8 0.23, 3.94 0.3, 4.08 0.38 C4.22 0.46, 4.35 0.55, 4.47 0.66 C4.59 0.76, 4.7 0.88, 4.8 1.01 C4.9 1.13, 5 1.27, 5.07 1.41 C5.15 1.55, 5.22 1.7, 5.27 1.85 C5.33 2.01, 5.37 2.17, 5.4 2.33 C5.42 2.49, 5.43 2.73, 5.44 2.82 C5.45 2.9, 5.45 2.73, 5.44 2.82" stroke="none" stroke-width="0" fill="#868e96"></path><path d="M5.44 2.82 C5.44 2.98, 5.42 3.14, 5.4 3.31 C5.37 3.47, 5.33 3.63, 5.27 3.78 C5.22 3.93, 5.15 4.08, 5.07 4.22 C5 4.37, 4.9 4.5, 4.8 4.63 C4.7 4.75, 4.59 4.87, 4.47 4.97 C4.35 5.08, 4.22 5.17, 4.08 5.26 C3.94 5.34, 3.8 5.41, 3.65 5.46 C3.5 5.52, 3.35 5.56, 3.19 5.59 C3.04 5.62, 2.88 5.63, 2.72 5.63 C2.56 5.63, 2.4 5.62, 2.25 5.59 C2.09 5.56, 1.94 5.52, 1.79 5.46 C1.64 5.41, 1.5 5.34, 1.36 5.26 C1.22 5.17, 1.09 5.08, 0.97 4.97 C0.85 4.87, 0.74 4.75, 0.64 4.63 C0.54 4.5, 0.44 4.37, 0.36 4.22 C0.29 4.08, 0.22 3.93, 0.16 3.78 C0.11 3.63, 0.07 3.47, 0.04 3.31 C0.01 3.14, 0 2.98, 0 2.82 C0 2.65, 0.01 2.49, 0.04 2.33 C0.07 2.17, 0.11 2.01, 0.16 1.85 C0.22 1.7, 0.29 1.55, 0.36 1.41 C0.44 1.27, 0.54 1.13, 0.64 1.01 C0.74 0.88, 0.85 0.76, 0.97 0.66 C1.09 0.55, 1.22 0.46, 1.36 0.38 C1.5 0.3, 1.64 0.23, 1.79 0.17 C1.94 0.11, 2.09 0.07, 2.25 0.04 C2.4 0.01, 2.56 0, 2.72 0 C2.88 0, 3.04 0.01, 3.19 0.04 C3.35 0.07, 3.5 0.11, 3.65 0.17 C3.8 0.23, 3.94 0.3, 4.08 0.38 C4.22 0.46, 4.35 0.55, 4.47 0.66 C4.59 0.76, 4.7 0.88, 4.8 1.01 C4.9 1.13, 5 1.27, 5.07 1.41 C5.15 1.55, 5.22 1.7, 5.27 1.85 C5.33 2.01, 5.37 2.17, 5.4 2.33 C5.42 2.49, 5.43 2.73, 5.44 2.82 C5.45 2.9, 5.45 2.73, 5.44 2.82" stroke="#000000" stroke-width="1" fill="none"></path></g><g stroke-linecap="round" transform="translate(522.4661377263487 182.31480841006487) rotate(0 2.7192546675770473 2.816370905704673)"><path d="M5.44 2.82 C5.44 2.98, 5.42 3.14, 5.4 3.31 C5.37 3.47, 5.33 3.63, 5.27 3.78 C5.22 3.93, 5.15 4.08, 5.07 4.22 C5 4.37, 4.9 4.5, 4.8 4.63 C4.7 4.75, 4.59 4.87, 4.47 4.97 C4.35 5.08, 4.22 5.17, 4.08 5.26 C3.94 5.34, 3.8 5.41, 3.65 5.46 C3.5 5.52, 3.35 5.56, 3.19 5.59 C3.04 5.62, 2.88 5.63, 2.72 5.63 C2.56 5.63, 2.4 5.62, 2.25 5.59 C2.09 5.56, 1.94 5.52, 1.79 5.46 C1.64 5.41, 1.5 5.34, 1.36 5.26 C1.22 5.17, 1.09 5.08, 0.97 4.97 C0.85 4.87, 0.74 4.75, 0.64 4.63 C0.54 4.5, 0.44 4.37, 0.36 4.22 C0.29 4.08, 0.22 3.93, 0.16 3.78 C0.11 3.63, 0.07 3.47, 0.04 3.31 C0.01 3.14, 0 2.98, 0 2.82 C0 2.65, 0.01 2.49, 0.04 2.33 C0.07 2.17, 0.11 2.01, 0.16 1.85 C0.22 1.7, 0.29 1.55, 0.36 1.41 C0.44 1.27, 0.54 1.13, 0.64 1.01 C0.74 0.88, 0.85 0.76, 0.97 0.66 C1.09 0.55, 1.22 0.46, 1.36 0.38 C1.5 0.3, 1.64 0.23, 1.79 0.17 C1.94 0.11, 2.09 0.07, 2.25 0.04 C2.4 0.01, 2.56 0, 2.72 0 C2.88 0, 3.04 0.01, 3.19 0.04 C3.35 0.07, 3.5 0.11, 3.65 0.17 C3.8 0.23, 3.94 0.3, 4.08 0.38 C4.22 0.46, 4.35 0.55, 4.47 0.66 C4.59 0.76, 4.7 0.88, 4.8 1.01 C4.9 1.13, 5 1.27, 5.07 1.41 C5.15 1.55, 5.22 1.7, 5.27 1.85 C5.33 2.01, 5.37 2.17, 5.4 2.33 C5.42 2.49, 5.43 2.73, 5.44 2.82 C5.45 2.9, 5.45 2.73, 5.44 2.82" stroke="#000000" stroke-width="1" fill="none"></path></g><g stroke-linecap="round" transform="translate(537.2278059217663 182.31480841006487) rotate(0 2.7192546675770473 2.816370905704673)"><path d="M5.44 2.82 C5.44 2.98, 5.42 3.14, 5.4 3.31 C5.37 3.47, 5.33 3.63, 5.27 3.78 C5.22 3.93, 5.15 4.08, 5.07 4.22 C5 4.37, 4.9 4.5, 4.8 4.63 C4.7 4.75, 4.59 4.87, 4.47 4.97 C4.35 5.08, 4.22 5.17, 4.08 5.26 C3.94 5.34, 3.8 5.41, 3.65 5.46 C3.5 5.52, 3.35 5.56, 3.19 5.59 C3.04 5.62, 2.88 5.63, 2.72 5.63 C2.56 5.63, 2.4 5.62, 2.25 5.59 C2.09 5.56, 1.94 5.52, 1.79 5.46 C1.64 5.41, 1.5 5.34, 1.36 5.26 C1.22 5.17, 1.09 5.08, 0.97 4.97 C0.85 4.87, 0.74 4.75, 0.64 4.63 C0.54 4.5, 0.44 4.37, 0.36 4.22 C0.29 4.08, 0.22 3.93, 0.16 3.78 C0.11 3.63, 0.07 3.47, 0.04 3.31 C0.01 3.14, 0 2.98, 0 2.82 C0 2.65, 0.01 2.49, 0.04 2.33 C0.07 2.17, 0.11 2.01, 0.16 1.85 C0.22 1.7, 0.29 1.55, 0.36 1.41 C0.44 1.27, 0.54 1.13, 0.64 1.01 C0.74 0.88, 0.85 0.76, 0.97 0.66 C1.09 0.55, 1.22 0.46, 1.36 0.38 C1.5 0.3, 1.64 0.23, 1.79 0.17 C1.94 0.11, 2.09 0.07, 2.25 0.04 C2.4 0.01, 2.56 0, 2.72 0 C2.88 0, 3.04 0.01, 3.19 0.04 C3.35 0.07, 3.5 0.11, 3.65 0.17 C3.8 0.23, 3.94 0.3, 4.08 0.38 C4.22 0.46, 4.35 0.55, 4.47 0.66 C4.59 0.76, 4.7 0.88, 4.8 1.01 C4.9 1.13, 5 1.27, 5.07 1.41 C5.15 1.55, 5.22 1.7, 5.27 1.85 C5.33 2.01, 5.37 2.17, 5.4 2.33 C5.42 2.49, 5.43 2.73, 5.44 2.82 C5.45 2.9, 5.45 2.73, 5.44 2.82" stroke="#000000" stroke-width="1" fill="none"></path></g><g stroke-linecap="round" transform="translate(548.7792069706945 182.31480841006487) rotate(0 2.7192546675770473 2.816370905704673)"><path d="M5.44 2.82 C5.44 2.98, 5.42 3.14, 5.4 3.31 C5.37 3.47, 5.33 3.63, 5.27 3.78 C5.22 3.93, 5.15 4.08, 5.07 4.22 C5 4.37, 4.9 4.5, 4.8 4.63 C4.7 4.75, 4.59 4.87, 4.47 4.97 C4.35 5.08, 4.22 5.17, 4.08 5.26 C3.94 5.34, 3.8 5.41, 3.65 5.46 C3.5 5.52, 3.35 5.56, 3.19 5.59 C3.04 5.62, 2.88 5.63, 2.72 5.63 C2.56 5.63, 2.4 5.62, 2.25 5.59 C2.09 5.56, 1.94 5.52, 1.79 5.46 C1.64 5.41, 1.5 5.34, 1.36 5.26 C1.22 5.17, 1.09 5.08, 0.97 4.97 C0.85 4.87, 0.74 4.75, 0.64 4.63 C0.54 4.5, 0.44 4.37, 0.36 4.22 C0.29 4.08, 0.22 3.93, 0.16 3.78 C0.11 3.63, 0.07 3.47, 0.04 3.31 C0.01 3.14, 0 2.98, 0 2.82 C0 2.65, 0.01 2.49, 0.04 2.33 C0.07 2.17, 0.11 2.01, 0.16 1.85 C0.22 1.7, 0.29 1.55, 0.36 1.41 C0.44 1.27, 0.54 1.13, 0.64 1.01 C0.74 0.88, 0.85 0.76, 0.97 0.66 C1.09 0.55, 1.22 0.46, 1.36 0.38 C1.5 0.3, 1.64 0.23, 1.79 0.17 C1.94 0.11, 2.09 0.07, 2.25 0.04 C2.4 0.01, 2.56 0, 2.72 0 C2.88 0, 3.04 0.01, 3.19 0.04 C3.35 0.07, 3.5 0.11, 3.65 0.17 C3.8 0.23, 3.94 0.3, 4.08 0.38 C4.22 0.46, 4.35 0.55, 4.47 0.66 C4.59 0.76, 4.7 0.88, 4.8 1.01 C4.9 1.13, 5 1.27, 5.07 1.41 C5.15 1.55, 5.22 1.7, 5.27 1.85 C5.33 2.01, 5.37 2.17, 5.4 2.33 C5.42 2.49, 5.43 2.73, 5.44 2.82 C5.45 2.9, 5.45 2.73, 5.44 2.82" stroke="#000000" stroke-width="1" fill="none"></path></g><g stroke-linecap="round" transform="translate(615.5969667654972 68.97873071197648) rotate(0 13.390969774199561 13.390969774199561)"><path d="M26.78 13.39 C26.78 14.17, 26.71 14.95, 26.58 15.72 C26.44 16.48, 26.24 17.24, 25.97 17.97 C25.71 18.7, 25.38 19.42, 24.99 20.09 C24.6 20.76, 24.15 21.4, 23.65 22 C23.15 22.59, 22.59 23.15, 22 23.65 C21.4 24.15, 20.76 24.6, 20.09 24.99 C19.42 25.38, 18.7 25.71, 17.97 25.97 C17.24 26.24, 16.48 26.44, 15.72 26.58 C14.95 26.71, 14.17 26.78, 13.39 26.78 C12.62 26.78, 11.83 26.71, 11.07 26.58 C10.3 26.44, 9.54 26.24, 8.81 25.97 C8.08 25.71, 7.37 25.38, 6.7 24.99 C6.02 24.6, 5.38 24.15, 4.78 23.65 C4.19 23.15, 3.63 22.59, 3.13 22 C2.63 21.4, 2.18 20.76, 1.79 20.09 C1.41 19.42, 1.07 18.7, 0.81 17.97 C0.54 17.24, 0.34 16.48, 0.2 15.72 C0.07 14.95, 0 14.17, 0 13.39 C0 12.62, 0.07 11.83, 0.2 11.07 C0.34 10.3, 0.54 9.54, 0.81 8.81 C1.07 8.08, 1.41 7.37, 1.79 6.7 C2.18 6.02, 2.63 5.38, 3.13 4.78 C3.63 4.19, 4.19 3.63, 4.78 3.13 C5.38 2.63, 6.02 2.18, 6.7 1.79 C7.37 1.41, 8.08 1.07, 8.81 0.81 C9.54 0.54, 10.3 0.34, 11.07 0.2 C11.83 0.07, 12.62 0, 13.39 0 C14.17 0, 14.95 0.07, 15.72 0.2 C16.48 0.34, 17.24 0.54, 17.97 0.81 C18.7 1.07, 19.42 1.41, 20.09 1.79 C20.76 2.18, 21.4 2.63, 22 3.13 C22.59 3.63, 23.15 4.19, 23.65 4.78 C24.15 5.38, 24.6 6.02, 24.99 6.7 C25.38 7.37, 25.71 8.08, 25.97 8.81 C26.24 9.54, 26.44 10.3, 26.58 11.07 C26.71 11.83, 26.75 13, 26.78 13.39 C26.82 13.78, 26.82 13, 26.78 13.39" stroke="none" stroke-width="0" fill="#868e96"></path><path d="M26.78 13.39 C26.78 14.17, 26.71 14.95, 26.58 15.72 C26.44 16.48, 26.24 17.24, 25.97 17.97 C25.71 18.7, 25.38 19.42, 24.99 20.09 C24.6 20.76, 24.15 21.4, 23.65 22 C23.15 22.59, 22.59 23.15, 22 23.65 C21.4 24.15, 20.76 24.6, 20.09 24.99 C19.42 25.38, 18.7 25.71, 17.97 25.97 C17.24 26.24, 16.48 26.44, 15.72 26.58 C14.95 26.71, 14.17 26.78, 13.39 26.78 C12.62 26.78, 11.83 26.71, 11.07 26.58 C10.3 26.44, 9.54 26.24, 8.81 25.97 C8.08 25.71, 7.37 25.38, 6.7 24.99 C6.02 24.6, 5.38 24.15, 4.78 23.65 C4.19 23.15, 3.63 22.59, 3.13 22 C2.63 21.4, 2.18 20.76, 1.79 20.09 C1.41 19.42, 1.07 18.7, 0.81 17.97 C0.54 17.24, 0.34 16.48, 0.2 15.72 C0.07 14.95, 0 14.17, 0 13.39 C0 12.62, 0.07 11.83, 0.2 11.07 C0.34 10.3, 0.54 9.54, 0.81 8.81 C1.07 8.08, 1.41 7.37, 1.79 6.7 C2.18 6.02, 2.63 5.38, 3.13 4.78 C3.63 4.19, 4.19 3.63, 4.78 3.13 C5.38 2.63, 6.02 2.18, 6.7 1.79 C7.37 1.41, 8.08 1.07, 8.81 0.81 C9.54 0.54, 10.3 0.34, 11.07 0.2 C11.83 0.07, 12.62 0, 13.39 0 C14.17 0, 14.95 0.07, 15.72 0.2 C16.48 0.34, 17.24 0.54, 17.97 0.81 C18.7 1.07, 19.42 1.41, 20.09 1.79 C20.76 2.18, 21.4 2.63, 22 3.13 C22.59 3.63, 23.15 4.19, 23.65 4.78 C24.15 5.38, 24.6 6.02, 24.99 6.7 C25.38 7.37, 25.71 8.08, 25.97 8.81 C26.24 9.54, 26.44 10.3, 26.58 11.07 C26.71 11.83, 26.75 13, 26.78 13.39 C26.82 13.78, 26.82 13, 26.78 13.39" stroke="#000000" stroke-width="1" fill="none"></path></g><g stroke-linecap="round"><g transform="translate(624.9854239622307 73.98762967218602) rotate(0 0.10517635149858506 8.36151994413666)"><path d="M0 0 C0.05 4.18, 0.11 8.36, 0.21 16.72 M0 0 C0.04 3.35, 0.08 6.7, 0.21 16.72" stroke="#000000" stroke-width="4" fill="none"></path></g></g><g stroke-linecap="round"><g transform="translate(632.7684739731253 73.56692426619168) rotate(0 0.10517635149847138 8.466696295635188)"><path d="M0 0 C0.05 4.28, 0.11 8.57, 0.21 16.93 M0 0 C0.08 6.47, 0.16 12.95, 0.21 16.93" stroke="#000000" stroke-width="4" fill="none"></path></g></g><g transform="translate(469.68573783236684 102.88129623248392) rotate(0 58.1972796165594 32.745963970282304)" stroke="none"><path fill="#000000" d="M -3.93,1.03 Q -3.93,1.03 -7.60,6.93 -11.26,12.82 -12.75,15.35 -14.25,17.87 -14.18,19.04 -14.12,20.20 -14.25,20.38 -14.38,20.57 -14.56,20.71 -14.73,20.86 -14.93,20.96 -15.14,21.06 -15.36,21.11 -15.58,21.16 -15.81,21.15 -16.04,21.15 -16.25,21.09 -16.47,21.03 -16.67,20.92 -16.87,20.81 -17.04,20.65 -17.20,20.50 -17.33,20.31 -17.45,20.12 -17.53,19.91 -17.60,19.69 -17.62,19.47 -17.65,19.24 -17.61,19.01 -17.58,18.79 -17.49,18.58 -17.41,18.37 -15.74,17.74 -14.06,17.11 -6.77,14.06 0.52,11.02 4.35,9.55 8.18,8.08 10.92,7.44 13.66,6.80 15.25,6.55 16.84,6.30 18.09,6.82 19.35,7.33 20.15,8.57 20.95,9.80 21.22,11.11 21.48,12.42 21.14,14.14 20.80,15.86 19.41,17.93 18.01,20.01 16.13,22.07 14.24,24.13 11.37,26.62 8.49,29.11 5.92,31.59 3.34,34.07 1.59,35.64 -0.15,37.22 -0.90,38.12 -1.66,39.03 -1.90,39.19 -2.15,39.36 -2.32,39.49 -2.50,39.63 -2.70,39.72 -2.90,39.82 -3.12,39.86 -3.34,39.90 -3.56,39.88 -3.79,39.87 -4.00,39.80 -4.21,39.74 -4.41,39.62 -4.60,39.51 -4.75,39.35 -4.91,39.19 -5.03,39.00 -5.14,38.81 -5.21,38.60 -5.28,38.38 -5.29,38.16 -5.30,37.94 -5.26,37.72 -5.22,37.50 -5.13,37.30 -5.04,37.09 -4.90,36.92 -4.77,36.74 -3.98,35.66 -3.19,34.59 -1.09,32.31 1.00,30.03 4.09,27.42 7.18,24.80 11.21,21.92 15.24,19.04 19.75,16.47 24.25,13.89 27.78,12.04 31.32,10.18 33.79,9.26 36.27,8.33 37.23,8.00 38.20,7.67 38.39,7.62 38.59,7.57 38.79,7.57 38.98,7.57 39.18,7.62 39.37,7.67 39.54,7.76 39.72,7.85 39.87,7.98 40.01,8.11 40.13,8.28 40.24,8.44 40.31,8.63 40.38,8.81 40.40,9.01 40.43,9.20 40.40,9.40 40.38,9.60 40.31,9.78 40.24,9.97 40.13,10.13 40.01,10.29 39.87,10.42 39.72,10.56 39.54,10.65 39.37,10.74 39.34,12.66 39.32,14.59 37.56,18.09 35.81,21.60 33.83,24.83 31.85,28.06 29.72,31.26 27.59,34.47 26.07,36.81 24.56,39.16 24.02,40.39 23.48,41.62 23.35,41.77 23.23,41.91 23.08,42.02 22.93,42.14 22.76,42.21 22.58,42.28 22.39,42.31 22.21,42.34 22.02,42.32 21.83,42.31 21.65,42.25 21.47,42.18 21.31,42.08 21.15,41.98 21.02,41.84 20.89,41.70 20.80,41.54 20.71,41.38 20.66,41.19 20.60,41.01 20.60,40.82 20.59,40.63 20.63,40.45 20.67,40.26 20.75,40.09 20.84,39.92 24.81,36.09 28.78,32.26 32.22,29.28 35.66,26.30 40.07,23.01 44.48,19.73 49.13,16.82 53.78,13.91 57.16,11.96 60.53,10.00 64.64,8.04 68.75,6.09 71.28,4.98 73.81,3.87 74.82,3.51 75.83,3.15 76.02,3.09 76.20,3.04 76.39,3.03 76.58,3.02 76.77,3.05 76.96,3.09 77.14,3.17 77.31,3.25 77.46,3.37 77.61,3.49 77.73,3.64 77.85,3.80 77.92,3.97 78.00,4.15 78.03,4.34 78.07,4.53 78.05,4.72 78.04,4.91 77.98,5.09 77.92,5.28 77.82,5.44 77.72,5.60 77.58,5.74 77.45,5.87 77.28,5.97 77.12,6.07 75.51,10.11 73.91,14.14 67.72,23.55 61.54,32.95 56.57,39.93 51.60,46.90 47.59,52.46 43.58,58.03 41.75,60.41 39.92,62.79 39.42,63.65 38.92,64.52 38.79,64.65 38.65,64.79 38.49,64.89 38.33,64.99 38.15,65.05 37.97,65.10 37.78,65.12 37.59,65.13 37.40,65.10 37.22,65.07 37.04,64.99 36.87,64.91 36.72,64.80 36.57,64.68 36.45,64.53 36.33,64.39 36.25,64.21 36.17,64.04 36.13,63.85 36.10,63.67 36.11,63.48 36.12,63.29 36.17,63.11 36.23,62.92 36.32,62.76 36.42,62.60 37.65,61.75 38.87,60.91 40.84,59.02 42.81,57.14 49.15,51.50 55.50,45.87 62.59,40.25 69.67,34.62 77.64,29.22 85.61,23.81 90.12,20.91 94.62,18.01 97.04,16.50 99.47,14.99 100.91,14.21 102.34,13.44 103.65,14.66 104.95,15.89 103.44,19.21 101.93,22.54 99.62,26.63 97.31,30.71 94.80,34.82 92.30,38.93 90.34,42.16 88.38,45.39 86.93,47.96 85.49,50.54 84.85,52.11 84.21,53.69 84.15,54.25 84.09,54.80 83.99,54.98 83.88,55.15 83.73,55.30 83.59,55.44 83.41,55.55 83.24,55.65 83.04,55.71 82.84,55.78 82.64,55.79 82.43,55.80 82.23,55.76 82.03,55.73 81.84,55.64 81.66,55.56 81.49,55.43 81.33,55.30 81.21,55.14 81.08,54.98 81.00,54.79 80.91,54.60 80.88,54.40 80.84,54.20 80.85,54.00 80.86,53.79 80.93,53.59 80.99,53.40 83.86,51.02 86.73,48.64 90.15,45.94 93.57,43.25 98.59,39.86 103.60,36.47 106.96,34.27 110.31,32.06 114.68,29.50 119.04,26.94 121.31,25.73 123.58,24.52 124.46,24.24 125.34,23.96 125.52,23.89 125.70,23.82 125.89,23.80 126.08,23.77 126.27,23.79 126.46,23.81 126.64,23.88 126.82,23.95 126.98,24.06 127.14,24.16 127.27,24.31 127.40,24.45 127.49,24.62 127.58,24.79 127.63,24.98 127.68,25.16 127.68,25.36 127.68,25.55 127.64,25.73 127.59,25.92 127.50,26.09 127.42,26.26 127.29,26.41 127.16,26.55 127.00,26.67 126.85,26.78 126.47,29.84 126.09,32.90 124.37,37.46 122.66,42.01 120.81,46.31 118.97,50.61 117.41,54.41 115.85,58.21 115.86,59.27 115.87,60.34 115.78,60.51 115.69,60.67 115.56,60.81 115.43,60.95 115.27,61.06 115.11,61.16 114.93,61.22 114.75,61.28 114.56,61.30 114.37,61.32 114.18,61.29 114.00,61.27 113.82,61.19 113.64,61.12 113.49,61.01 113.34,60.90 113.21,60.75 113.09,60.60 113.01,60.43 112.92,60.26 112.88,60.08 112.84,59.89 112.85,59.70 112.85,59.51 112.90,59.33 112.95,59.14 113.94,58.25 114.93,57.36 116.42,55.88 117.91,54.40 119.50,52.95 121.10,51.49 123.97,49.45 126.84,47.40 128.34,46.61 129.83,45.83 131.02,46.22 132.20,46.62 132.80,48.00 133.41,49.38 133.05,51.50 132.68,53.63 131.91,55.73 131.15,57.82 131.36,58.79 131.58,59.75 131.54,60.00 131.49,60.24 131.39,60.47 131.28,60.70 131.13,60.90 130.97,61.09 130.77,61.25 130.58,61.40 130.35,61.50 130.12,61.61 129.87,61.65 129.63,61.69 129.38,61.68 129.13,61.66 128.89,61.59 128.65,61.51 128.43,61.38 128.22,61.25 128.04,61.07 127.87,60.90 127.74,60.68 127.61,60.47 127.53,60.23 127.46,59.99 127.45,59.74 127.43,59.49 128.56,58.41 129.69,57.33 131.24,56.17 132.80,55.01 134.42,55.54 136.04,56.07 134.97,57.02 133.90,57.96 134.21,57.95 134.52,57.94 134.82,58.00 135.12,58.06 135.40,58.19 135.68,58.32 135.92,58.52 136.16,58.71 136.34,58.96 136.53,59.21 136.65,59.49 136.77,59.77 136.82,60.08 136.87,60.38 136.84,60.69 136.82,61.00 136.72,61.29 136.62,61.58 136.46,61.84 136.30,62.11 136.07,62.32 135.85,62.53 135.58,62.69 135.32,62.84 135.02,62.93 134.72,63.01 135.73,62.17 136.73,61.33 136.53,61.69 136.33,62.06 136.03,62.34 135.73,62.62 135.35,62.79 134.97,62.96 134.56,63.00 134.15,63.04 133.74,62.95 133.34,62.86 132.99,62.64 132.63,62.42 132.37,62.10 132.11,61.78 131.96,61.40 131.81,61.01 131.79,60.60 131.77,60.18 131.89,59.79 132.00,59.39 132.24,59.05 132.47,58.71 132.80,58.46 133.14,58.21 133.53,58.09 133.92,57.96 134.34,57.96 134.75,57.97 135.14,58.10 135.53,58.24 135.86,58.49 136.19,58.75 136.42,59.09 136.65,59.44 136.75,59.84 136.86,60.24 136.83,60.65 136.81,61.07 136.65,61.45 136.49,61.83 136.22,62.14 135.95,62.46 135.59,62.67 135.23,62.88 134.83,62.96 134.42,63.05 134.01,63.00 133.60,62.95 133.23,62.77 132.85,62.59 132.56,62.30 132.26,62.02 132.07,61.65 131.88,61.28 131.82,60.87 131.75,60.46 132.83,59.21 133.90,57.96 134.21,57.95 134.52,57.94 134.82,58.00 135.12,58.06 135.40,58.19 135.68,58.32 135.92,58.52 136.16,58.71 136.34,58.96 136.53,59.21 136.65,59.49 136.77,59.77 136.82,60.08 136.87,60.38 136.84,60.69 136.82,61.00 136.72,61.29 136.62,61.58 136.46,61.84 136.30,62.11 136.07,62.32 135.85,62.53 135.58,62.69 135.32,62.84 135.02,62.93 134.72,63.01 133.52,60.71 132.31,58.40 133.26,58.97 134.20,59.54 132.89,59.65 131.58,59.75 131.54,60.00 131.49,60.24 131.39,60.47 131.28,60.70 131.13,60.90 130.97,61.09 130.77,61.25 130.58,61.40 130.35,61.50 130.12,61.61 129.87,61.65 129.63,61.69 129.38,61.68 129.13,61.66 128.89,61.59 128.65,61.51 128.43,61.38 128.22,61.25 128.04,61.07 127.87,60.90 127.74,60.68 127.61,60.47 127.53,60.23 127.46,59.99 127.45,59.74 127.43,59.49 127.39,59.20 127.36,58.91 127.54,57.83 127.73,56.74 128.27,54.79 128.82,52.84 128.65,51.27 128.48,49.70 125.78,51.66 123.08,53.62 121.57,55.06 120.06,56.50 117.97,58.42 115.87,60.34 115.78,60.51 115.69,60.67 115.56,60.81 115.43,60.95 115.27,61.06 115.11,61.16 114.93,61.22 114.75,61.28 114.56,61.30 114.37,61.32 114.18,61.29 114.00,61.27 113.82,61.19 113.64,61.12 113.49,61.01 113.34,60.90 113.21,60.75 113.09,60.61 113.01,60.43 112.92,60.26 112.88,60.08 112.84,59.89 112.85,59.70 112.85,59.51 112.90,59.33 112.95,59.14 113.17,58.19 113.39,57.23 114.96,53.40 116.53,49.57 118.35,45.32 120.17,41.07 121.82,36.74 123.46,32.42 124.40,28.19 125.34,23.96 125.52,23.89 125.70,23.82 125.89,23.80 126.08,23.77 126.27,23.79 126.46,23.81 126.64,23.88 126.82,23.95 126.98,24.06 127.14,24.16 127.27,24.31 127.40,24.45 127.49,24.62 127.58,24.79 127.63,24.98 127.68,25.16 127.68,25.35 127.68,25.55 127.64,25.73 127.59,25.92 127.50,26.09 127.42,26.26 127.29,26.41 127.16,26.55 127.01,26.67 126.85,26.78 125.83,26.84 124.81,26.91 122.62,28.09 120.42,29.28 116.12,31.81 111.83,34.35 108.50,36.56 105.17,38.78 100.26,42.13 95.34,45.48 91.99,48.18 88.63,50.88 86.36,52.84 84.09,54.80 83.99,54.98 83.88,55.15 83.73,55.30 83.59,55.44 83.41,55.55 83.24,55.65 83.04,55.71 82.84,55.78 82.64,55.79 82.43,55.80 82.23,55.76 82.03,55.73 81.84,55.64 81.66,55.56 81.49,55.43 81.33,55.30 81.21,55.14 81.08,54.98 81.00,54.79 80.91,54.60 80.88,54.40 80.84,54.20 80.85,54.00 80.86,53.79 80.92,53.59 80.99,53.40 81.21,52.92 81.43,52.44 82.24,50.81 83.04,49.18 84.48,46.55 85.92,43.92 87.85,40.67 89.77,37.41 92.20,33.32 94.62,29.22 96.79,25.23 98.96,21.25 100.88,18.76 102.79,16.27 101.85,16.78 100.90,17.28 98.50,18.79 96.11,20.30 91.64,23.20 87.17,26.10 79.30,31.47 71.43,36.83 64.43,42.43 57.43,48.04 51.16,53.66 44.90,59.29 41.91,61.90 38.92,64.52 38.79,64.65 38.65,64.79 38.49,64.89 38.33,64.99 38.15,65.05 37.97,65.10 37.78,65.12 37.59,65.13 37.40,65.10 37.22,65.07 37.04,64.99 36.87,64.91 36.72,64.80 36.57,64.68 36.45,64.53 36.33,64.39 36.25,64.21 36.17,64.04 36.13,63.85 36.10,63.67 36.11,63.48 36.12,63.29 36.17,63.11 36.23,62.92 36.32,62.76 36.42,62.60 37.13,61.89 37.83,61.19 39.63,58.84 41.44,56.49 45.44,50.92 49.45,45.36 54.38,38.43 59.32,31.49 65.39,22.30 71.45,13.10 73.64,8.12 75.83,3.15 76.02,3.09 76.20,3.04 76.39,3.03 76.58,3.02 76.77,3.05 76.96,3.09 77.14,3.17 77.31,3.25 77.46,3.37 77.61,3.49 77.73,3.64 77.85,3.80 77.92,3.97 78.00,4.15 78.03,4.34 78.07,4.53 78.05,4.72 78.04,4.91 77.98,5.09 77.92,5.28 77.82,5.44 77.72,5.60 77.58,5.74 77.45,5.87 77.28,5.97 77.12,6.07 76.00,6.20 74.88,6.33 72.40,7.43 69.91,8.52 65.91,10.44 61.91,12.37 58.58,14.31 55.25,16.26 50.72,19.12 46.18,21.99 41.87,25.24 37.57,28.48 34.21,31.46 30.85,34.45 27.16,38.03 23.48,41.62 23.35,41.77 23.23,41.91 23.08,42.02 22.93,42.14 22.76,42.21 22.58,42.28 22.39,42.31 22.21,42.34 22.02,42.32 21.83,42.31 21.65,42.25 21.47,42.18 21.31,42.08 21.15,41.98 21.02,41.84 20.89,41.70 20.80,41.54 20.71,41.38 20.66,41.19 20.60,41.01 20.60,40.82 20.59,40.63 20.63,40.45 20.67,40.26 20.75,40.09 20.84,39.92 21.58,38.82 22.32,37.72 23.84,35.35 25.36,32.99 27.46,29.82 29.55,26.65 31.47,23.51 33.39,20.37 35.00,17.24 36.62,14.11 37.41,10.89 38.20,7.67 38.39,7.62 38.59,7.57 38.79,7.57 38.98,7.57 39.18,7.62 39.37,7.67 39.54,7.76 39.72,7.85 39.87,7.98 40.01,8.11 40.13,8.28 40.24,8.44 40.31,8.63 40.38,8.81 40.40,9.01 40.43,9.20 40.40,9.40 40.38,9.60 40.31,9.78 40.24,9.97 40.13,10.13 40.01,10.29 39.87,10.42 39.72,10.56 39.54,10.65 39.37,10.74 38.31,10.84 37.25,10.94 34.95,11.82 32.66,12.70 29.19,14.57 25.72,16.44 21.38,18.98 17.04,21.51 13.17,24.38 9.29,27.24 6.44,29.78 3.58,32.31 1.69,34.58 -0.20,36.85 -1.17,38.10 -2.15,39.36 -2.32,39.49 -2.50,39.63 -2.70,39.72 -2.90,39.82 -3.12,39.86 -3.34,39.90 -3.56,39.88 -3.79,39.87 -4.00,39.80 -4.21,39.74 -4.40,39.62 -4.60,39.51 -4.75,39.35 -4.91,39.19 -5.03,39.00 -5.14,38.81 -5.21,38.60 -5.28,38.38 -5.29,38.16 -5.30,37.94 -5.26,37.72 -5.22,37.50 -5.13,37.30 -5.04,37.09 -4.90,36.92 -4.77,36.74 -4.41,36.63 -4.05,36.53 -3.13,35.76 -2.21,34.99 -0.55,33.40 1.10,31.81 3.66,29.19 6.22,26.58 8.83,24.15 11.45,21.72 13.01,19.78 14.57,17.83 15.82,15.33 17.07,12.83 16.92,11.23 16.77,9.62 15.58,9.70 14.39,9.78 11.88,10.43 9.38,11.08 5.63,12.64 1.87,14.21 -6.12,17.20 -14.12,20.20 -14.25,20.38 -14.38,20.57 -14.56,20.71 -14.73,20.86 -14.93,20.96 -15.14,21.06 -15.36,21.11 -15.58,21.16 -15.81,21.15 -16.04,21.15 -16.25,21.09 -16.47,21.03 -16.67,20.92 -16.87,20.81 -17.04,20.65 -17.20,20.50 -17.33,20.31 -17.45,20.12 -17.53,19.91 -17.60,19.69 -17.62,19.47 -17.65,19.24 -17.61,19.01 -17.58,18.79 -17.49,18.58 -17.41,18.37 -17.33,17.40 -17.24,16.44 -15.81,13.69 -14.37,10.94 -10.87,4.95 -7.37,-1.03 -7.22,-1.22 -7.07,-1.41 -6.88,-1.56 -6.69,-1.71 -6.47,-1.81 -6.25,-1.91 -6.01,-1.95 -5.77,-2.00 -5.53,-1.98 -5.29,-1.97 -5.06,-1.90 -4.83,-1.82 -4.62,-1.70 -4.42,-1.57 -4.25,-1.40 -4.07,-1.23 -3.95,-1.03 -3.82,-0.82 -3.75,-0.59 -3.68,-0.36 -3.66,-0.12 -3.65,0.11 -3.69,0.35 -3.74,0.59 -3.84,0.81 -3.93,1.03 -3.93,1.03 L -3.93,1.03 Z"></path></g><g transform="translate(503.88301744892624 82.54273831053342) rotate(0 20.5 10)"><text x="0" y="14" font-family="Virgil, Segoe UI Emoji" font-size="16px" fill="#000000" text-anchor="start" style="white-space: pre;" direction="ltr">Video</text></g><g stroke-linecap="round" transform="translate(122.29975260690662 67.21978470233296) rotate(0 121.17839995443478 189.2868316330899)"><path d="M0 0 L242.36 0 L242.36 378.57 L0 378.57" stroke="none" stroke-width="0" fill="white"></path><path d="M0 0 C74.27 0, 148.53 0, 242.36 0 M0 0 C51.27 0, 102.55 0, 242.36 0 M242.36 0 C242.36 90.11, 242.36 180.21, 242.36 378.57 M242.36 0 C242.36 133.64, 242.36 267.29, 242.36 378.57 M242.36 378.57 C184.49 378.57, 126.63 378.57, 0 378.57 M242.36 378.57 C163.48 378.57, 84.59 378.57, 0 378.57 M0 378.57 C0 288.07, 0 197.56, 0 0 M0 378.57 C0 295.79, 0 213, 0 0" stroke="#000000" stroke-width="1" fill="none"></path></g><g stroke-linecap="round" transform="translate(122.44776133451296 67.19964714268633) rotate(0 121.07395448449802 65.19366779934501)"><path d="M0 0 L242.15 0 L242.15 130.39 L0 130.39" stroke="none" stroke-width="0" fill="white"></path><path d="M0 0 C82.3 0, 164.6 0, 242.15 0 M0 0 C82.3 0, 164.61 0, 242.15 0 M242.15 0 C242.15 27.65, 242.15 55.3, 242.15 130.39 M242.15 0 C242.15 34.58, 242.15 69.17, 242.15 130.39 M242.15 130.39 C169.57 130.39, 96.98 130.39, 0 130.39 M242.15 130.39 C174.46 130.39, 106.78 130.39, 0 130.39 M0 130.39 C0 79.37, 0 28.36, 0 0 M0 130.39 C0 95.28, 0 60.18, 0 0" stroke="#000000" stroke-width="1" fill="none"></path></g><g stroke-linecap="round"><g transform="translate(122.14838112463576 405.4429930852218) rotate(0 121.3937300410505 0.2986315622165989)"><path d="M0 0 C51.4 0.13, 102.79 0.25, 242.79 0.6 M0 0 C72.94 0.18, 145.88 0.36, 242.79 0.6" stroke="#000000" stroke-width="1" fill="none"></path></g></g><g transform="translate(316.74931485190746 411.4471653538362) rotate(0 23.5 5)"><text x="0" y="7" font-family="Virgil, Segoe UI Emoji" font-size="7.7653935184527265px" fill="#000000" text-anchor="start" style="white-space: pre;" direction="ltr">Starting at</text></g><g transform="translate(281.51079051034685 422.59379628028364) rotate(0 41 11)"><text x="0" y="15" font-family="Virgil, Segoe UI Emoji" font-size="17.462685202693713px" fill="#000000" text-anchor="start" style="white-space: pre;" direction="ltr">$ 100,00</text></g><g stroke-linecap="round" transform="translate(142.9338705298387 370.2083249958828) rotate(0 5.0909350627092635 10.309676026574294)"><path d="M6 0 L10.18 11 L6 20.62 L0 11" stroke="none" stroke-width="0" fill="#868e96" fill-rule="evenodd"></path><path d="M6 0 C7.2 3.16, 8.4 6.31, 10.18 11 M6 0 C7.4 3.69, 8.81 7.39, 10.18 11 M10.18 11 C9.2 13.26, 8.22 15.52, 6 20.62 M10.18 11 C8.95 13.84, 7.71 16.68, 6 20.62 M6 20.62 C4.78 18.67, 3.57 16.72, 0 11 M6 20.62 C4.22 17.76, 2.44 14.91, 0 11 M0 11 C1.67 7.94, 3.34 4.88, 6 0 M0 11 C1.48 8.29, 2.96 5.58, 6 0" stroke="#868e96" stroke-width="4" fill="none"></path></g><g stroke-linecap="round" transform="translate(135.84379980467338 373.9645557742713) rotate(307.9558463880039 5.0909350627092635 10.309676026574294)"><path d="M6 0 L10.18 11 L6 20.62 L0 11" stroke="none" stroke-width="0" fill="#868e96" fill-rule="evenodd"></path><path d="M6 0 C7.61 4.23, 9.22 8.47, 10.18 11 M6 0 C7.36 3.58, 8.72 7.17, 10.18 11 M10.18 11 C8.82 14.13, 7.46 17.26, 6 20.62 M10.18 11 C9.1 13.49, 8.02 15.98, 6 20.62 M6 20.62 C4.24 17.79, 2.47 14.97, 0 11 M6 20.62 C3.9 17.25, 1.79 13.87, 0 11 M0 11 C2.23 6.91, 4.46 2.83, 6 0 M0 11 C1.31 8.6, 2.62 6.2, 6 0" stroke="#868e96" stroke-width="4" fill="none"></path></g><g stroke-linecap="round" transform="translate(137.508905358608 383.73129274589417) rotate(225.81457704975955 5.0909350627092635 10.309676026574294)"><path d="M6 0 L10.18 11 L6 20.62 L0 11" stroke="none" stroke-width="0" fill="#868e96" fill-rule="evenodd"></path><path d="M6 0 C7.38 3.63, 8.76 7.26, 10.18 11 M6 0 C7.39 3.67, 8.79 7.33, 10.18 11 M10.18 11 C9.07 13.56, 7.95 16.13, 6 20.62 M10.18 11 C9.17 13.32, 8.16 15.64, 6 20.62 M6 20.62 C4.47 18.17, 2.95 15.72, 0 11 M6 20.62 C4.06 17.51, 2.12 14.39, 0 11 M0 11 C1.28 8.65, 2.57 6.29, 6 0 M0 11 C1.88 7.56, 3.75 4.12, 6 0" stroke="#868e96" stroke-width="4" fill="none"></path></g><g stroke-linecap="round" transform="translate(148.1739124772298 383.6886907788422) rotate(134.18542295024045 5.0909350627092635 10.309676026574294)"><path d="M6 0 L10.18 11 L6 20.62 L0 11" stroke="none" stroke-width="0" fill="#868e96" fill-rule="evenodd"></path><path d="M6 0 C7.33 3.49, 8.65 6.97, 10.18 11 M6 0 C7.14 2.99, 8.27 5.98, 10.18 11 M10.18 11 C9.31 13.02, 8.43 15.03, 6 20.62 M10.18 11 C8.75 14.3, 7.31 17.59, 6 20.62 M6 20.62 C4.01 17.43, 2.02 14.24, 0 11 M6 20.62 C4.13 17.62, 2.25 14.61, 0 11 M0 11 C2.33 6.72, 4.66 2.45, 6 0 M0 11 C1.99 7.35, 3.98 3.7, 6 0" stroke="#868e96" stroke-width="4" fill="none"></path></g><g stroke-linecap="round" transform="translate(149.45560032769663 373.62374003785555) rotate(52.04415361199611 5.0909350627092635 10.309676026574294)"><path d="M6 0 L10.18 11 L6 20.62 L0 11" stroke="none" stroke-width="0" fill="#868e96" fill-rule="evenodd"></path><path d="M6 0 C7.44 3.8, 8.89 7.6, 10.18 11 M6 0 C7.16 3.06, 8.32 6.11, 10.18 11 M10.18 11 C8.8 14.18, 7.42 17.36, 6 20.62 M10.18 11 C8.87 14.02, 7.56 17.03, 6 20.62 M6 20.62 C4.09 17.55, 2.17 14.48, 0 11 M6 20.62 C3.65 16.86, 1.31 13.09, 0 11 M0 11 C1.5 8.26, 2.99 5.52, 6 0 M0 11 C1.7 7.88, 3.4 4.76, 6 0" stroke="#868e96" stroke-width="4" fill="none"></path></g><g transform="translate(178.7920331168002 380.6049700464865) rotate(0 13.5 10)"><text x="0" y="14" font-family="Virgil, Segoe UI Emoji" font-size="16px" fill="#000000" text-anchor="start" style="white-space: pre;" direction="ltr">3.5</text></g><g transform="translate(222.11360874315278 380.6049700464865) rotate(0 14 10)"><text x="0" y="14" font-family="Virgil, Segoe UI Emoji" font-size="16px" fill="#000000" text-anchor="start" style="white-space: pre;" direction="ltr">(15)</text></g><g transform="translate(183.6727928573191 105.39016573487538) rotate(0 58.1972796165594 32.745963970282304)" stroke="none"><path fill="#000000" d="M -3.93,1.03 Q -3.93,1.03 -7.60,6.93 -11.26,12.82 -12.75,15.35 -14.25,17.87 -14.18,19.04 -14.12,20.20 -14.25,20.38 -14.38,20.57 -14.56,20.71 -14.73,20.86 -14.93,20.96 -15.14,21.06 -15.36,21.11 -15.58,21.16 -15.81,21.15 -16.04,21.15 -16.25,21.09 -16.47,21.03 -16.67,20.92 -16.87,20.81 -17.04,20.65 -17.20,20.50 -17.33,20.31 -17.45,20.12 -17.53,19.91 -17.60,19.69 -17.62,19.47 -17.65,19.24 -17.61,19.01 -17.58,18.79 -17.49,18.58 -17.41,18.37 -15.74,17.74 -14.06,17.11 -6.77,14.06 0.52,11.02 4.35,9.55 8.18,8.08 10.92,7.44 13.66,6.80 15.25,6.55 16.84,6.30 18.09,6.82 19.35,7.33 20.15,8.57 20.95,9.80 21.22,11.11 21.48,12.42 21.14,14.14 20.80,15.86 19.41,17.93 18.01,20.01 16.13,22.07 14.24,24.13 11.37,26.62 8.49,29.11 5.92,31.59 3.34,34.07 1.59,35.64 -0.15,37.22 -0.90,38.12 -1.66,39.03 -1.90,39.19 -2.15,39.36 -2.32,39.49 -2.50,39.63 -2.70,39.72 -2.90,39.82 -3.12,39.86 -3.34,39.90 -3.56,39.88 -3.79,39.87 -4.00,39.80 -4.21,39.74 -4.41,39.62 -4.60,39.51 -4.75,39.35 -4.91,39.19 -5.03,39.00 -5.14,38.81 -5.21,38.60 -5.28,38.38 -5.29,38.16 -5.30,37.94 -5.26,37.72 -5.22,37.50 -5.13,37.30 -5.04,37.09 -4.90,36.92 -4.77,36.74 -3.98,35.66 -3.19,34.59 -1.09,32.31 1.00,30.03 4.09,27.42 7.18,24.80 11.21,21.92 15.24,19.04 19.75,16.47 24.25,13.89 27.78,12.04 31.32,10.18 33.79,9.26 36.27,8.33 37.23,8.00 38.20,7.67 38.39,7.62 38.59,7.57 38.79,7.57 38.98,7.57 39.18,7.62 39.37,7.67 39.54,7.76 39.72,7.85 39.87,7.98 40.01,8.11 40.13,8.28 40.24,8.44 40.31,8.63 40.38,8.81 40.40,9.01 40.43,9.20 40.40,9.40 40.38,9.60 40.31,9.78 40.24,9.97 40.13,10.13 40.01,10.29 39.87,10.42 39.72,10.56 39.54,10.65 39.37,10.74 39.34,12.66 39.32,14.59 37.56,18.09 35.81,21.60 33.83,24.83 31.85,28.06 29.72,31.26 27.59,34.47 26.07,36.81 24.56,39.16 24.02,40.39 23.48,41.62 23.35,41.77 23.23,41.91 23.08,42.02 22.93,42.14 22.76,42.21 22.58,42.28 22.39,42.31 22.21,42.34 22.02,42.32 21.83,42.31 21.65,42.25 21.47,42.18 21.31,42.08 21.15,41.98 21.02,41.84 20.89,41.70 20.80,41.54 20.71,41.38 20.66,41.19 20.60,41.01 20.60,40.82 20.59,40.63 20.63,40.45 20.67,40.26 20.75,40.09 20.84,39.92 24.81,36.09 28.78,32.26 32.22,29.28 35.66,26.30 40.07,23.01 44.48,19.73 49.13,16.82 53.78,13.91 57.16,11.96 60.53,10.00 64.64,8.04 68.75,6.09 71.28,4.98 73.81,3.87 74.82,3.51 75.83,3.15 76.02,3.09 76.20,3.04 76.39,3.03 76.58,3.02 76.77,3.05 76.96,3.09 77.14,3.17 77.31,3.25 77.46,3.37 77.61,3.49 77.73,3.64 77.85,3.80 77.92,3.97 78.00,4.15 78.03,4.34 78.07,4.53 78.05,4.72 78.04,4.91 77.98,5.09 77.92,5.28 77.82,5.44 77.72,5.60 77.58,5.74 77.45,5.87 77.28,5.97 77.12,6.07 75.51,10.11 73.91,14.14 67.72,23.55 61.54,32.95 56.57,39.93 51.60,46.90 47.59,52.46 43.58,58.03 41.75,60.41 39.92,62.79 39.42,63.65 38.92,64.52 38.79,64.65 38.65,64.79 38.49,64.89 38.33,64.99 38.15,65.05 37.97,65.10 37.78,65.12 37.59,65.13 37.40,65.10 37.22,65.07 37.04,64.99 36.87,64.91 36.72,64.80 36.57,64.68 36.45,64.53 36.33,64.39 36.25,64.21 36.17,64.04 36.13,63.85 36.10,63.67 36.11,63.48 36.12,63.29 36.17,63.11 36.23,62.92 36.32,62.76 36.42,62.60 37.65,61.75 38.87,60.91 40.84,59.02 42.81,57.14 49.15,51.50 55.50,45.87 62.59,40.25 69.67,34.62 77.64,29.22 85.61,23.81 90.12,20.91 94.62,18.01 97.04,16.50 99.47,14.99 100.91,14.21 102.34,13.44 103.65,14.66 104.95,15.89 103.44,19.21 101.93,22.54 99.62,26.63 97.31,30.71 94.80,34.82 92.30,38.93 90.34,42.16 88.38,45.39 86.93,47.96 85.49,50.54 84.85,52.11 84.21,53.69 84.15,54.25 84.09,54.80 83.99,54.98 83.88,55.15 83.73,55.30 83.59,55.44 83.41,55.55 83.24,55.65 83.04,55.71 82.84,55.78 82.64,55.79 82.43,55.80 82.23,55.76 82.03,55.73 81.84,55.64 81.66,55.56 81.49,55.43 81.33,55.30 81.21,55.14 81.08,54.98 81.00,54.79 80.91,54.60 80.88,54.40 80.84,54.20 80.85,54.00 80.86,53.79 80.93,53.59 80.99,53.40 83.86,51.02 86.73,48.64 90.15,45.94 93.57,43.25 98.59,39.86 103.60,36.47 106.96,34.27 110.31,32.06 114.68,29.50 119.04,26.94 121.31,25.73 123.58,24.52 124.46,24.24 125.34,23.96 125.52,23.89 125.70,23.82 125.89,23.80 126.08,23.77 126.27,23.79 126.46,23.81 126.64,23.88 126.82,23.95 126.98,24.06 127.14,24.16 127.27,24.31 127.40,24.45 127.49,24.62 127.58,24.79 127.63,24.98 127.68,25.16 127.68,25.36 127.68,25.55 127.64,25.73 127.59,25.92 127.50,26.09 127.42,26.26 127.29,26.41 127.16,26.55 127.00,26.67 126.85,26.78 126.47,29.84 126.09,32.90 124.37,37.46 122.66,42.01 120.81,46.31 118.97,50.61 117.41,54.41 115.85,58.21 115.86,59.27 115.87,60.34 115.78,60.51 115.69,60.67 115.56,60.81 115.43,60.95 115.27,61.06 115.11,61.16 114.93,61.22 114.75,61.28 114.56,61.30 114.37,61.32 114.18,61.29 114.00,61.27 113.82,61.19 113.64,61.12 113.49,61.01 113.34,60.90 113.21,60.75 113.09,60.60 113.01,60.43 112.92,60.26 112.88,60.08 112.84,59.89 112.85,59.70 112.85,59.51 112.90,59.33 112.95,59.14 113.94,58.25 114.93,57.36 116.42,55.88 117.91,54.40 119.50,52.95 121.10,51.49 123.97,49.45 126.84,47.40 128.34,46.61 129.83,45.83 131.02,46.22 132.20,46.62 132.80,48.00 133.41,49.38 133.05,51.50 132.68,53.63 131.91,55.73 131.15,57.82 131.36,58.79 131.58,59.75 131.54,60.00 131.49,60.24 131.39,60.47 131.28,60.70 131.13,60.90 130.97,61.09 130.77,61.25 130.58,61.40 130.35,61.50 130.12,61.61 129.87,61.65 129.63,61.69 129.38,61.68 129.13,61.66 128.89,61.59 128.65,61.51 128.43,61.38 128.22,61.25 128.04,61.07 127.87,60.90 127.74,60.68 127.61,60.47 127.53,60.23 127.46,59.99 127.45,59.74 127.43,59.49 128.56,58.41 129.69,57.33 131.24,56.17 132.80,55.01 134.42,55.54 136.04,56.07 134.97,57.02 133.90,57.96 134.21,57.95 134.52,57.94 134.82,58.00 135.12,58.06 135.40,58.19 135.68,58.32 135.92,58.52 136.16,58.71 136.34,58.96 136.53,59.21 136.65,59.49 136.77,59.77 136.82,60.08 136.87,60.38 136.84,60.69 136.82,61.00 136.72,61.29 136.62,61.58 136.46,61.84 136.30,62.11 136.07,62.32 135.85,62.53 135.58,62.69 135.32,62.84 135.02,62.93 134.72,63.01 135.73,62.17 136.73,61.33 136.53,61.69 136.33,62.06 136.03,62.34 135.73,62.62 135.35,62.79 134.97,62.96 134.56,63.00 134.15,63.04 133.74,62.95 133.34,62.86 132.99,62.64 132.63,62.42 132.37,62.10 132.11,61.78 131.96,61.40 131.81,61.01 131.79,60.60 131.77,60.18 131.89,59.79 132.00,59.39 132.24,59.05 132.47,58.71 132.80,58.46 133.14,58.21 133.53,58.09 133.92,57.96 134.34,57.96 134.75,57.97 135.14,58.10 135.53,58.24 135.86,58.49 136.19,58.75 136.42,59.09 136.65,59.44 136.75,59.84 136.86,60.24 136.83,60.65 136.81,61.07 136.65,61.45 136.49,61.83 136.22,62.14 135.95,62.46 135.59,62.67 135.23,62.88 134.83,62.96 134.42,63.05 134.01,63.00 133.60,62.95 133.23,62.77 132.85,62.59 132.56,62.30 132.26,62.02 132.07,61.65 131.88,61.28 131.82,60.87 131.75,60.46 132.83,59.21 133.90,57.96 134.21,57.95 134.52,57.94 134.82,58.00 135.12,58.06 135.40,58.19 135.68,58.32 135.92,58.52 136.16,58.71 136.34,58.96 136.53,59.21 136.65,59.49 136.77,59.77 136.82,60.08 136.87,60.38 136.84,60.69 136.82,61.00 136.72,61.29 136.62,61.58 136.46,61.84 136.30,62.11 136.07,62.32 135.85,62.53 135.58,62.69 135.32,62.84 135.02,62.93 134.72,63.01 133.52,60.71 132.31,58.40 133.26,58.97 134.20,59.54 132.89,59.65 131.58,59.75 131.54,60.00 131.49,60.24 131.39,60.47 131.28,60.70 131.13,60.90 130.97,61.09 130.77,61.25 130.58,61.40 130.35,61.50 130.12,61.61 129.87,61.65 129.63,61.69 129.38,61.68 129.13,61.66 128.89,61.59 128.65,61.51 128.43,61.38 128.22,61.25 128.04,61.07 127.87,60.90 127.74,60.68 127.61,60.47 127.53,60.23 127.46,59.99 127.45,59.74 127.43,59.49 127.39,59.20 127.36,58.91 127.54,57.83 127.73,56.74 128.27,54.79 128.82,52.84 128.65,51.27 128.48,49.70 125.78,51.66 123.08,53.62 121.57,55.06 120.06,56.50 117.97,58.42 115.87,60.34 115.78,60.51 115.69,60.67 115.56,60.81 115.43,60.95 115.27,61.06 115.11,61.16 114.93,61.22 114.75,61.28 114.56,61.30 114.37,61.32 114.18,61.29 114.00,61.27 113.82,61.19 113.64,61.12 113.49,61.01 113.34,60.90 113.21,60.75 113.09,60.61 113.01,60.43 112.92,60.26 112.88,60.08 112.84,59.89 112.85,59.70 112.85,59.51 112.90,59.33 112.95,59.14 113.17,58.19 113.39,57.23 114.96,53.40 116.53,49.57 118.35,45.32 120.17,41.07 121.82,36.74 123.46,32.42 124.40,28.19 125.34,23.96 125.52,23.89 125.70,23.82 125.89,23.80 126.08,23.77 126.27,23.79 126.46,23.81 126.64,23.88 126.82,23.95 126.98,24.06 127.14,24.16 127.27,24.31 127.40,24.45 127.49,24.62 127.58,24.79 127.63,24.98 127.68,25.16 127.68,25.35 127.68,25.55 127.64,25.73 127.59,25.92 127.50,26.09 127.42,26.26 127.29,26.41 127.16,26.55 127.01,26.67 126.85,26.78 125.83,26.84 124.81,26.91 122.62,28.09 120.42,29.28 116.12,31.81 111.83,34.35 108.50,36.56 105.17,38.78 100.26,42.13 95.34,45.48 91.99,48.18 88.63,50.88 86.36,52.84 84.09,54.80 83.99,54.98 83.88,55.15 83.73,55.30 83.59,55.44 83.41,55.55 83.24,55.65 83.04,55.71 82.84,55.78 82.64,55.79 82.43,55.80 82.23,55.76 82.03,55.73 81.84,55.64 81.66,55.56 81.49,55.43 81.33,55.30 81.21,55.14 81.08,54.98 81.00,54.79 80.91,54.60 80.88,54.40 80.84,54.20 80.85,54.00 80.86,53.79 80.92,53.59 80.99,53.40 81.21,52.92 81.43,52.44 82.24,50.81 83.04,49.18 84.48,46.55 85.92,43.92 87.85,40.67 89.77,37.41 92.20,33.32 94.62,29.22 96.79,25.23 98.96,21.25 100.88,18.76 102.79,16.27 101.85,16.78 100.90,17.28 98.50,18.79 96.11,20.30 91.64,23.20 87.17,26.10 79.30,31.47 71.43,36.83 64.43,42.43 57.43,48.04 51.16,53.66 44.90,59.29 41.91,61.90 38.92,64.52 38.79,64.65 38.65,64.79 38.49,64.89 38.33,64.99 38.15,65.05 37.97,65.10 37.78,65.12 37.59,65.13 37.40,65.10 37.22,65.07 37.04,64.99 36.87,64.91 36.72,64.80 36.57,64.68 36.45,64.53 36.33,64.39 36.25,64.21 36.17,64.04 36.13,63.85 36.10,63.67 36.11,63.48 36.12,63.29 36.17,63.11 36.23,62.92 36.32,62.76 36.42,62.60 37.13,61.89 37.83,61.19 39.63,58.84 41.44,56.49 45.44,50.92 49.45,45.36 54.38,38.43 59.32,31.49 65.39,22.30 71.45,13.10 73.64,8.12 75.83,3.15 76.02,3.09 76.20,3.04 76.39,3.03 76.58,3.02 76.77,3.05 76.96,3.09 77.14,3.17 77.31,3.25 77.46,3.37 77.61,3.49 77.73,3.64 77.85,3.80 77.92,3.97 78.00,4.15 78.03,4.34 78.07,4.53 78.05,4.72 78.04,4.91 77.98,5.09 77.92,5.28 77.82,5.44 77.72,5.60 77.58,5.74 77.45,5.87 77.28,5.97 77.12,6.07 76.00,6.20 74.88,6.33 72.40,7.43 69.91,8.52 65.91,10.44 61.91,12.37 58.58,14.31 55.25,16.26 50.72,19.12 46.18,21.99 41.87,25.24 37.57,28.48 34.21,31.46 30.85,34.45 27.16,38.03 23.48,41.62 23.35,41.77 23.23,41.91 23.08,42.02 22.93,42.14 22.76,42.21 22.58,42.28 22.39,42.31 22.21,42.34 22.02,42.32 21.83,42.31 21.65,42.25 21.47,42.18 21.31,42.08 21.15,41.98 21.02,41.84 20.89,41.70 20.80,41.54 20.71,41.38 20.66,41.19 20.60,41.01 20.60,40.82 20.59,40.63 20.63,40.45 20.67,40.26 20.75,40.09 20.84,39.92 21.58,38.82 22.32,37.72 23.84,35.35 25.36,32.99 27.46,29.82 29.55,26.65 31.47,23.51 33.39,20.37 35.00,17.24 36.62,14.11 37.41,10.89 38.20,7.67 38.39,7.62 38.59,7.57 38.79,7.57 38.98,7.57 39.18,7.62 39.37,7.67 39.54,7.76 39.72,7.85 39.87,7.98 40.01,8.11 40.13,8.28 40.24,8.44 40.31,8.63 40.38,8.81 40.40,9.01 40.43,9.20 40.40,9.40 40.38,9.60 40.31,9.78 40.24,9.97 40.13,10.13 40.01,10.29 39.87,10.42 39.72,10.56 39.54,10.65 39.37,10.74 38.31,10.84 37.25,10.94 34.95,11.82 32.66,12.70 29.19,14.57 25.72,16.44 21.38,18.98 17.04,21.51 13.17,24.38 9.29,27.24 6.44,29.78 3.58,32.31 1.69,34.58 -0.20,36.85 -1.17,38.10 -2.15,39.36 -2.32,39.49 -2.50,39.63 -2.70,39.72 -2.90,39.82 -3.12,39.86 -3.34,39.90 -3.56,39.88 -3.79,39.87 -4.00,39.80 -4.21,39.74 -4.40,39.62 -4.60,39.51 -4.75,39.35 -4.91,39.19 -5.03,39.00 -5.14,38.81 -5.21,38.60 -5.28,38.38 -5.29,38.16 -5.30,37.94 -5.26,37.72 -5.22,37.50 -5.13,37.30 -5.04,37.09 -4.90,36.92 -4.77,36.74 -4.41,36.63 -4.05,36.53 -3.13,35.76 -2.21,34.99 -0.55,33.40 1.10,31.81 3.66,29.19 6.22,26.58 8.83,24.15 11.45,21.72 13.01,19.78 14.57,17.83 15.82,15.33 17.07,12.83 16.92,11.23 16.77,9.62 15.58,9.70 14.39,9.78 11.88,10.43 9.38,11.08 5.63,12.64 1.87,14.21 -6.12,17.20 -14.12,20.20 -14.25,20.38 -14.38,20.57 -14.56,20.71 -14.73,20.86 -14.93,20.96 -15.14,21.06 -15.36,21.11 -15.58,21.16 -15.81,21.15 -16.04,21.15 -16.25,21.09 -16.47,21.03 -16.67,20.92 -16.87,20.81 -17.04,20.65 -17.20,20.50 -17.33,20.31 -17.45,20.12 -17.53,19.91 -17.60,19.69 -17.62,19.47 -17.65,19.24 -17.61,19.01 -17.58,18.79 -17.49,18.58 -17.41,18.37 -17.33,17.40 -17.24,16.44 -15.81,13.69 -14.37,10.94 -10.87,4.95 -7.37,-1.03 -7.22,-1.22 -7.07,-1.41 -6.88,-1.56 -6.69,-1.71 -6.47,-1.81 -6.25,-1.91 -6.01,-1.95 -5.77,-2.00 -5.53,-1.98 -5.29,-1.97 -5.06,-1.90 -4.83,-1.82 -4.62,-1.70 -4.42,-1.57 -4.25,-1.40 -4.07,-1.23 -3.95,-1.03 -3.82,-0.82 -3.75,-0.59 -3.68,-0.36 -3.66,-0.12 -3.65,0.11 -3.69,0.35 -3.74,0.59 -3.84,0.81 -3.93,1.03 -3.93,1.03 L -3.93,1.03 Z"></path></g><g stroke-linecap="round" transform="translate(128.4143990364464 200.529576032774) rotate(0 19.475291493582745 17.515513733222235)"><path d="M38.95 17.52 C38.95 18.53, 38.85 19.56, 38.65 20.56 C38.46 21.56, 38.16 22.55, 37.78 23.51 C37.39 24.46, 36.91 25.4, 36.34 26.27 C35.78 27.15, 35.12 28, 34.39 28.77 C33.67 29.55, 32.86 30.28, 31.99 30.93 C31.13 31.58, 30.19 32.18, 29.21 32.68 C28.24 33.19, 27.2 33.63, 26.14 33.97 C25.08 34.32, 23.97 34.59, 22.86 34.76 C21.75 34.94, 20.6 35.03, 19.48 35.03 C18.35 35.03, 17.2 34.94, 16.09 34.76 C14.98 34.59, 13.87 34.32, 12.81 33.97 C11.76 33.63, 10.71 33.19, 9.74 32.68 C8.76 32.18, 7.82 31.58, 6.96 30.93 C6.09 30.28, 5.28 29.55, 4.56 28.77 C3.83 28, 3.17 27.15, 2.61 26.27 C2.05 25.4, 1.56 24.46, 1.17 23.51 C0.79 22.55, 0.49 21.56, 0.3 20.56 C0.1 19.56, 0 18.53, 0 17.52 C0 16.5, 0.1 15.47, 0.3 14.47 C0.49 13.48, 0.79 12.48, 1.17 11.52 C1.56 10.57, 2.05 9.64, 2.61 8.76 C3.17 7.88, 3.83 7.03, 4.56 6.26 C5.28 5.48, 6.09 4.75, 6.96 4.1 C7.82 3.45, 8.76 2.85, 9.74 2.35 C10.71 1.84, 11.76 1.4, 12.81 1.06 C13.87 0.71, 14.98 0.44, 16.09 0.27 C17.2 0.09, 18.35 0, 19.48 0 C20.6 0, 21.75 0.09, 22.86 0.27 C23.97 0.44, 25.08 0.71, 26.14 1.06 C27.2 1.4, 28.24 1.84, 29.21 2.35 C30.19 2.85, 31.13 3.45, 31.99 4.1 C32.86 4.75, 33.67 5.48, 34.39 6.26 C35.12 7.03, 35.78 7.88, 36.34 8.76 C36.91 9.64, 37.39 10.57, 37.78 11.52 C38.16 12.48, 38.46 13.48, 38.65 14.47 C38.85 15.47, 38.9 17.01, 38.95 17.52 C39 18.02, 39 17.01, 38.95 17.52" stroke="none" stroke-width="0" fill="#868e96"></path><path d="M38.95 17.52 C38.95 18.53, 38.85 19.56, 38.65 20.56 C38.46 21.56, 38.16 22.55, 37.78 23.51 C37.39 24.46, 36.91 25.4, 36.34 26.27 C35.78 27.15, 35.12 28, 34.39 28.77 C33.67 29.55, 32.86 30.28, 31.99 30.93 C31.13 31.58, 30.19 32.18, 29.21 32.68 C28.24 33.19, 27.2 33.63, 26.14 33.97 C25.08 34.32, 23.97 34.59, 22.86 34.76 C21.75 34.94, 20.6 35.03, 19.48 35.03 C18.35 35.03, 17.2 34.94, 16.09 34.76 C14.98 34.59, 13.87 34.32, 12.81 33.97 C11.76 33.63, 10.71 33.19, 9.74 32.68 C8.76 32.18, 7.82 31.58, 6.96 30.93 C6.09 30.28, 5.28 29.55, 4.56 28.77 C3.83 28, 3.17 27.15, 2.61 26.27 C2.05 25.4, 1.56 24.46, 1.17 23.51 C0.79 22.55, 0.49 21.56, 0.3 20.56 C0.1 19.56, 0 18.53, 0 17.52 C0 16.5, 0.1 15.47, 0.3 14.47 C0.49 13.48, 0.79 12.48, 1.17 11.52 C1.56 10.57, 2.05 9.64, 2.61 8.76 C3.17 7.88, 3.83 7.03, 4.56 6.26 C5.28 5.48, 6.09 4.75, 6.96 4.1 C7.82 3.45, 8.76 2.85, 9.74 2.35 C10.71 1.84, 11.76 1.4, 12.81 1.06 C13.87 0.71, 14.98 0.44, 16.09 0.27 C17.2 0.09, 18.35 0, 19.48 0 C20.6 0, 21.75 0.09, 22.86 0.27 C23.97 0.44, 25.08 0.71, 26.14 1.06 C27.2 1.4, 28.24 1.84, 29.21 2.35 C30.19 2.85, 31.13 3.45, 31.99 4.1 C32.86 4.75, 33.67 5.48, 34.39 6.26 C35.12 7.03, 35.78 7.88, 36.34 8.76 C36.91 9.64, 37.39 10.57, 37.78 11.52 C38.16 12.48, 38.46 13.48, 38.65 14.47 C38.85 15.47, 38.9 17.01, 38.95 17.52 C39 18.02, 39 17.01, 38.95 17.52" stroke="#000000" stroke-width="1" fill="none"></path></g><g transform="translate(180.34850968599994 207.0030481352528) rotate(0 36 10)"><text x="0" y="14" font-family="Virgil, Segoe UI Emoji" font-size="16px" fill="#000000" text-anchor="start" style="white-space: pre;" direction="ltr">username</text></g><g transform="translate(134.69888442883757 279.61975346861186) rotate(0 57 20)"><text x="0" y="14" font-family="Virgil, Segoe UI Emoji" font-size="16px" fill="#000000" text-anchor="start" style="white-space: pre;" direction="ltr">10k followers</text><text x="0" y="34" font-family="Virgil, Segoe UI Emoji" font-size="16px" fill="#000000" text-anchor="start" style="white-space: pre;" direction="ltr">4% engagment</text></g><g stroke-linecap="round" transform="translate(346.4629817163427 207.82578026154147) rotate(0 6.2267902717125025 5.856147993634664)"><path d="M-0.87 -0.83 C5.41 -2.32, 5.08 0.7, 10.36 2.46 M0 -0.73 C3.91 0.64, 7.19 0.27, 12.66 0.49 M11.97 -1.06 C14.81 3.11, 11.34 5.19, 11.54 9.97 M13.52 0.28 C12.6 3.62, 13 8.03, 11.92 11.69 M11.69 9.57 C8.56 14.1, 5.36 10.63, 0.46 11.33 M11.28 11.87 C8.6 11.9, 7.13 11.31, 0.51 12.56 M-0.19 13.8 C1.16 5.99, -1.6 4.05, 1.37 1.53 M-0.41 10.76 C0.36 8.29, 0.75 2.3, 0.55 -0.86" stroke="#000000" stroke-width="1" fill="none"></path></g><g stroke-linecap="round"><g transform="translate(346.4044040403078 219.31060240094575) rotate(0 7.202088558156106 -4.254022690033793)"><path d="M-0.94 2.78 C0.66 1.06, 7.87 -8.7, 10.31 -11.29 M3.75 1.83 C6.13 0.6, 13.9 -6.01, 15.34 -8.13" stroke="#000000" stroke-width="1" fill="none"></path></g></g><g stroke-linecap="round" transform="translate(347.45914473187713 233.78022562125943) rotate(0 6.2267902717125025 5.856147993634664)"><path d="M-0.77 0.77 C1.23 2.68, 6.52 -1.3, 11.43 -0.01 M-0.16 0.17 C3.21 0.39, 4.8 0.21, 12.38 -0.26 M11.28 0.45 C11.77 1.24, 12.61 4.54, 13.64 13.85 M13.15 1.07 C11.98 3.77, 12.26 6.63, 13.29 11.35 M12.29 10.45 C10.25 11.55, 5.79 14.04, -2.04 9.36 M13.27 11.51 C9.07 12.63, 5.21 11.28, -0.64 11.61 M-1.7 12.1 C1.27 8.69, 1.22 0.43, 0.5 -0.83 M0.54 10.66 C0.52 8.29, 0.52 6.44, 1.11 0.62" stroke="#000000" stroke-width="1" fill="none"></path></g><g stroke-linecap="round"><g transform="translate(347.4005670558422 245.2650477606635) rotate(0 6.746481321532428 -4.011713439611967)"><path d="M0.86 -2.35 C3.89 -3.97, 13.9 -9.03, 15.61 -10.56 M-2.12 2.54 C1.01 1.47, 11.68 -5.07, 14.87 -7.01" stroke="#000000" stroke-width="1" fill="none"></path></g></g><g transform="translate(130.7778869633703 326.8385599602757) rotate(0 92.5 20)"><text x="0" y="14" font-family="Virgil, Segoe UI Emoji" font-size="16px" fill="#000000" text-anchor="start" style="white-space: pre;" direction="ltr">#family #baby #mother</text><text x="0" y="34" font-family="Virgil, Segoe UI Emoji" font-size="16px" fill="#000000" text-anchor="start" style="white-space: pre;" direction="ltr">#traveling #cosmetics</text></g><g transform="translate(145.22679567566593 419.32203699187653) rotate(0 0.8887317305825491 5.90371792458464)" stroke="none"><path fill="#000000" d="M -2.21,0.98 Q -2.21,0.98 -2.45,0.56 -2.68,0.14 -3.37,-0.67 -4.06,-1.49 -4.84,-2.27 -5.61,-3.04 -6.42,-3.79 -7.23,-4.54 -8.31,-4.86 -9.39,-5.18 -10.46,-4.88 -11.53,-4.58 -12.46,-3.98 -13.39,-3.37 -13.42,-2.03 -13.45,-0.69 -13.48,0.41 -13.51,1.52 -13.01,2.60 -12.50,3.67 -11.75,4.45 -11.00,5.23 -10.11,5.87 -9.21,6.51 -8.27,7.12 -7.33,7.72 -6.34,8.26 -5.35,8.79 -4.33,9.30 -3.31,9.82 -2.35,10.41 -1.40,11.01 -0.52,11.76 0.35,12.51 1.16,13.48 1.97,14.45 2.44,15.55 2.90,16.66 3.10,17.79 3.29,18.92 3.12,20.14 2.95,21.35 3.04,20.98 3.14,20.60 3.05,21.07 2.97,21.53 2.77,21.96 2.58,22.39 2.29,22.76 2.00,23.13 1.63,23.42 1.26,23.71 0.83,23.90 0.40,24.09 -0.06,24.18 -0.52,24.26 -0.99,24.23 -1.46,24.21 -1.91,24.07 -2.36,23.93 -2.76,23.68 -3.17,23.44 -3.50,23.10 -3.83,22.77 -4.08,22.37 -4.32,21.96 -4.46,21.51 -4.60,21.06 -4.63,20.59 -4.65,20.12 -4.11,18.85 -3.57,17.57 -2.67,16.72 -1.77,15.87 -0.74,15.22 0.28,14.58 1.18,13.98 2.09,13.38 3.34,12.82 4.58,12.26 5.77,11.72 6.96,11.17 8.34,10.69 9.72,10.20 10.67,9.61 11.63,9.02 12.39,8.12 13.14,7.22 13.68,6.11 14.22,5.00 14.60,3.91 14.98,2.82 15.10,1.68 15.22,0.55 14.86,-0.53 14.51,-1.62 13.50,-2.36 12.49,-3.09 11.38,-3.26 10.27,-3.43 9.20,-3.12 8.12,-2.80 6.67,-2.15 5.22,-1.51 5.03,-0.45 4.84,0.60 4.60,1.18 4.35,1.76 3.93,2.23 3.51,2.70 2.97,3.01 2.42,3.32 1.80,3.44 1.18,3.56 0.56,3.48 -0.06,3.40 -0.62,3.12 -1.19,2.84 -1.64,2.40 -2.09,1.96 -2.37,1.39 -2.65,0.83 -2.74,0.21 -2.82,-0.41 -2.71,-1.03 -2.59,-1.65 -2.28,-2.20 -1.98,-2.75 -1.51,-3.17 -1.04,-3.59 -0.46,-3.84 0.10,-4.10 0.73,-4.15 1.36,-4.20 1.97,-4.05 2.59,-3.90 3.12,-3.57 3.65,-3.23 4.05,-2.74 4.44,-2.25 4.66,-1.66 4.88,-1.07 4.90,-0.44 4.92,0.18 4.74,0.79 4.56,1.39 4.19,1.90 3.83,2.42 3.31,2.78 2.80,3.15 2.20,3.34 1.60,3.53 0.97,3.51 0.34,3.50 -0.24,3.28 -0.83,3.07 -1.33,2.68 -1.82,2.28 -2.16,1.75 -2.50,1.22 -2.66,0.61 -2.81,0.00 -2.76,-0.62 -2.71,-1.24 -2.71,-1.24 -2.71,-1.24 -1.67,-3.79 -0.62,-6.33 0.34,-7.20 1.30,-8.08 2.52,-8.71 3.74,-9.35 4.78,-9.80 5.82,-10.25 7.01,-10.62 8.19,-10.99 9.57,-11.09 10.94,-11.19 12.00,-11.09 13.06,-10.99 14.34,-10.62 15.62,-10.24 16.78,-9.72 17.94,-9.20 18.85,-8.33 19.76,-7.45 20.39,-6.57 21.02,-5.68 21.58,-4.43 22.15,-3.18 22.53,-1.82 22.91,-0.46 22.90,0.86 22.90,2.19 22.65,3.55 22.41,4.91 21.96,6.22 21.51,7.53 20.96,8.81 20.40,10.08 19.78,11.10 19.16,12.13 18.35,13.11 17.54,14.09 16.51,14.96 15.49,15.82 14.25,16.48 13.01,17.14 11.89,17.60 10.78,18.07 9.69,18.55 8.59,19.04 7.31,19.60 6.02,20.16 5.04,20.75 4.07,21.35 3.16,22.06 2.26,22.76 2.70,21.68 3.14,20.60 3.05,21.06 2.97,21.53 2.77,21.96 2.58,22.39 2.29,22.76 2.00,23.13 1.63,23.42 1.26,23.71 0.83,23.90 0.40,24.09 -0.06,24.18 -0.52,24.26 -0.99,24.23 -1.46,24.21 -1.91,24.07 -2.36,23.93 -2.76,23.68 -3.17,23.44 -3.50,23.10 -3.83,22.77 -4.07,22.37 -4.32,21.96 -4.46,21.51 -4.60,21.06 -4.63,20.59 -4.65,20.12 -4.79,19.09 -4.92,18.05 -5.95,17.34 -6.98,16.63 -8.11,16.04 -9.24,15.45 -10.41,14.81 -11.58,14.17 -12.71,13.41 -13.85,12.66 -14.72,12.03 -15.59,11.39 -16.60,10.49 -17.62,9.58 -18.43,8.49 -19.24,7.39 -19.86,6.21 -20.48,5.04 -20.77,3.80 -21.07,2.55 -21.03,1.21 -20.99,-0.12 -20.88,-1.19 -20.78,-2.26 -20.59,-3.37 -20.40,-4.48 -20.07,-5.52 -19.74,-6.56 -19.16,-7.48 -18.58,-8.40 -17.38,-9.32 -16.18,-10.25 -15.18,-10.71 -14.19,-11.17 -13.05,-11.58 -11.91,-11.99 -10.73,-12.04 -9.55,-12.08 -8.46,-11.97 -7.36,-11.86 -6.12,-11.38 -4.89,-10.89 -3.89,-10.04 -2.89,-9.20 -2.20,-8.37 -1.51,-7.54 -0.83,-6.64 -0.15,-5.75 0.34,-4.80 0.84,-3.85 1.37,-2.87 1.90,-1.89 2.06,-1.44 2.21,-0.98 2.29,-0.70 2.38,-0.42 2.40,-0.13 2.41,0.15 2.36,0.44 2.30,0.73 2.18,0.99 2.06,1.26 1.88,1.49 1.70,1.72 1.47,1.89 1.24,2.07 0.97,2.19 0.70,2.31 0.42,2.36 0.13,2.41 -0.15,2.39 -0.44,2.38 -0.72,2.29 -1.00,2.20 -1.25,2.05 -1.50,1.89 -1.70,1.69 -1.91,1.48 -2.06,1.23 -2.21,0.98 -2.21,0.98 L -2.21,0.98 Z"></path></g><g stroke-linecap="round" transform="translate(344.7703629774869 117.53235417516976) rotate(0 9.102960653929244 9.61822257773656)"><path d="M18.21 9.62 C18.21 10.17, 18.16 10.74, 18.07 11.29 C17.98 11.84, 17.84 12.38, 17.66 12.91 C17.48 13.43, 17.25 13.95, 16.99 14.43 C16.72 14.91, 16.41 15.37, 16.08 15.8 C15.74 16.23, 15.36 16.63, 14.95 16.99 C14.55 17.34, 14.11 17.67, 13.65 17.95 C13.2 18.23, 12.71 18.47, 12.22 18.66 C11.72 18.85, 11.2 18.99, 10.68 19.09 C10.16 19.19, 9.63 19.24, 9.1 19.24 C8.58 19.24, 8.04 19.19, 7.52 19.09 C7 18.99, 6.48 18.85, 5.99 18.66 C5.49 18.47, 5.01 18.23, 4.55 17.95 C4.1 17.67, 3.66 17.34, 3.25 16.99 C2.85 16.63, 2.47 16.23, 2.13 15.8 C1.79 15.37, 1.48 14.91, 1.22 14.43 C0.96 13.95, 0.73 13.43, 0.55 12.91 C0.37 12.38, 0.23 11.84, 0.14 11.29 C0.05 10.74, 0 10.17, 0 9.62 C0 9.06, 0.05 8.5, 0.14 7.95 C0.23 7.4, 0.37 6.85, 0.55 6.33 C0.73 5.81, 0.96 5.29, 1.22 4.81 C1.48 4.33, 1.79 3.86, 2.13 3.44 C2.47 3.01, 2.85 2.61, 3.25 2.25 C3.66 1.89, 4.1 1.57, 4.55 1.29 C5.01 1.01, 5.49 0.77, 5.99 0.58 C6.48 0.39, 7 0.24, 7.52 0.15 C8.04 0.05, 8.58 0, 9.1 0 C9.63 0, 10.16 0.05, 10.68 0.15 C11.2 0.24, 11.72 0.39, 12.22 0.58 C12.71 0.77, 13.2 1.01, 13.65 1.29 C14.11 1.57, 14.55 1.89, 14.95 2.25 C15.36 2.61, 15.74 3.01, 16.08 3.44 C16.41 3.86, 16.72 4.33, 16.99 4.81 C17.25 5.29, 17.48 5.81, 17.66 6.33 C17.84 6.85, 17.98 7.4, 18.07 7.95 C18.16 8.5, 18.18 9.34, 18.21 9.62 C18.23 9.9, 18.23 9.34, 18.21 9.62" stroke="#000000" stroke-width="1" fill="none"></path></g><g stroke-linecap="round"><g transform="translate(352.3517433456925 120.11703671198052) rotate(0 3.5594038128677994 7.155021768405618)"><path d="M0 0 C2.13 1.82, 4.27 3.64, 7.12 6.07 M0 0 C1.99 1.7, 3.98 3.39, 7.12 6.07 M7.12 6.07 C4.47 9.29, 1.82 12.52, 0.34 14.31 M7.12 6.07 C5.29 8.29, 3.47 10.51, 0.34 14.31" stroke="#000000" stroke-width="1" fill="none"></path></g></g><g stroke-linecap="round" transform="translate(123.11292614287277 117.53235417516976) rotate(188.09800442180745 9.102960653929244 9.61822257773656)"><path d="M18.21 9.62 C18.21 10.17, 18.16 10.74, 18.07 11.29 C17.98 11.84, 17.84 12.38, 17.66 12.91 C17.48 13.43, 17.25 13.95, 16.99 14.43 C16.72 14.91, 16.41 15.37, 16.08 15.8 C15.74 16.23, 15.36 16.63, 14.95 16.99 C14.55 17.34, 14.11 17.67, 13.65 17.95 C13.2 18.23, 12.71 18.47, 12.22 18.66 C11.72 18.85, 11.2 18.99, 10.68 19.09 C10.16 19.19, 9.63 19.24, 9.1 19.24 C8.58 19.24, 8.04 19.19, 7.52 19.09 C7 18.99, 6.48 18.85, 5.99 18.66 C5.49 18.47, 5.01 18.23, 4.55 17.95 C4.1 17.67, 3.66 17.34, 3.25 16.99 C2.85 16.63, 2.47 16.23, 2.13 15.8 C1.79 15.37, 1.48 14.91, 1.22 14.43 C0.96 13.95, 0.73 13.43, 0.55 12.91 C0.37 12.38, 0.23 11.84, 0.14 11.29 C0.05 10.74, 0 10.17, 0 9.62 C0 9.06, 0.05 8.5, 0.14 7.95 C0.23 7.4, 0.37 6.85, 0.55 6.33 C0.73 5.81, 0.96 5.29, 1.22 4.81 C1.48 4.33, 1.79 3.86, 2.13 3.44 C2.47 3.01, 2.85 2.61, 3.25 2.25 C3.66 1.89, 4.1 1.57, 4.55 1.29 C5.01 1.01, 5.49 0.77, 5.99 0.58 C6.48 0.39, 7 0.24, 7.52 0.15 C8.04 0.05, 8.58 0, 9.1 0 C9.63 0, 10.16 0.05, 10.68 0.15 C11.2 0.24, 11.72 0.39, 12.22 0.58 C12.71 0.77, 13.2 1.01, 13.65 1.29 C14.11 1.57, 14.55 1.89, 14.95 2.25 C15.36 2.61, 15.74 3.01, 16.08 3.44 C16.41 3.86, 16.72 4.33, 16.99 4.81 C17.25 5.29, 17.48 5.81, 17.66 6.33 C17.84 6.85, 17.98 7.4, 18.07 7.95 C18.16 8.5, 18.18 9.34, 18.21 9.62 C18.23 9.9, 18.23 9.34, 18.21 9.62" stroke="#000000" stroke-width="1" fill="none"></path></g><g stroke-linecap="round"><g transform="translate(126.65609221852492 119.58822302705244) rotate(188.09800442180745 3.5594038128677994 7.155021768405618)"><path d="M0 0 C2.04 1.74, 4.09 3.49, 7.12 6.07 M0 0 C1.78 1.52, 3.56 3.04, 7.12 6.07 M7.12 6.07 C4.68 9.03, 2.25 11.99, 0.34 14.31 M7.12 6.07 C5.13 8.49, 3.14 10.9, 0.34 14.31" stroke="#000000" stroke-width="1" fill="none"></path></g></g><g stroke-linecap="round" transform="translate(227.33066753389858 188.72653712765077) rotate(0 2.7192546675770473 2.816370905704673)"><path d="M5.44 2.82 C5.44 2.98, 5.42 3.14, 5.4 3.31 C5.37 3.47, 5.33 3.63, 5.27 3.78 C5.22 3.93, 5.15 4.08, 5.07 4.22 C5 4.37, 4.9 4.5, 4.8 4.63 C4.7 4.75, 4.59 4.87, 4.47 4.97 C4.35 5.08, 4.22 5.17, 4.08 5.26 C3.94 5.34, 3.8 5.41, 3.65 5.46 C3.5 5.52, 3.35 5.56, 3.19 5.59 C3.04 5.62, 2.88 5.63, 2.72 5.63 C2.56 5.63, 2.4 5.62, 2.25 5.59 C2.09 5.56, 1.94 5.52, 1.79 5.46 C1.64 5.41, 1.5 5.34, 1.36 5.26 C1.22 5.17, 1.09 5.08, 0.97 4.97 C0.85 4.87, 0.74 4.75, 0.64 4.63 C0.54 4.5, 0.44 4.37, 0.36 4.22 C0.29 4.08, 0.22 3.93, 0.16 3.78 C0.11 3.63, 0.07 3.47, 0.04 3.31 C0.01 3.14, 0 2.98, 0 2.82 C0 2.65, 0.01 2.49, 0.04 2.33 C0.07 2.17, 0.11 2.01, 0.16 1.85 C0.22 1.7, 0.29 1.55, 0.36 1.41 C0.44 1.27, 0.54 1.13, 0.64 1.01 C0.74 0.88, 0.85 0.76, 0.97 0.66 C1.09 0.55, 1.22 0.46, 1.36 0.38 C1.5 0.3, 1.64 0.23, 1.79 0.17 C1.94 0.11, 2.09 0.07, 2.25 0.04 C2.4 0.01, 2.56 0, 2.72 0 C2.88 0, 3.04 0.01, 3.19 0.04 C3.35 0.07, 3.5 0.11, 3.65 0.17 C3.8 0.23, 3.94 0.3, 4.08 0.38 C4.22 0.46, 4.35 0.55, 4.47 0.66 C4.59 0.76, 4.7 0.88, 4.8 1.01 C4.9 1.13, 5 1.27, 5.07 1.41 C5.15 1.55, 5.22 1.7, 5.27 1.85 C5.33 2.01, 5.37 2.17, 5.4 2.33 C5.42 2.49, 5.43 2.73, 5.44 2.82 C5.45 2.9, 5.45 2.73, 5.44 2.82" stroke="none" stroke-width="0" fill="#868e96"></path><path d="M5.44 2.82 C5.44 2.98, 5.42 3.14, 5.4 3.31 C5.37 3.47, 5.33 3.63, 5.27 3.78 C5.22 3.93, 5.15 4.08, 5.07 4.22 C5 4.37, 4.9 4.5, 4.8 4.63 C4.7 4.75, 4.59 4.87, 4.47 4.97 C4.35 5.08, 4.22 5.17, 4.08 5.26 C3.94 5.34, 3.8 5.41, 3.65 5.46 C3.5 5.52, 3.35 5.56, 3.19 5.59 C3.04 5.62, 2.88 5.63, 2.72 5.63 C2.56 5.63, 2.4 5.62, 2.25 5.59 C2.09 5.56, 1.94 5.52, 1.79 5.46 C1.64 5.41, 1.5 5.34, 1.36 5.26 C1.22 5.17, 1.09 5.08, 0.97 4.97 C0.85 4.87, 0.74 4.75, 0.64 4.63 C0.54 4.5, 0.44 4.37, 0.36 4.22 C0.29 4.08, 0.22 3.93, 0.16 3.78 C0.11 3.63, 0.07 3.47, 0.04 3.31 C0.01 3.14, 0 2.98, 0 2.82 C0 2.65, 0.01 2.49, 0.04 2.33 C0.07 2.17, 0.11 2.01, 0.16 1.85 C0.22 1.7, 0.29 1.55, 0.36 1.41 C0.44 1.27, 0.54 1.13, 0.64 1.01 C0.74 0.88, 0.85 0.76, 0.97 0.66 C1.09 0.55, 1.22 0.46, 1.36 0.38 C1.5 0.3, 1.64 0.23, 1.79 0.17 C1.94 0.11, 2.09 0.07, 2.25 0.04 C2.4 0.01, 2.56 0, 2.72 0 C2.88 0, 3.04 0.01, 3.19 0.04 C3.35 0.07, 3.5 0.11, 3.65 0.17 C3.8 0.23, 3.94 0.3, 4.08 0.38 C4.22 0.46, 4.35 0.55, 4.47 0.66 C4.59 0.76, 4.7 0.88, 4.8 1.01 C4.9 1.13, 5 1.27, 5.07 1.41 C5.15 1.55, 5.22 1.7, 5.27 1.85 C5.33 2.01, 5.37 2.17, 5.4 2.33 C5.42 2.49, 5.43 2.73, 5.44 2.82 C5.45 2.9, 5.45 2.73, 5.44 2.82" stroke="#000000" stroke-width="1" fill="none"></path></g><g stroke-linecap="round" transform="translate(239.76154601425014 188.72653712765077) rotate(0 2.7192546675770473 2.816370905704673)"><path d="M5.44 2.82 C5.44 2.98, 5.42 3.14, 5.4 3.31 C5.37 3.47, 5.33 3.63, 5.27 3.78 C5.22 3.93, 5.15 4.08, 5.07 4.22 C5 4.37, 4.9 4.5, 4.8 4.63 C4.7 4.75, 4.59 4.87, 4.47 4.97 C4.35 5.08, 4.22 5.17, 4.08 5.26 C3.94 5.34, 3.8 5.41, 3.65 5.46 C3.5 5.52, 3.35 5.56, 3.19 5.59 C3.04 5.62, 2.88 5.63, 2.72 5.63 C2.56 5.63, 2.4 5.62, 2.25 5.59 C2.09 5.56, 1.94 5.52, 1.79 5.46 C1.64 5.41, 1.5 5.34, 1.36 5.26 C1.22 5.17, 1.09 5.08, 0.97 4.97 C0.85 4.87, 0.74 4.75, 0.64 4.63 C0.54 4.5, 0.44 4.37, 0.36 4.22 C0.29 4.08, 0.22 3.93, 0.16 3.78 C0.11 3.63, 0.07 3.47, 0.04 3.31 C0.01 3.14, 0 2.98, 0 2.82 C0 2.65, 0.01 2.49, 0.04 2.33 C0.07 2.17, 0.11 2.01, 0.16 1.85 C0.22 1.7, 0.29 1.55, 0.36 1.41 C0.44 1.27, 0.54 1.13, 0.64 1.01 C0.74 0.88, 0.85 0.76, 0.97 0.66 C1.09 0.55, 1.22 0.46, 1.36 0.38 C1.5 0.3, 1.64 0.23, 1.79 0.17 C1.94 0.11, 2.09 0.07, 2.25 0.04 C2.4 0.01, 2.56 0, 2.72 0 C2.88 0, 3.04 0.01, 3.19 0.04 C3.35 0.07, 3.5 0.11, 3.65 0.17 C3.8 0.23, 3.94 0.3, 4.08 0.38 C4.22 0.46, 4.35 0.55, 4.47 0.66 C4.59 0.76, 4.7 0.88, 4.8 1.01 C4.9 1.13, 5 1.27, 5.07 1.41 C5.15 1.55, 5.22 1.7, 5.27 1.85 C5.33 2.01, 5.37 2.17, 5.4 2.33 C5.42 2.49, 5.43 2.73, 5.44 2.82 C5.45 2.9, 5.45 2.73, 5.44 2.82" stroke="#000000" stroke-width="1" fill="none"></path></g><g stroke-linecap="round" transform="translate(254.52321420966769 188.72653712765077) rotate(0 2.7192546675770473 2.816370905704673)"><path d="M5.44 2.82 C5.44 2.98, 5.42 3.14, 5.4 3.31 C5.37 3.47, 5.33 3.63, 5.27 3.78 C5.22 3.93, 5.15 4.08, 5.07 4.22 C5 4.37, 4.9 4.5, 4.8 4.63 C4.7 4.75, 4.59 4.87, 4.47 4.97 C4.35 5.08, 4.22 5.17, 4.08 5.26 C3.94 5.34, 3.8 5.41, 3.65 5.46 C3.5 5.52, 3.35 5.56, 3.19 5.59 C3.04 5.62, 2.88 5.63, 2.72 5.63 C2.56 5.63, 2.4 5.62, 2.25 5.59 C2.09 5.56, 1.94 5.52, 1.79 5.46 C1.64 5.41, 1.5 5.34, 1.36 5.26 C1.22 5.17, 1.09 5.08, 0.97 4.97 C0.85 4.87, 0.74 4.75, 0.64 4.63 C0.54 4.5, 0.44 4.37, 0.36 4.22 C0.29 4.08, 0.22 3.93, 0.16 3.78 C0.11 3.63, 0.07 3.47, 0.04 3.31 C0.01 3.14, 0 2.98, 0 2.82 C0 2.65, 0.01 2.49, 0.04 2.33 C0.07 2.17, 0.11 2.01, 0.16 1.85 C0.22 1.7, 0.29 1.55, 0.36 1.41 C0.44 1.27, 0.54 1.13, 0.64 1.01 C0.74 0.88, 0.85 0.76, 0.97 0.66 C1.09 0.55, 1.22 0.46, 1.36 0.38 C1.5 0.3, 1.64 0.23, 1.79 0.17 C1.94 0.11, 2.09 0.07, 2.25 0.04 C2.4 0.01, 2.56 0, 2.72 0 C2.88 0, 3.04 0.01, 3.19 0.04 C3.35 0.07, 3.5 0.11, 3.65 0.17 C3.8 0.23, 3.94 0.3, 4.08 0.38 C4.22 0.46, 4.35 0.55, 4.47 0.66 C4.59 0.76, 4.7 0.88, 4.8 1.01 C4.9 1.13, 5 1.27, 5.07 1.41 C5.15 1.55, 5.22 1.7, 5.27 1.85 C5.33 2.01, 5.37 2.17, 5.4 2.33 C5.42 2.49, 5.43 2.73, 5.44 2.82 C5.45 2.9, 5.45 2.73, 5.44 2.82" stroke="#000000" stroke-width="1" fill="none"></path></g><g transform="translate(220.80449911502433 81.90758802115602) rotate(0 24 10)"><text x="0" y="14" font-family="Virgil, Segoe UI Emoji" font-size="16px" fill="#000000" text-anchor="start" style="white-space: pre;" direction="ltr">Image</text></g><g stroke-linecap="round"><g transform="translate(138.83393961495221 252.39056171781135) rotate(0 7.373517306068038 8.515223211523676)" fill-rule="evenodd"><path d="M0 0 L6.85 17.13 L14.75 -0.1 L0 0" stroke="none" stroke-width="0" fill="#868e96" fill-rule="evenodd"></path><path d="M0 0 C2.27 5.67, 4.54 11.35, 6.85 17.13 M0 0 C2.14 5.35, 4.28 10.69, 6.85 17.13 M6.85 17.13 C9.92 10.43, 12.99 3.74, 14.75 -0.1 M6.85 17.13 C9.47 11.41, 12.09 5.7, 14.75 -0.1 M14.75 -0.1 C11.39 -0.07, 8.03 -0.05, 0 0 M14.75 -0.1 C9.37 -0.06, 4 -0.03, 0 0 M0 0 C0 0, 0 0, 0 0 M0 0 C0 0, 0 0, 0 0" stroke="#000000" stroke-width="1" fill="none"></path></g></g><g stroke-linecap="round" transform="translate(139.11936609131612 245.25489980871328) rotate(0 6.802664353340106 6.802664353340148)"><path d="M13.61 6.8 C13.61 7.2, 13.57 7.6, 13.5 7.98 C13.43 8.37, 13.33 8.76, 13.2 9.13 C13.06 9.5, 12.89 9.86, 12.69 10.2 C12.5 10.54, 12.27 10.87, 12.01 11.18 C11.76 11.48, 11.48 11.76, 11.18 12.01 C10.87 12.27, 10.54 12.5, 10.2 12.69 C9.86 12.89, 9.5 13.06, 9.13 13.2 C8.76 13.33, 8.37 13.43, 7.98 13.5 C7.6 13.57, 7.2 13.61, 6.8 13.61 C6.41 13.61, 6.01 13.57, 5.62 13.5 C5.23 13.43, 4.85 13.33, 4.48 13.2 C4.11 13.06, 3.74 12.89, 3.4 12.69 C3.06 12.5, 2.73 12.27, 2.43 12.01 C2.13 11.76, 1.84 11.48, 1.59 11.18 C1.34 10.87, 1.11 10.54, 0.91 10.2 C0.71 9.86, 0.54 9.5, 0.41 9.13 C0.28 8.76, 0.17 8.37, 0.1 7.98 C0.03 7.6, 0 7.2, 0 6.8 C0 6.41, 0.03 6.01, 0.1 5.62 C0.17 5.23, 0.28 4.85, 0.41 4.48 C0.54 4.11, 0.71 3.74, 0.91 3.4 C1.11 3.06, 1.34 2.73, 1.59 2.43 C1.84 2.13, 2.13 1.84, 2.43 1.59 C2.73 1.34, 3.06 1.11, 3.4 0.91 C3.74 0.71, 4.11 0.54, 4.48 0.41 C4.85 0.28, 5.23 0.17, 5.62 0.1 C6.01 0.03, 6.41 0, 6.8 0 C7.2 0, 7.6 0.03, 7.98 0.1 C8.37 0.17, 8.76 0.28, 9.13 0.41 C9.5 0.54, 9.86 0.71, 10.2 0.91 C10.54 1.11, 10.87 1.34, 11.18 1.59 C11.48 1.84, 11.76 2.13, 12.01 2.43 C12.27 2.73, 12.5 3.06, 12.69 3.4 C12.89 3.74, 13.06 4.11, 13.2 4.48 C13.33 4.85, 13.43 5.23, 13.5 5.62 C13.57 6.01, 13.59 6.61, 13.61 6.8 C13.62 7, 13.62 6.61, 13.61 6.8" stroke="none" stroke-width="0" fill="#868e96"></path><path d="M13.61 6.8 C13.61 7.2, 13.57 7.6, 13.5 7.98 C13.43 8.37, 13.33 8.76, 13.2 9.13 C13.06 9.5, 12.89 9.86, 12.69 10.2 C12.5 10.54, 12.27 10.87, 12.01 11.18 C11.76 11.48, 11.48 11.76, 11.18 12.01 C10.87 12.27, 10.54 12.5, 10.2 12.69 C9.86 12.89, 9.5 13.06, 9.13 13.2 C8.76 13.33, 8.37 13.43, 7.98 13.5 C7.6 13.57, 7.2 13.61, 6.8 13.61 C6.41 13.61, 6.01 13.57, 5.62 13.5 C5.23 13.43, 4.85 13.33, 4.48 13.2 C4.11 13.06, 3.74 12.89, 3.4 12.69 C3.06 12.5, 2.73 12.27, 2.43 12.01 C2.13 11.76, 1.84 11.48, 1.59 11.18 C1.34 10.87, 1.11 10.54, 0.91 10.2 C0.71 9.86, 0.54 9.5, 0.41 9.13 C0.28 8.76, 0.17 8.37, 0.1 7.98 C0.03 7.6, 0 7.2, 0 6.8 C0 6.41, 0.03 6.01, 0.1 5.62 C0.17 5.23, 0.28 4.85, 0.41 4.48 C0.54 4.11, 0.71 3.74, 0.91 3.4 C1.11 3.06, 1.34 2.73, 1.59 2.43 C1.84 2.13, 2.13 1.84, 2.43 1.59 C2.73 1.34, 3.06 1.11, 3.4 0.91 C3.74 0.71, 4.11 0.54, 4.48 0.41 C4.85 0.28, 5.23 0.17, 5.62 0.1 C6.01 0.03, 6.41 0, 6.8 0 C7.2 0, 7.6 0.03, 7.98 0.1 C8.37 0.17, 8.76 0.28, 9.13 0.41 C9.5 0.54, 9.86 0.71, 10.2 0.91 C10.54 1.11, 10.87 1.34, 11.18 1.59 C11.48 1.84, 11.76 2.13, 12.01 2.43 C12.27 2.73, 12.5 3.06, 12.69 3.4 C12.89 3.74, 13.06 4.11, 13.2 4.48 C13.33 4.85, 13.43 5.23, 13.5 5.62 C13.57 6.01, 13.59 6.61, 13.61 6.8 C13.62 7, 13.62 6.61, 13.61 6.8" stroke="#000000" stroke-width="1" fill="none"></path></g><g stroke-linecap="round" transform="translate(143.8764740307147 249.91686558932406) rotate(0 1.807701016971464 1.8552720963654892)"><path d="M3.62 1.86 C3.62 1.96, 3.61 2.07, 3.59 2.18 C3.57 2.28, 3.54 2.39, 3.51 2.49 C3.47 2.59, 3.43 2.69, 3.37 2.78 C3.32 2.88, 3.26 2.97, 3.19 3.05 C3.13 3.13, 3.05 3.21, 2.97 3.28 C2.89 3.35, 2.8 3.41, 2.71 3.46 C2.62 3.52, 2.52 3.56, 2.43 3.6 C2.33 3.64, 2.22 3.66, 2.12 3.68 C2.02 3.7, 1.91 3.71, 1.81 3.71 C1.7 3.71, 1.6 3.7, 1.49 3.68 C1.39 3.66, 1.29 3.64, 1.19 3.6 C1.09 3.56, 0.99 3.52, 0.9 3.46 C0.81 3.41, 0.73 3.35, 0.65 3.28 C0.57 3.21, 0.49 3.13, 0.42 3.05 C0.36 2.97, 0.29 2.88, 0.24 2.78 C0.19 2.69, 0.14 2.59, 0.11 2.49 C0.07 2.39, 0.05 2.28, 0.03 2.18 C0.01 2.07, 0 1.96, 0 1.86 C0 1.75, 0.01 1.64, 0.03 1.53 C0.05 1.43, 0.07 1.32, 0.11 1.22 C0.14 1.12, 0.19 1.02, 0.24 0.93 C0.29 0.83, 0.36 0.74, 0.42 0.66 C0.49 0.58, 0.57 0.5, 0.65 0.43 C0.73 0.37, 0.81 0.3, 0.9 0.25 C0.99 0.19, 1.09 0.15, 1.19 0.11 C1.29 0.08, 1.39 0.05, 1.49 0.03 C1.6 0.01, 1.7 0, 1.81 0 C1.91 0, 2.02 0.01, 2.12 0.03 C2.22 0.05, 2.33 0.08, 2.43 0.11 C2.52 0.15, 2.62 0.19, 2.71 0.25 C2.8 0.3, 2.89 0.37, 2.97 0.43 C3.05 0.5, 3.13 0.58, 3.19 0.66 C3.26 0.74, 3.32 0.83, 3.37 0.93 C3.43 1.02, 3.47 1.12, 3.51 1.22 C3.54 1.32, 3.57 1.43, 3.59 1.53 C3.61 1.64, 3.61 1.8, 3.62 1.86 C3.62 1.91, 3.62 1.8, 3.62 1.86" stroke="none" stroke-width="0" fill="white"></path><path d="M3.62 1.86 C3.62 1.96, 3.61 2.07, 3.59 2.18 C3.57 2.28, 3.54 2.39, 3.51 2.49 C3.47 2.59, 3.43 2.69, 3.37 2.78 C3.32 2.88, 3.26 2.97, 3.19 3.05 C3.13 3.13, 3.05 3.21, 2.97 3.28 C2.89 3.35, 2.8 3.41, 2.71 3.46 C2.62 3.52, 2.52 3.56, 2.43 3.6 C2.33 3.64, 2.22 3.66, 2.12 3.68 C2.02 3.7, 1.91 3.71, 1.81 3.71 C1.7 3.71, 1.6 3.7, 1.49 3.68 C1.39 3.66, 1.29 3.64, 1.19 3.6 C1.09 3.56, 0.99 3.52, 0.9 3.46 C0.81 3.41, 0.73 3.35, 0.65 3.28 C0.57 3.21, 0.49 3.13, 0.42 3.05 C0.36 2.97, 0.29 2.88, 0.24 2.78 C0.19 2.69, 0.14 2.59, 0.11 2.49 C0.07 2.39, 0.05 2.28, 0.03 2.18 C0.01 2.07, 0 1.96, 0 1.86 C0 1.75, 0.01 1.64, 0.03 1.53 C0.05 1.43, 0.07 1.32, 0.11 1.22 C0.14 1.12, 0.19 1.02, 0.24 0.93 C0.29 0.83, 0.36 0.74, 0.42 0.66 C0.49 0.58, 0.57 0.5, 0.65 0.43 C0.73 0.37, 0.81 0.3, 0.9 0.25 C0.99 0.19, 1.09 0.15, 1.19 0.11 C1.29 0.08, 1.39 0.05, 1.49 0.03 C1.6 0.01, 1.7 0, 1.81 0 C1.91 0, 2.02 0.01, 2.12 0.03 C2.22 0.05, 2.33 0.08, 2.43 0.11 C2.52 0.15, 2.62 0.19, 2.71 0.25 C2.8 0.3, 2.89 0.37, 2.97 0.43 C3.05 0.5, 3.13 0.58, 3.19 0.66 C3.26 0.74, 3.32 0.83, 3.37 0.93 C3.43 1.02, 3.47 1.12, 3.51 1.22 C3.54 1.32, 3.57 1.43, 3.59 1.53 C3.61 1.64, 3.61 1.8, 3.62 1.86 C3.62 1.91, 3.62 1.8, 3.62 1.86" stroke="#000000" stroke-width="1" fill="none"></path></g><g stroke-linecap="round"><g transform="translate(140.71525323216406 255.47911457401392) rotate(0 4.984823895350132 2.585418997996655)" fill-rule="evenodd"><path d="M0 0 L1.99 5.13 L7.84 5.87 L10.01 -0.7 L-0.04 0.29" stroke="none" stroke-width="0" fill="#868e96" fill-rule="evenodd"></path><path d="M0 0 C0.48 1.23, 0.95 2.45, 1.99 5.13 M0 0 C0.44 1.12, 0.87 2.24, 1.99 5.13 M1.99 5.13 C4.24 5.41, 6.49 5.7, 7.84 5.87 M1.99 5.13 C3.51 5.32, 5.02 5.51, 7.84 5.87 M7.84 5.87 C8.29 4.5, 8.74 3.14, 10.01 -0.7 M7.84 5.87 C8.46 3.99, 9.08 2.11, 10.01 -0.7 M10.01 -0.7 C6.99 -0.4, 3.98 -0.11, -0.04 0.29 M10.01 -0.7 C6.64 -0.37, 3.27 -0.04, -0.04 0.29 M-0.04 0.29 C-0.03 0.21, -0.02 0.12, 0 0 M-0.04 0.29 C-0.02 0.2, -0.01 0.11, 0 0" stroke="#868e96" stroke-width="1" fill="none"></path></g></g><g transform="translate(162.8345749752907 244.8855250541801) rotate(0 67.5 12.5)"><text x="0" y="18" font-family="Virgil, Segoe UI Emoji" font-size="20px" fill="#000000" text-anchor="start" style="white-space: pre;" direction="ltr">Split, Croatia</text></g><g stroke-linecap="round" transform="translate(303.42207911610194 248.72422152101603) rotate(0 8.661303533164073 8.661303533164094)"><path d="M17.32 8.66 C17.32 9.16, 17.28 9.67, 17.19 10.17 C17.1 10.66, 16.97 11.15, 16.8 11.62 C16.63 12.09, 16.41 12.56, 16.16 12.99 C15.91 13.43, 15.62 13.84, 15.3 14.23 C14.97 14.61, 14.61 14.97, 14.23 15.3 C13.84 15.62, 13.43 15.91, 12.99 16.16 C12.56 16.41, 12.09 16.63, 11.62 16.8 C11.15 16.97, 10.66 17.1, 10.17 17.19 C9.67 17.28, 9.16 17.32, 8.66 17.32 C8.16 17.32, 7.65 17.28, 7.16 17.19 C6.66 17.1, 6.17 16.97, 5.7 16.8 C5.23 16.63, 4.76 16.41, 4.33 16.16 C3.9 15.91, 3.48 15.62, 3.09 15.3 C2.71 14.97, 2.35 14.61, 2.03 14.23 C1.7 13.84, 1.41 13.43, 1.16 12.99 C0.91 12.56, 0.69 12.09, 0.52 11.62 C0.35 11.15, 0.22 10.66, 0.13 10.17 C0.04 9.67, 0 9.16, 0 8.66 C0 8.16, 0.04 7.65, 0.13 7.16 C0.22 6.66, 0.35 6.17, 0.52 5.7 C0.69 5.23, 0.91 4.76, 1.16 4.33 C1.41 3.9, 1.7 3.48, 2.03 3.09 C2.35 2.71, 2.71 2.35, 3.09 2.03 C3.48 1.7, 3.9 1.41, 4.33 1.16 C4.76 0.91, 5.23 0.69, 5.7 0.52 C6.17 0.35, 6.66 0.22, 7.16 0.13 C7.65 0.04, 8.16 0, 8.66 0 C9.16 0, 9.67 0.04, 10.17 0.13 C10.66 0.22, 11.15 0.35, 11.62 0.52 C12.09 0.69, 12.56 0.91, 12.99 1.16 C13.43 1.41, 13.84 1.7, 14.23 2.03 C14.61 2.35, 14.97 2.71, 15.3 3.09 C15.62 3.48, 15.91 3.9, 16.16 4.33 C16.41 4.76, 16.63 5.23, 16.8 5.7 C16.97 6.17, 17.1 6.66, 17.19 7.16 C17.28 7.65, 17.3 8.41, 17.32 8.66 C17.34 8.91, 17.34 8.41, 17.32 8.66" stroke="none" stroke-width="0" fill="#868e96"></path><path d="M17.32 8.66 C17.32 9.16, 17.28 9.67, 17.19 10.17 C17.1 10.66, 16.97 11.15, 16.8 11.62 C16.63 12.09, 16.41 12.56, 16.16 12.99 C15.91 13.43, 15.62 13.84, 15.3 14.23 C14.97 14.61, 14.61 14.97, 14.23 15.3 C13.84 15.62, 13.43 15.91, 12.99 16.16 C12.56 16.41, 12.09 16.63, 11.62 16.8 C11.15 16.97, 10.66 17.1, 10.17 17.19 C9.67 17.28, 9.16 17.32, 8.66 17.32 C8.16 17.32, 7.65 17.28, 7.16 17.19 C6.66 17.1, 6.17 16.97, 5.7 16.8 C5.23 16.63, 4.76 16.41, 4.33 16.16 C3.9 15.91, 3.48 15.62, 3.09 15.3 C2.71 14.97, 2.35 14.61, 2.03 14.23 C1.7 13.84, 1.41 13.43, 1.16 12.99 C0.91 12.56, 0.69 12.09, 0.52 11.62 C0.35 11.15, 0.22 10.66, 0.13 10.17 C0.04 9.67, 0 9.16, 0 8.66 C0 8.16, 0.04 7.65, 0.13 7.16 C0.22 6.66, 0.35 6.17, 0.52 5.7 C0.69 5.23, 0.91 4.76, 1.16 4.33 C1.41 3.9, 1.7 3.48, 2.03 3.09 C2.35 2.71, 2.71 2.35, 3.09 2.03 C3.48 1.7, 3.9 1.41, 4.33 1.16 C4.76 0.91, 5.23 0.69, 5.7 0.52 C6.17 0.35, 6.66 0.22, 7.16 0.13 C7.65 0.04, 8.16 0, 8.66 0 C9.16 0, 9.67 0.04, 10.17 0.13 C10.66 0.22, 11.15 0.35, 11.62 0.52 C12.09 0.69, 12.56 0.91, 12.99 1.16 C13.43 1.41, 13.84 1.7, 14.23 2.03 C14.61 2.35, 14.97 2.71, 15.3 3.09 C15.62 3.48, 15.91 3.9, 16.16 4.33 C16.41 4.76, 16.63 5.23, 16.8 5.7 C16.97 6.17, 17.1 6.66, 17.19 7.16 C17.28 7.65, 17.3 8.41, 17.32 8.66 C17.34 8.91, 17.34 8.41, 17.32 8.66" stroke="#000000" stroke-width="1" fill="none"></path></g><g stroke-linecap="round" transform="translate(308.69199890608934 259.27825448445606) rotate(89.99999999999994 3.7345296610606056 0.9058718270178332)"><path d="M0.45 0 L7.02 0 L7.47 1.36 L0.45 1.81 L0.45 0" stroke="none" stroke-width="0" fill="white"></path><path d="M0.45 0 M0.45 0 C3 0, 5.55 0, 7.02 0 M0.45 0 C1.88 0, 3.32 0, 7.02 0 M7.02 0 C7.32 0, 7.47 0.15, 7.47 0.45 M7.02 0 C7.32 0, 7.47 0.15, 7.47 0.45 M7.47 0.45 C7.47 0.66, 7.47 0.87, 7.47 1.36 M7.47 0.45 C7.47 0.74, 7.47 1.04, 7.47 1.36 M7.47 1.36 C7.47 1.66, 7.32 1.81, 7.02 1.81 M7.47 1.36 C7.47 1.66, 7.32 1.81, 7.02 1.81 M7.02 1.81 C5.66 1.81, 4.3 1.81, 0.45 1.81 M7.02 1.81 C5.43 1.81, 3.85 1.81, 0.45 1.81 M0.45 1.81 C0.15 1.81, 0 1.66, 0 1.36 M0.45 1.81 C0.15 1.81, 0 1.66, 0 1.36 M0 1.36 C0 1.12, 0 0.87, 0 0.45 M0 1.36 C0 1.13, 0 0.89, 0 0.45 M0 0.45 C0 0.15, 0.15 0, 0.45 0 M0 0.45 C0 0.15, 0.15 0, 0.45 0" stroke="#000000" stroke-width="1" fill="none"></path></g><g stroke-linecap="round" transform="translate(311.08817599691065 252.5572699614205) rotate(89.99999999999994 1.1630225392035527 0.8474284833392574)"><path d="M0.42 0 L1.9 0 L2.33 1.27 L0.42 1.69 L0.42 0" stroke="none" stroke-width="0" fill="white"></path><path d="M0.42 0 M0.42 0 C0.79 0, 1.16 0, 1.9 0 M0.42 0 C0.89 0, 1.35 0, 1.9 0 M1.9 0 C2.18 0, 2.33 0.14, 2.33 0.42 M1.9 0 C2.18 0, 2.33 0.14, 2.33 0.42 M2.33 0.42 C2.33 0.69, 2.33 0.96, 2.33 1.27 M2.33 0.42 C2.33 0.61, 2.33 0.79, 2.33 1.27 M2.33 1.27 C2.33 1.55, 2.18 1.69, 1.9 1.69 M2.33 1.27 C2.33 1.55, 2.18 1.69, 1.9 1.69 M1.9 1.69 C1.54 1.69, 1.18 1.69, 0.42 1.69 M1.9 1.69 C1.45 1.69, 1 1.69, 0.42 1.69 M0.42 1.69 C0.14 1.69, 0 1.55, 0 1.27 M0.42 1.69 C0.14 1.69, 0 1.55, 0 1.27 M0 1.27 C0 1.06, 0 0.85, 0 0.42 M0 1.27 C0 0.95, 0 0.64, 0 0.42 M0 0.42 C0 0.14, 0.14 0, 0.42 0 M0 0.42 C0 0.14, 0.14 0, 0.42 0" stroke="#000000" stroke-width="1" fill="none"></path></g><g stroke-linecap="round" transform="translate(10 10) rotate(0 369.1441767492796 229.8648705506509)"><path d="M0 0 C167.42 0, 334.84 0, 738.29 0 M0 0 C276.27 0, 552.54 0, 738.29 0 M738.29 0 C738.29 176.67, 738.29 353.35, 738.29 459.73 M738.29 0 C738.29 155.45, 738.29 310.9, 738.29 459.73 M738.29 459.73 C562.21 459.73, 386.13 459.73, 0 459.73 M738.29 459.73 C498.21 459.73, 258.12 459.73, 0 459.73 M0 459.73 C0 319.44, 0 179.14, 0 0 M0 459.73 C0 316.52, 0 173.3, 0 0" stroke="#a61e4d" stroke-width="1" fill="none"></path></g><g transform="translate(20.778763317550784 13.061644987973978) rotate(0 36 12)"><text x="36" y="19" font-family="Cascadia, Segoe UI Emoji" font-size="20px" fill="#a61e4d" text-anchor="middle" style="white-space: pre;" direction="ltr">V0.1.0</text></g></svg>