<svg version="1.1" xmlns="http://www.w3.org/2000/svg" viewBox="0 0 1211.28225003007 900.9092567129899" width="1211.28225003007" height="900.9092567129899">
  <!-- svg-source:excalidraw -->
  
  <defs>
    <style>
      @font-face {
        font-family: "Virgil";
        src: url("https://unpkg.com/@excalidraw/excalidraw@0.13.0-4d26993/dist/excalidraw-assets/Virgil.woff2");
      }
      @font-face {
        font-family: "Cascadia";
        src: url("https://unpkg.com/@excalidraw/excalidraw@0.13.0-4d26993/dist/excalidraw-assets/Cascadia.woff2");
      }
    </style>
  </defs>
  <rect x="0" y="0" width="1211.28225003007" height="900.9092567129899" fill="#ffffff"></rect><g stroke-linecap="round" transform="translate(24.043880921572054 351.16806793070737) rotate(0 37.898708455009 40.65497816082768)"><path d="M3.6 2.66 L72.11 -3.49 L75.34 83.21 L-1.47 78.88" stroke="none" stroke-width="0" fill="#ced4da"></path><path d="M0.7 -3.52 C14.18 -2.69, 34.23 3.5, 73.07 1.99 M-0.89 -0.33 C21.19 1.86, 45.84 -0.71, 74.76 -1.16 M79.1 2.23 C80.59 30.16, 78.66 58.94, 75.32 84.57 M75.24 -0.74 C76.71 19.75, 77.23 41.15, 77.1 79.63 M74.81 77.83 C49.15 78.16, 18.49 79.03, 0.77 78.64 M74.54 80.68 C47.89 81, 19.88 81.68, -0.28 79.62 M-3.93 79.47 C1.29 51.33, -4.75 18.12, -2.51 -2.85 M1.19 79.54 C-1.44 56.15, -1.7 29.52, -1.67 -1.13" stroke="#000000" stroke-width="1" fill="none"></path></g><g stroke-linecap="round" transform="translate(20.80427443307235 84.24312817281293) rotate(0 41.01543892720565 398.76691709619456)"><path d="M0 0 C0 0, 0 0, 0 0 M0 0 C0 0, 0 0, 0 0 M0.64 7.69 C1.62 2.7, 3.48 2.72, 6.2 1.03 M-0.05 6.58 C2.21 4.95, 3.31 2.87, 4.8 -0.41 M-3.02 9.46 C3.44 8.88, 4.7 0.48, 10.93 -1.68 M-0.27 11.66 C2.05 9.19, 5.36 4.93, 10.88 1.51 M0.38 19.1 C2.21 13.3, 9.6 6.23, 16.33 -2.32 M-0.33 19.75 C5.62 13.93, 10.35 6.01, 16.44 0.02 M1.06 23.84 C6.68 15.68, 6.95 10.55, 20.69 -3.1 M-0.08 22.6 C4.05 19.47, 10.17 11.48, 21.49 0.86 M-2.12 33.02 C5.96 27.57, 12.98 17.39, 23.7 -0.06 M0.91 31.94 C7.95 22.03, 16.19 11.91, 26.71 -0.03 M-0.02 34.2 C3.62 32.59, 16.72 19.53, 32.87 2.28 M-1.01 38.85 C6.4 28.44, 18.4 15.97, 32.3 -1.73 M-0.2 39.05 C13.15 24.24, 25.25 14.09, 34.13 0.76 M-1.6 43.78 C13.49 24.6, 26.99 12.29, 34.88 -0.02 M2.79 49.84 C10 34, 29.44 21.04, 44.77 -0.18 M-0.51 50.73 C16.45 29.94, 33.54 10.94, 42.87 -1.59 M-0.16 58.44 C10.88 36.61, 31.14 19.05, 44.01 -2.26 M1.37 53.8 C18.44 33.26, 35.17 14.59, 49.35 1.93 M1.71 64.59 C13.48 43.73, 26.13 32.36, 49.95 0.91 M-1.13 59.14 C13.15 45.79, 27.13 31.25, 51.47 -0.25 M3.43 66.86 C22.71 36.83, 44.09 13.42, 58.11 2.07 M1.2 67.49 C15.7 49.53, 34.12 27.53, 59.3 -0.11 M-1.99 69.16 C14.11 55.82, 26.12 43.85, 62.37 2.57 M0.11 72.39 C25.93 42.89, 49.04 15.28, 63.21 -1.04 M-1.68 79.29 C12.33 59.16, 31.65 40.14, 65.56 -1.41 M-1.95 78.25 C17.3 56.02, 37.55 34.63, 70.74 0.12 M1.33 83.88 C19.2 68.58, 35.02 48.36, 76.36 3.44 M-1.06 86.99 C18.39 60.48, 40.36 40.7, 74 -1.11 M-1.31 90.65 C21.38 63.91, 45.46 46.58, 79.87 1.76 M0.94 91.94 C31.51 54.97, 59.9 18.79, 78.51 1.07 M-2.97 95.45 C21.73 74.5, 34.44 59.51, 81.29 -2.7 M-0.71 96.4 C19.29 79.23, 36.58 58.23, 85.27 2.08 M-0.26 104.71 C26.3 69.51, 49.47 41.82, 84.38 7.19 M-1.65 103.83 C24.79 73.83, 52.46 45.55, 83.66 8.91 M-3.21 109.96 C19.79 91.2, 39.4 70.47, 80.38 11.1 M-0.15 107.98 C26.08 75.45, 51.53 45.85, 82.67 12.83 M1.04 118.84 C26.72 80.69, 60.03 47.93, 79.98 21.58 M1.55 115.42 C29.47 85.86, 53.43 54.82, 85.27 19.44 M2.75 125.35 C23.2 91.11, 47.9 66.1, 81.61 22.54 M-1.84 123.55 C27.59 89.58, 58.08 54.56, 83.09 26.72 M-2.1 124.83 C22.64 101.4, 46.05 69.35, 85.23 31.73 M0 127.11 C27.48 94.92, 54.45 64.53, 84.54 31.14 M2.02 136.46 C29.94 100.96, 59.54 65.11, 82.11 35.26 M1.23 132.38 C34.21 97.07, 65.06 59.1, 83.01 37.85 M-0.06 137.8 C26.95 102.62, 59.79 68.3, 83.16 42.58 M-0.07 139.26 C20.5 116.66, 43.15 89.65, 83.54 43.21 M-1.87 143.75 C30.71 114.66, 49.24 87.59, 81.43 48.78 M0.89 147.9 C22.71 123.38, 40.45 100.48, 83.74 48.77 M3.22 152.79 C24.63 121.15, 59.94 86.97, 80.49 57.49 M0.41 152.64 C23.04 129.24, 40.36 107.31, 84.49 55.79 M2.31 162.04 C26.78 123.37, 59.22 89.83, 84.15 63.49 M1.1 160.52 C33.43 123.62, 65.65 85.26, 82.08 63.44 M0.8 165.68 C30.43 133.79, 59.59 95.79, 86.3 67.14 M-0.02 165.49 C30.86 127.36, 62.79 89.68, 84.4 66.92 M-3.87 169.54 C23.97 141.17, 53.27 107.9, 83.21 73.41 M0.64 170.52 C24.2 144.11, 45.54 120.3, 85.63 76.04 M-1.85 173.99 C25.15 144.78, 51.87 112.75, 84.07 78.12 M-0.02 178.21 C22.09 148.6, 46.18 125.36, 83.13 81.13 M-0.42 184.32 C21.87 155.35, 45.92 129.74, 83.29 90.93 M1.09 184.68 C32.96 145.56, 64.71 107.95, 84.15 87.66 M-3.58 185.62 C33.67 155.46, 58.52 117.35, 82.32 93.88 M-0.06 190.17 C34.78 151, 64.36 113.81, 82 94.36 M1.67 197.35 C26.05 171.41, 41.01 146.86, 87.4 95.83 M1.54 193.2 C31.23 161.26, 60.8 124.06, 84.18 99.35 M3.14 199.83 C24.45 170.8, 50.15 140, 81.93 107.5 M0.13 200.65 C33.65 166.65, 64.86 132.71, 83.13 102.74 M-0.21 205.2 C22.81 178.18, 45.58 152.47, 84.96 111.73 M1.86 206.44 C33.49 169.59, 66.73 133.72, 85.1 112.56 M-3.77 211.75 C33.25 178.41, 58.06 146.81, 83.52 118.45 M1.7 213.37 C28.65 183.11, 53.44 151.83, 84.83 119.34 M-0.95 218.84 C23.03 186.04, 50.71 162.58, 86.42 123.17 M-1.9 219.74 C20.97 194.44, 39.99 174.54, 81.76 122.23 M-1.37 225.42 C18.61 203.71, 41.89 183.04, 82.02 129.53 M1.24 225.49 C23.16 198.76, 48.17 169.91, 84.16 131.17 M-1.11 228.58 C29.63 195.97, 54.68 166.9, 82.6 132.27 M1.08 230.35 C27.31 195.89, 58.83 164.4, 83.84 133.45 M-2.33 238.47 C19.93 213.34, 35 194.4, 86.82 143.48 M2.17 236.38 C16.14 218.86, 36.45 200.05, 85.04 139.66 M-2.82 240.64 C19.73 220.64, 44.61 195.47, 84.06 151.57 M0.46 241.95 C30.2 212.36, 57.68 181.25, 83.14 146.26 M0.4 250.93 C26.44 218.63, 51.07 193.27, 84.28 151.85 M-1.93 248.31 C24.65 219.25, 51.98 189.82, 84.85 153.71 M0.8 258.09 C18.61 236.27, 32.77 212.51, 83.68 160.95 M-0.62 257.7 C15.22 236.47, 35.78 215.16, 84.28 160.63 M-3.8 262.18 C20.08 233.22, 46.52 214.35, 85.17 167.86 M-0.73 263.51 C29.67 227.27, 60.93 187.92, 85.78 166.38 M1.03 265.63 C20.04 239.92, 38.24 213.57, 84.76 168.18 M1.78 268.89 C20.12 247.35, 39.16 225.49, 84.7 172.98 M0.87 275.49 C29.52 240.19, 57.74 206.98, 83.98 179.1 M0.99 272.64 C19.9 247.74, 40.58 223.81, 82.2 179.68 M-3.17 278.37 C21.88 260.73, 42.97 230.74, 87.62 181.91 M-0.23 279.8 C18.27 259.56, 39.34 238.1, 85.32 185.15 M3.24 287 C18.63 264.46, 45.99 235.64, 85.53 192.51 M1.89 287.81 C27.65 257.88, 52.89 223.75, 83.22 189.56 M-2.47 290.73 C34.61 254.32, 65.5 218.42, 80.96 196.39 M0.22 292.62 C21.95 267.54, 41.76 245.05, 85.86 197.19 M-3.49 294.48 C23.91 268.08, 45.99 245.12, 85.06 198.92 M-0.56 299.3 C23.15 268.03, 45.41 244.19, 84.84 202.38 M2.88 305.06 C34.05 270.31, 63.43 233, 81.21 208.28 M0.87 303.97 C34.17 266.54, 65.58 232.13, 84.2 208.08 M1.59 314.08 C15.27 291.7, 39.62 268.06, 86.82 218.03 M1.27 312.34 C30.39 277.26, 56.37 247.02, 84.5 215.98 M-2.38 320.55 C16.55 296.15, 40.13 271.1, 87.12 221.59 M0.92 317.92 C22.82 287.7, 48.7 256, 83.02 220.71 M-2.25 321.31 C20.94 298.59, 43.34 277.99, 87.46 227.19 M-0.19 324.09 C31.15 288.39, 58.96 252.4, 84.45 228.37 M-1.09 326.05 C19.19 310.42, 38.55 287.99, 83.87 236.21 M0.36 330.74 C25.7 300.75, 51.22 272.05, 81.81 234.45 M-1.33 335.57 C13.92 317.04, 32.7 295.62, 83.34 242.1 M0.3 336.16 C30.15 299.57, 64.75 262.93, 83.12 238.48 M-0.4 340.75 C15.6 315.13, 36.99 298.73, 85.66 244.91 M-0.63 343.62 C20.19 316.24, 38.55 295.59, 83.57 246.09 M-0.96 345.11 C28.89 308.59, 62.02 268.23, 81.15 249.82 M-0.51 347.57 C26.08 316.33, 54.28 282.69, 81.69 251.2 M2.88 355.24 C30.85 313.96, 64.56 278.98, 87.06 258.08 M0.9 355.69 C18.2 332, 41.64 307.65, 82.07 258.59 M-2.07 355.84 C28.94 328.71, 54.24 290.41, 86 261.32 M0.9 359.56 C17.73 337.89, 38.6 317.75, 84.21 261.84 M2.38 367.97 C19.98 343.16, 37.96 317.13, 86.37 272.5 M-1.27 364.51 C18.26 342.34, 36.45 321.74, 85.27 269.88 M-1.85 376.02 C14.39 349.82, 35.19 331.94, 80.04 276.44 M-1.76 372.29 C20.94 350.02, 41.3 327.84, 84.19 277.16 M0.71 374.26 C23.04 353.23, 41.52 331.81, 80.22 284.3 M0.12 379.1 C25.22 346.81, 53.09 318.04, 81.89 281.79 M0.83 381.3 C27.9 350.01, 64.87 309.53, 85.77 284.61 M-2.02 385.85 C29.79 345.29, 62.28 310.59, 83.94 288.12 M0.91 391.08 C23.74 370.62, 44.1 342.55, 83.67 293.5 M1.14 388.65 C23.08 368.6, 41.71 344.48, 85.5 292.63 M1.52 399.18 C25.53 361.69, 56.47 330.43, 85.43 297.69 M-0.55 396.79 C19 373.13, 39.13 349.56, 81.95 298.58 M-2.3 401.76 C19.25 376.16, 44.16 345.35, 84.79 308.99 M-1.97 403.3 C26.39 371.88, 52.24 341.06, 85.14 306.11 M0.79 410.08 C31.58 372.17, 58.48 339.06, 79.59 314.86 M1.43 407.09 C24.93 377.98, 49.75 353.2, 83.47 314.38 M-3.84 417 C29.18 382.97, 61.16 346.73, 84.03 317.3 M1.78 415.1 C25.48 383.58, 54.49 353.92, 84.67 316.15 M2.93 420.74 C31.38 388.61, 61.81 354.89, 83.24 327.21 M0.86 421.66 C24.82 392.69, 52.72 363.28, 84.61 323.75 M-0.24 423.38 C32.86 388.88, 65.5 355.41, 85.56 331.31 M-1.74 426.58 C14.85 406.03, 34.31 386.03, 82.09 331.61 M2.6 429.32 C27.11 403.18, 49.16 367.04, 80.38 338.69 M-0.51 433.34 C27.84 397.94, 58.02 362.1, 82.94 338.41 M-2.97 436.35 C16.25 418.82, 33.94 392.17, 83.89 339.29 M-1.23 439.66 C31.96 406.81, 57.08 371.88, 84.2 341.26 M-3.18 445.83 C19.22 423.55, 41.57 395.42, 87.42 350.89 M-0.13 443.42 C24.69 420.05, 43.37 394.97, 84.84 350.23 M0.2 453.75 C27.09 424.93, 45.48 397.8, 83.95 357.38 M-1.19 453.24 C23.78 420.18, 49.33 390.94, 82.63 354.33 M3.69 457.17 C33.09 417.86, 68.78 377.7, 80.45 363.76 M0.05 458.63 C29.68 425.19, 58.44 392.35, 84.85 360.04 M-0.16 460.78 C26 427.61, 56.77 400.92, 87.68 370.61 M0.63 464.13 C24.91 435.3, 49.63 409.61, 84.48 365.49 M-2.36 467.85 C19.02 441.25, 42.51 422.92, 85.93 372.63 M0.89 467.89 C32.32 431.64, 65.56 397.43, 84.3 374.58 M0.94 474.51 C18.29 447.81, 37.29 428.71, 85.41 381.61 M1.33 475.59 C25.44 446.09, 46.77 418.61, 83.66 379.58 M-3.15 484.76 C29.62 452.06, 59.31 415.81, 80.72 388.7 M1.38 483.05 C26.33 450.22, 54.11 421.78, 83.34 387.05 M1.5 484.92 C16.25 469.45, 35.81 442.78, 87.19 395.4 M-0.51 486.32 C24.03 460.36, 48.5 428.12, 84.25 392.41 M1.83 490.18 C22.82 466.93, 44.53 444.05, 82.69 396.06 M1.33 495.88 C19.86 475.65, 38.49 453, 83.61 398.09 M-0.08 503.57 C20.75 474.64, 40.3 455.49, 85.4 400.38 M-1.52 499.19 C28.94 464.73, 55.47 431.58, 83.1 403.68 M-0.5 502.24 C34.09 465.05, 68.02 432.18, 86.13 408.4 M1.35 506.62 C34.17 468.87, 66.94 432.16, 83.56 408.51 M2.3 516.42 C21.4 485.14, 42.3 464.84, 82.84 412.8 M-2.15 514.03 C23.08 488.99, 44.78 462.33, 81.9 417.56 M-2.18 515.96 C18.61 497.15, 34.51 481.32, 85 421.82 M1.57 516.93 C27.52 489.96, 51.49 459.95, 81.79 424.08 M1.11 520.81 C23.13 502.36, 40.06 479.36, 87.34 425.82 M-0.08 524.59 C25.64 498.82, 45.53 472.72, 81.83 427.66 M1.11 527.99 C32.31 489.1, 65.94 451.52, 83.64 435.77 M0.88 530.66 C23.64 497.18, 52.56 468.8, 83.69 432.47 M3.18 537.92 C22.56 514.64, 47.04 487.62, 87.09 442.21 M1.85 535.07 C17.61 517.48, 34.58 495.58, 82.86 441.76 M1.41 545.35 C20.91 515.17, 48.1 486.35, 84.78 449.56 M0.37 542.61 C23.39 514.05, 52.18 482.16, 85.48 447.83 M0.42 545.86 C30.91 515.44, 66.7 474.28, 82.02 451.1 M-1.72 549.09 C30.26 514.1, 62.97 480.6, 83.11 454.6 M-2.88 558.41 C22.26 529.95, 49.29 506.29, 84.17 459.42 M-2.12 555.49 C22.89 527.83, 42.33 503.18, 84.86 459.73 M1.08 560.31 C23.32 534.67, 48.63 499.83, 86.39 465.01 M0.65 562.49 C30.39 528.44, 62.35 494.38, 85.52 464.82 M-2.98 569.46 C31.53 532.61, 61.85 498.1, 85.97 467.17 M0.12 568.46 C21.82 537.38, 46.38 513.34, 84.33 469.92 M-2.85 571.37 C21.52 549.12, 37.76 524.25, 84.87 476.33 M0.57 572.01 C21.8 547.73, 45.34 517.93, 81.83 475.53 M-1.05 581.64 C34.72 537.48, 67.06 507.7, 86.03 481.01 M1.24 578.13 C28.63 544.22, 54.46 511.99, 82.57 485.11 M-1.05 588.48 C30.01 554.95, 60.54 520.88, 83.16 486.34 M0.42 584.35 C18.57 566.91, 37.08 545.64, 83.27 487.27 M-2.9 591.71 C26.17 567.31, 46.76 540.5, 82.54 496.53 M2.22 591.3 C32.54 551.76, 64.47 518.43, 85.01 493.91 M-0.78 596.98 C23.35 564.79, 55.28 535.46, 82.68 498.67 M1.43 596.64 C22.07 571.35, 41.41 546.78, 83.23 503.52 M-2.6 606.82 C32.06 565.21, 62.87 532.68, 80.12 509.18 M-1.79 605.67 C31.46 564.79, 65.85 525.14, 83.95 507.39 M-0.28 611.07 C32.81 577.52, 58.78 543.35, 83.2 516.35 M-1.71 609.45 C23.01 581.53, 45.66 553.91, 83.88 515.69 M-3.89 617.48 C20.74 597.46, 35.63 572.99, 84.41 519.29 M1.1 614.92 C28.48 583.96, 54.99 547.92, 85.15 520.07 M2.59 618.58 C24.75 594.51, 47.88 571.3, 86.88 522.26 M-1.49 623.54 C19.76 599.83, 39.29 574.99, 84.21 527.62 M-0.11 626.08 C17.85 604.26, 41.45 578.54, 84.76 533.57 M-0.33 629.15 C18.84 604.28, 36.29 583.63, 82.52 531.4 M1.69 637.73 C32.48 601.81, 59.9 566.39, 84.93 540.17 M-2.24 632.6 C20.44 616.01, 37.17 590.99, 82.72 536.61 M-3.54 643.9 C27.19 604.79, 52.18 571.22, 80.87 546.09 M-1.86 639.88 C19.88 618.53, 39.58 594.1, 84.76 542.74 M1.22 650.07 C21.87 619.59, 45.03 593.88, 80.92 547.47 M-1.52 648.26 C31.28 612.76, 58.77 577.28, 84.68 550.14 M1.88 651.82 C31.45 616.66, 65.66 579.73, 86.85 558.81 M-0.46 652.86 C32.46 614.94, 68.07 576.05, 83.41 557.92 M3.77 661.08 C16.69 635.92, 37.05 614.31, 82.15 563.95 M1.97 656.6 C31.93 620.92, 66.36 580.95, 81.55 562.61 M-4.04 665.12 C24.96 633.2, 51.06 608.28, 85.85 570.57 M1.08 664.75 C24.71 638.42, 49.77 607.39, 83.48 568.21 M-2.99 673.08 C22.79 639.94, 51.05 606.85, 86.26 576.72 M-1.02 671.11 C24.75 645.27, 49.16 615.94, 81.55 576.38 M-3.18 674.44 C23.61 647.07, 54.57 618.02, 85.36 577.8 M0.74 676.13 C17.01 656.38, 33.41 639.28, 82.78 581.03 M0.93 686.02 C21.4 656.99, 42.74 627.45, 85.28 584.82 M1.09 681.5 C30.02 648.61, 61.64 613.95, 81.75 586.23 M1.02 690.28 C15.83 665.12, 37.37 646.27, 84.63 591.36 M1.33 688.06 C24.79 657.82, 49.82 630.44, 83.3 592.78 M3.27 698.25 C24.76 671.23, 48.23 642.62, 84.3 596.13 M0.02 694.4 C17.33 674.2, 36.09 652.46, 82.7 600.39 M2.13 700.06 C20.04 676.71, 47.78 650.14, 85.24 601.44 M1.14 703 C23.25 670.03, 46.8 642.87, 81.8 605.77 M2.1 703.45 C26.96 674.92, 51.34 648.48, 84.77 612.18 M-1.73 706.37 C34.27 669.04, 64.62 630.27, 83.75 609.27 M-1.9 716.77 C32.29 674.27, 61.15 637, 87.15 614.12 M1.28 713.62 C33.77 675.88, 66.36 639.74, 81.87 616.76 M1.92 719.22 C25.94 694.98, 47.1 669.12, 83.86 620.86 M1.21 720.42 C22.92 690.4, 52.39 660.83, 82.4 622.23 M-1.4 723.83 C23.44 693.08, 50.8 667.82, 83.4 632.35 M1.01 727.53 C24.68 698.38, 46.97 672.98, 84.59 629.94 M0.22 728.01 C27.22 699.23, 54.96 664.38, 85.08 633.42 M-0.34 730.99 C27.19 700.61, 57.49 666.74, 84.94 636.55 M3.65 735.99 C18.28 717.34, 36.02 691.08, 83.36 640.72 M0.36 736.25 C15.99 717.46, 34.56 697.35, 83.85 641.7 M2.91 741.89 C31.31 707.9, 62.5 671.22, 86.35 649.02 M1.24 744.73 C24.83 711.34, 51.76 683.6, 82.52 645.96 M-0.33 747.9 C31.97 714.1, 58.47 685.47, 80.15 654.19 M0.22 751.77 C22.5 719.43, 48.91 691.99, 81.68 653.36 M-0.41 755.32 C24.95 729.01, 43.56 704.49, 82.62 659.68 M-2.25 757.2 C15.05 737.54, 32.35 719.75, 81.72 661.61 M2.1 763.07 C26.3 729.2, 63.94 693.98, 85.21 667.07 M0.95 763.49 C15.17 744.79, 35.13 723.23, 82.9 664.17 M-1.8 766.14 C22.18 745.21, 47.18 717.63, 81.23 675.03 M-0.24 769.89 C19.62 742.59, 42 718.31, 83.98 672.87 M-1.23 770.64 C30.95 736.62, 58.42 705.99, 84.4 681.58 M1.7 775.02 C23.61 747.18, 45.72 720.87, 83.18 679.82 M-2.89 780.04 C19.84 762, 39.27 742.57, 85.2 683.09 M0.69 778.77 C26.28 747.81, 51.06 719.65, 84.85 684.02 M-2.76 786.15 C22.55 757.92, 49.88 729.3, 80.62 688.79 M-0.2 784.91 C28.44 753.6, 61.73 716.74, 83.65 689.46 M3.71 791.62 C35.02 756.83, 63.38 718.94, 79.94 695.26 M-0.59 791.21 C33.35 756.18, 64.34 719.18, 84.69 695.28 M4.03 799.71 C27.93 759.44, 63.79 730.39, 85.12 701.42 M2 798.85 C23.97 772.52, 43.34 747.89, 82.26 702.39 M7.66 794.27 C34.61 765.87, 58.79 742.3, 85.24 710.81 M5.53 795.98 C30.67 767.38, 57.72 736.25, 84.7 707.32 M12.64 795.54 C39.41 764.94, 62.19 734.95, 84.89 714.55 M12.45 797.21 C25.06 782.24, 42.9 763.35, 85.11 716.88 M15.79 795.34 C30.45 782.8, 47.59 762, 85.92 721.87 M18.25 798.36 C33.62 779.78, 48.33 757.94, 85.54 722.24 M18.55 796.59 C34.13 781.96, 50.71 771.53, 85.25 726.61 M23.71 799.65 C35.54 781.61, 50.86 766.75, 85.09 725.11 M23.36 796.32 C43.05 784.27, 56.04 764.07, 87.18 730.21 M25.63 800.32 C46.91 776.79, 68.61 752.52, 82.69 732.32 M31.45 800.14 C50.23 776.67, 70.48 751.53, 81.94 735.96 M33 796.72 C40.67 787.5, 52.85 775.15, 81.92 737.73 M40.59 796.79 C51.83 781.12, 68.06 765.26, 81.95 747.98 M39.13 796.49 C53.29 781, 69.93 760.83, 81.78 744.8 M41.43 797.08 C52.15 789.42, 64.7 775.13, 87.71 753.78 M44.38 797.14 C56.75 781.37, 72.61 764.65, 84.8 752.79 M44.06 796.2 C58.95 784.8, 73.19 775.52, 85.49 754.7 M49.04 799.95 C62.25 783.38, 73.81 772.21, 85.23 758.83 M50.94 795.92 C66.7 784.42, 75.56 771.94, 83.72 764.92 M52.69 799.82 C64.55 784.42, 76.73 772.18, 83.74 764.56 M59.43 798.88 C65.09 784.65, 77.78 778.34, 83.47 765.75 M59.11 799.19 C69.18 785.96, 77.27 774.1, 84.3 770.02 M66.8 798.81 C69.75 789.3, 78.43 781.52, 82.81 776.58 M63.6 797.86 C71.44 792.38, 78.19 782.82, 84.9 776.24 M72.7 798.8 C71.57 792.01, 81.41 788.26, 82.59 781.4 M69.91 798.91 C71.66 792.84, 76 788.98, 85.71 783.4 M75.76 800.24 C76.04 792.73, 79.53 791.8, 83.93 790.19 M74.05 798.31 C77.38 794.68, 80.79 792.22, 84.61 788.64 M79.42 797.41 C80.72 797.95, 82.3 795.42, 84.47 794.26 M79.59 798.76 C80.98 796.57, 83.19 795.21, 83.6 793.85 M-0.17 797.38 C-0.17 797.38, -0.17 797.38, -0.17 797.38 M-0.17 797.38 C-0.17 797.38, -0.17 797.38, -0.17 797.38 M4.77 796.07 C6.1 796.67, 3.68 794.82, 0.56 791.59 M6.83 798.18 C5.06 796.04, 2.98 794.85, 0.41 791.63 M10.41 797.06 C5.28 792.47, 3.49 787.32, 1.03 787.3 M10.71 795.79 C6.87 793.89, 2.65 788.29, 0.04 785.98 M18.81 797.18 C17.84 797.79, 11.11 792.63, -0.56 783.03 M17.71 798.1 C15.1 791.72, 9.79 789.66, 1.51 779.88 M25.24 798.58 C19.43 787.21, 5.38 783.68, -1.48 775.79 M22.78 798.24 C18.69 793.1, 13.78 788.57, 1.73 774.84 M28.76 797.95 C20.14 791.77, 12.99 777.95, -2.54 773.6 M30.83 798.35 C22.77 789.68, 16.47 784.08, -0.34 769.5 M33.79 798.62 C32.35 794.38, 20.96 782.43, 0.64 768.56 M35.5 798.06 C27.6 791.84, 21.68 787.01, 0.53 766.07 M44.3 794.11 C29.18 782.7, 8.73 768.1, -0.25 762.5 M43.72 797.37 C29.97 783.99, 17.71 772.23, -0.02 759.31 M45.53 793.69 C26.68 779.43, 6.16 765.72, -0.54 757.96 M47.87 797.8 C33.85 783.39, 16.88 771.7, 0.2 755.06 M54.46 798 C33.12 780.46, 15.43 767.36, -0.74 751.72 M54.59 797.64 C35.19 777.42, 12.47 759.45, -1.93 751.48 M57.89 797.3 C44.32 784.83, 27.65 766.82, 3.12 741.8 M61.24 797.85 C48.21 785.5, 32.49 772.39, 1.25 745.57 M70.38 793.66 C46.03 777.11, 25.03 759.98, 1.31 736.93 M68.2 795.84 C49.5 783.02, 29.72 764.77, 0.35 738.36 M72.72 800.61 C53.47 774.79, 24.87 758.77, -3.12 732.22 M71.78 796.81 C45.81 773.01, 17.46 749.41, 1.76 734.18 M81.8 796.68 C50.46 774.81, 16.32 742.96, -0.38 731.38 M80.35 798.83 C53.71 774.64, 32.15 752.96, 0.04 730.49 M86.71 795.05 C61.98 785.43, 43.33 765.81, 4.13 720.96 M84.95 794.17 C64.17 780.91, 49.17 764.47, -1.66 723.73 M86.58 789.09 C58.66 769.12, 25.73 747.47, 0.25 717.97 M83.4 790.43 C56.79 767.5, 30.73 745.3, 1.19 716.6 M85.37 783.16 C55.02 762.78, 20.29 732.04, 2.88 715.39 M81.5 785.03 C61.66 767.13, 43.58 749.84, -1.3 711.18 M85.51 783.71 C58.34 762.97, 39.22 742.06, -2.34 705.21 M85.06 779.83 C62.03 757.03, 37.25 735.83, -1.35 707.59 M86.21 778.14 C58.05 754.47, 40.6 737.16, 2.77 703.85 M84.58 775.73 C59.14 754.98, 35.42 733.47, -1.39 701.05 M81.23 768.33 C61.03 751.55, 41.92 726.41, -1.33 695.25 M83.36 769.73 C64.58 752.44, 43.36 736.59, -1.92 696.57 M84.58 761.63 C54.71 732.87, 20.37 709.51, -2.17 688.29 M81.61 765.62 C55.1 742.6, 25.95 715.63, -1.38 690.03 M80.28 756.38 C56.35 736.24, 23.79 708.3, -1.52 683.85 M84.62 759.07 C53.18 731.6, 24.15 704.28, -0.05 686.82 M80.16 756.89 C56.98 726.88, 27.68 707.2, -1.58 684.29 M82.83 752.25 C48.95 724.59, 18.25 699.21, 0.12 682.99 M81.54 750.95 C56.22 722.86, 30.85 698.8, -3.32 676.42 M83.99 746.98 C56.2 726.11, 29.83 702.35, -0.43 675.83 M85.03 740.82 C59.46 723.8, 32.06 696.5, -0.68 673.04 M81.27 743.33 C51.87 713.75, 16.67 685.79, 1.32 669.02 M84.27 736.74 C65.76 724.15, 45.72 711.13, -2.8 663.95 M85.4 736.78 C58.32 713.2, 29.89 689.47, -0.97 663.25 M83.65 731.93 C58.65 704.41, 30.16 684.67, 3.68 657.4 M84.78 732.79 C58.11 715.13, 38.19 693.76, 1.21 661.36 M80.11 728.09 C59.22 702.82, 36.45 686.23, 0.38 655.11 M81.61 727.98 C60.96 708.58, 41.27 693.26, -0.75 654.94 M80.84 718.38 C60.08 702.95, 36.89 675.92, -1.01 645.8 M84.02 720.72 C53.18 696.66, 26.76 669.65, -0.38 649.46 M85.08 712.94 C55.81 696.1, 34.47 676.99, 2.92 644.15 M82.2 716.27 C54.58 693.42, 29.63 671, -0.05 642.93 M86.56 714.57 C57.41 686.73, 31.1 665.96, -2.85 636.33 M85.24 710.07 C55.33 684.92, 26.12 662.22, 1.19 638.96 M83.56 708.89 C54.04 679.98, 18.01 646.27, -2.1 634.97 M81.55 705.54 C66.05 690, 48.56 674.06, -0.32 633.44 M80.87 702.6 C53.93 681.15, 27.14 652.69, 2.42 624.69 M83.21 699.99 C62.39 683.26, 44.78 665.44, -0.65 627.66 M84.32 699.13 C66.8 677.55, 46.14 665.51, -1.25 625.08 M82.85 695.85 C65.05 681.51, 45.39 664.37, -0.21 622.9 M82.49 692.14 C65.29 677.89, 52.46 663.34, 3.45 620.22 M81.79 689.82 C58.12 666.07, 28.39 643.04, 0.38 617.59 M80.49 688.5 C55.95 658.64, 20.42 632.58, 0.08 614.29 M82.12 683.46 C64.37 668.41, 49.45 651.72, 1.19 610.56 M81.72 677.82 C53.16 656.87, 31.08 630.92, -2.76 605.86 M82.89 680.39 C63.85 662.62, 44.33 642.15, -0.66 606.93 M81.59 671.45 C68.9 662.22, 44.43 641.4, -1.43 602.05 M84.17 672.82 C61.06 654.91, 34.35 631.99, 1.36 599.89 M81.29 671.93 C62.73 653.15, 46.93 633.45, -2.81 594.21 M83.24 670.75 C56.63 649.54, 30.22 627.6, 0.1 598.06 M81.51 664.05 C48.46 633.14, 18.24 607.32, -2.46 591.41 M82.64 664.55 C52.9 636.74, 24.77 612.82, -1.16 590.53 M80.26 656.34 C49.34 629.33, 18.87 596.7, 1.05 587.45 M82.38 658.12 C53.74 633.5, 27.04 608, -0.62 585.56 M82.52 656.02 C54.83 625.29, 27.73 601.45, 3.95 578.38 M83.98 651.48 C57.47 632.82, 30.26 606.19, 2.23 579.64 M82.08 646.57 C51.86 622.53, 17.7 594.82, -1.03 577.44 M82.66 645.92 C58.78 624.26, 30.93 605.07, -1.32 576.18 M79.24 642.69 C68.44 622.08, 53.48 607.01, -2.87 568.61 M83.44 642.62 C58.68 619.64, 35.28 596.56, -1.05 570.57 M86.58 635.78 C61.56 616.32, 41.69 596.34, -2.54 561.61 M85.26 635.75 C62.05 619.93, 41.55 602.91, 0.32 564.86 M82.7 633 C60.83 613.71, 35.51 583.85, 0.78 561.37 M85.1 631.15 C65 614.79, 46.72 597.24, -0.77 560.85 M81.97 626.73 C60.71 614.17, 47.95 592.15, 3.41 551.05 M82.14 627.39 C55.1 607.02, 32.67 584.09, -0.57 554.74 M80.28 617.55 C58.83 599.69, 35.91 576.69, 2.97 549.54 M81.84 622.46 C63.23 602.09, 42.38 586.65, 0.1 550.22 M84.81 615.8 C53.17 590.35, 16.53 559.57, 0.08 546.46 M84.09 614.83 C51.85 586.85, 22.77 561.11, -0.04 541.14 M83.74 608.53 C52.33 586.71, 22.89 562.43, -3.84 535.65 M83.35 610.12 C56.74 587.81, 30.49 565.42, 1.42 536.59 M84.06 609.02 C60.07 589.29, 43.64 566.78, 3.12 530.18 M84.73 606.21 C65.32 589.72, 46.99 572.08, -1.33 531.56 M81.23 599.78 C56.2 569.89, 23.21 545.13, 1.17 523.84 M84.15 599.88 C49.6 568.86, 17.15 542.17, 1.86 528.05 M81.04 598.03 C68.01 577.39, 52.49 562.73, -3.48 522.16 M84.46 595.9 C54.05 568.57, 24.61 544.09, 1.14 521.7 M86.02 591.4 C60.92 574.04, 39.97 550.66, 3.2 519.88 M84.3 590.35 C64.17 573.1, 48.47 556.04, -1.12 514.9 M81.47 584.1 C63.38 569.92, 40.22 543.43, -3.3 507.98 M82.51 584.43 C52.49 556.26, 23.41 530.98, -2.27 511.44 M85.48 579.17 C53.76 550.41, 16.67 520.7, -0.18 507.16 M82.45 578.35 C64.33 563.61, 47.97 547.89, 0.78 505.61 M79.4 570.12 C63.81 551.86, 44.73 538.35, -2.85 503.5 M84.92 574.54 C51.84 545.76, 27.5 523.86, 0.41 501.5 M85.63 566.44 C58.19 548.32, 32.1 520.84, 1 494.69 M84.27 566.84 C55.35 545.71, 26.36 518.44, -1.33 494.84 M81.3 560.6 C57.01 544.85, 33.32 519.62, -2.49 488.23 M84.54 563.12 C57.17 539.62, 31.67 515.33, -0.32 490.83 M84.11 561.55 C59.77 533.05, 29.38 506.96, -2.94 485.12 M83.55 558.35 C63.86 544.78, 46.72 527.2, -1.54 483.45 M81.99 553.7 C59.29 532.53, 35.74 509.41, 0.06 481.3 M85.04 553.28 C65.47 537.36, 48.97 520.18, 1.1 480.54 M86.93 546.45 C57.65 529.66, 39.73 508.14, -1.31 474.72 M82.84 547.55 C64.02 531.3, 45.89 517.8, 0.87 474.47 M80.67 541.17 C66.96 522.73, 46.13 507.01, -1.33 466.78 M84.9 542.31 C60.65 518.89, 35.42 501.07, -1.68 467.24 M84.49 532.72 C61.64 516.67, 40.48 494.15, -3.03 461.37 M85.52 537.34 C50.75 508.84, 20.16 481.46, 1.45 465.12 M80.92 532.41 C59.47 507.24, 25.85 482.25, 3.61 458.37 M81.41 529.69 C60.72 512.59, 39.85 494.51, 1.78 459.77 M83.54 529.56 C64.58 503.14, 41.72 488.14, 3.36 452.61 M83.81 526.78 C56.09 502.11, 29.67 476.92, -1.46 454.83 M82.68 522.44 C62.97 506.85, 41.36 486.37, 1.53 451.41 M82.66 521.07 C48.47 491.06, 15.61 462.48, -1.26 447.12 M83.22 511.81 C59.78 496.87, 30.21 473.81, 1.68 441.56 M82.7 515.14 C61.07 494.8, 34.52 471.59, 1.32 441.19 M82.29 507.91 C66.62 494.71, 40.97 472.74, 3.43 438.84 M83.58 508.32 C63.19 491.76, 43.85 471.65, 1.27 438.5 M83.06 507.93 C55.57 473.59, 24.74 451.08, -3.87 431 M84.01 505.84 C55.11 482.46, 29.14 456.57, 1.76 431.99 M80.45 495.06 C60.6 477.29, 39.81 457.95, -3.3 427.26 M81.89 497.46 C57.3 475.53, 29.41 452.46, -1.74 427.28 M82.93 495.98 C49.87 470.37, 18.65 441.55, 3.29 417.32 M82.39 494.54 C60.34 473.88, 38.68 456.11, -1.35 421.21 M82.23 491.81 C53.03 463.33, 31.63 437.97, 1.11 412.86 M82.13 488.72 C54.15 462.07, 23.33 438.02, -0.6 415.03 M83.1 483.68 C67.26 464.83, 48.89 447.7, -3.89 406.54 M85.27 485.04 C53.4 456.07, 22.44 424.86, 1.6 409 M81.83 476.33 C63.22 460.3, 46.4 446.83, -3.21 405.48 M84.41 477.18 C61.2 458.65, 37.52 438.99, -0.81 403.52 M84.21 476.36 C54.9 452.27, 33.74 430.3, -0.09 398.3 M84.92 473.35 C54.22 447.71, 22.55 422.15, -0.99 401.73 M83.58 466.44 C53.38 439.08, 16.18 416.06, -3.74 396.57 M85.38 466.11 C60.61 446.49, 35.51 428.14, 0.97 394.68 M87.28 460.96 C47.81 438.29, 22.53 412.44, -3.6 385.86 M82.4 463.67 C59.78 443.64, 37.88 423.66, -1.88 387.92 M82.43 459.56 C59.87 431.61, 30.73 411.42, -3.59 383.21 M82.78 454.97 C60.53 436.89, 40.34 418.77, 0.86 382.64 M85.68 454.08 C56.24 426.69, 24.36 401.41, -3.6 380.78 M83.6 452.37 C52.74 425.14, 21.71 394.5, 1.72 378.96 M84.96 446.1 C53.4 414.85, 16.06 386.72, 2.5 376.1 M84.4 444.73 C63.7 429.09, 42.72 410.42, -0.19 373.73 M81.19 437.92 C67.49 427.4, 48.67 411.62, -3.13 370.26 M83.22 440.04 C62.91 424.79, 45.75 409.85, 1.16 370.45 M86.11 434.06 C48.91 407.79, 17.17 382.5, -3.83 359.58 M84.84 434.55 C51.89 407.38, 17.26 381.69, -0.42 362.46 M83.95 432.3 C54.54 408.06, 19.27 379.44, 1.37 361.1 M84.77 431.42 C60.06 406.86, 32.35 386.11, 0.84 358.14 M85.22 425.1 C61.03 408.53, 38.68 388.9, -0.56 355.6 M85.51 425.79 C56.21 400.12, 30.99 380.96, -1.26 351.51 M80.46 422.68 C54.64 398.47, 31.27 369.11, 1.12 345.07 M84.56 419.46 C55.49 395.79, 24.86 370.8, -0.74 347.33 M85.99 414.48 C56.85 389.61, 29.46 364.98, 2.68 343.74 M82.64 413.98 C51.47 390.39, 25.24 365.71, 0.68 339.77 M81.62 408.15 C53.69 380.58, 22.97 355.63, -0.32 339.56 M83.73 409.29 C61.7 390.3, 36.43 372.56, 1.7 337.49 M80.48 407.08 C64.36 388.31, 42.17 363.27, -3.32 333.21 M83.27 404.84 C52.73 376.61, 20.65 350.47, 1.59 330.31 M82.69 401.4 C60.31 379.8, 45.48 362.58, -2.98 323.59 M84.23 398.23 C47.75 368.22, 16.8 339.64, 0.27 326.29 M81.16 393.44 C63.99 379.08, 48.98 361.38, -3.44 322.83 M85.26 394.3 C53.36 366.98, 25.02 341.58, -1.53 318.38 M79.31 388.77 C57.03 368.82, 26.97 341.81, -2.56 317.79 M84.81 387.79 C58.24 367.1, 34.87 343.05, 1.87 313.56 M80.85 381.68 C51.9 358.7, 22.39 328.3, 1.83 309.06 M85.27 384.44 C50.51 355.37, 22.8 329.08, 1.16 311.43 M83.49 378.21 C62.79 358.9, 38.78 343.33, 1.67 304.45 M85.05 375.65 C58.24 356.13, 30.83 333, 0.24 305.36 M84.74 373.59 C55.36 342.72, 24.86 320.53, -3.61 301.99 M82.77 371.57 C49.16 342.59, 15.84 314.59, 0.29 297.1 M83.62 367.3 C54.46 340.59, 37.26 321.42, -1.24 291.45 M81.33 367.72 C65.52 347.79, 44.59 331.66, -0.08 293.91 M86.43 364.54 C62.03 344.54, 46.37 332.31, -3.49 285.31 M84.06 362.15 C58.11 336.42, 27.38 311.25, -0.71 287.19 M85.22 359.91 C55.48 329.17, 18.61 301.56, -1.82 280.3 M83.6 354.7 C65.24 339.51, 47.33 326.45, 0.25 281.62 M83.84 351.57 C61.5 329.29, 38.62 312.12, 2.81 280.36 M82.25 348.84 C50.63 321.12, 17.24 292.17, -1.56 277.73 M83.92 347.54 C49.8 314.62, 21.26 284.96, -2.26 274.15 M84.36 345.54 C63.15 328.27, 45.07 312.49, -0.59 273.09 M87.33 341.31 C60.84 321.07, 37.88 304.28, 1.07 266.74 M85.23 338.51 C61.15 319.84, 37.72 299.27, -0.45 269.55 M85.99 337.32 C71.39 322.25, 53.98 307.85, -0.34 261.78 M83.19 335.35 C57.7 313.98, 33.31 288.75, -1.63 263.1 M79.57 326.02 C48.8 302.67, 20.66 275.3, -0.83 259.73 M83.75 328.18 C64.29 311.75, 47.92 294.8, -1 257.72 M81.31 325.32 C51.53 301.27, 21.02 272.62, 2.5 249.56 M83.72 322.75 C65.67 311.22, 48 292.9, 0.93 252.65 M79.66 315.61 C61.53 299.83, 45.97 287.54, -0.38 250.19 M83.34 317.08 C54.23 293.05, 21 267.38, 0.24 247.49 M84.15 313.25 C64.69 292.87, 47.3 277.38, 1.22 237.52 M82.4 314.57 C54.3 283.55, 22.52 257.22, 1.67 240.88 M87.04 305.59 C57.36 283.4, 37.02 267.68, -3.43 233.94 M84.35 306.63 C58.47 284.76, 29.86 259.62, -1.22 235.59 M85.15 300.44 C66.39 290.22, 47.27 269.12, 3.15 227.3 M84.48 301.81 C62.58 284.72, 42.98 270.31, -1.97 229.15 M81.54 301.1 C57.96 274.32, 39.38 259.27, 0.52 228.44 M81.96 296.42 C62.93 280.13, 37.51 259.59, -1.05 226.97 M83.32 291.84 C52.71 265.49, 18.38 243.33, -4.02 222.17 M84.04 291.67 C50.76 263.02, 17.45 237.26, -1.78 220.99 M79.36 284.91 C56.62 259.75, 29.68 236.25, -1.63 216.78 M82.13 288.25 C63.01 266.67, 37.99 250.14, 1.87 214.77 M86.05 282.03 C64.6 269.99, 45.48 248.03, 3.79 211.03 M83.96 283.52 C57.8 260.84, 30.42 237.94, 1.29 210.14 M85.07 273.41 C60.71 256.04, 48.48 239.73, 1.38 203.65 M81.66 278.09 C60.79 257.41, 37.53 236.22, 1.49 204.31 M85.11 271.22 C67.01 255.5, 46.6 239.28, -0.96 200.38 M83.93 272.94 C64.33 253.63, 46.28 240.36, 1.09 196.5 M83.63 268.62 C51.57 233.29, 21.06 206.31, -2.81 191.39 M84.14 264.1 C50.56 237.16, 19.51 212.64, 0.57 193.08 M80.63 257.23 C61.11 241.46, 43.2 228.75, -1.46 190.37 M84.47 259.69 C64.83 244.04, 45.23 231.6, -1.72 186.18 M80.36 258.18 C52.63 228.81, 30.5 205.05, -2.19 179.95 M84.01 254.63 C53.91 229.4, 24.7 203.85, -1.32 182.8 M81.12 251.53 C49.92 221.42, 18.12 189.47, -0.5 174.77 M82.9 251.7 C57.39 226.08, 28.27 199.4, 0.35 175.46 M85.72 248.02 C58.95 222.99, 33.48 199.22, -0.36 174.92 M83.23 244.88 C55.43 219.38, 28.97 195.54, 0.21 171.33 M79.48 239.2 C64.71 221.99, 49.61 203.52, 3.5 164.97 M85.35 241.12 C61.94 221.54, 41.01 201.78, 1.58 166.83 M80.27 235.71 C58.54 214.1, 30.15 192.51, -0.58 163.49 M84.34 234.25 C59.07 209.97, 33.85 188.23, -1.65 160.75 M84.97 226.93 C46.84 202.94, 18.52 175.09, 0.49 157.99 M82.77 228.25 C59.77 209.83, 37.33 187.96, -0.93 156.93 M83.23 222.44 C57.44 205.51, 30.61 178.15, 2.31 154.5 M82.94 222.33 C54.06 197.66, 22.16 169.41, -0.89 149.32 M83.23 219.06 C62.88 204.28, 48.56 184.45, 1.54 145.13 M82.91 217.61 C55.02 198.37, 28.94 173.81, 1.49 145.28 M85.41 210.33 C52.2 191.75, 28.32 165.82, -2.18 138.4 M84.7 214.21 C52.94 184.7, 18.65 159.71, 1.31 139.47 M84.26 209.54 C58.56 182.82, 34.58 165.22, 3.85 133.35 M82.35 205.89 C63.71 190.58, 43.88 171.9, 2.07 135.61 M82.03 203.17 C63.85 178.96, 42.58 160.38, -0.16 127.27 M82.1 201.18 C64.06 185.06, 40.75 165.51, 0.59 129.84 M82.47 197.95 C61.2 175.18, 37.34 157.71, 3.26 125.18 M82.47 197.98 C51.57 167.59, 20.57 141.51, -0.9 123.8 M80.64 190.34 C63.72 178.41, 50.8 158.34, -1.38 122.82 M82.43 192.71 C64.26 175.17, 42.42 155.15, 1.38 119.26 M80.61 189.51 C57.95 158.41, 28.27 139.35, -0.8 116.15 M81.47 186.93 C60.29 165.41, 36.84 143.7, 0.92 115.26 M85.22 178.86 C52.66 153.03, 28.55 132.85, 0.81 108.38 M83.79 180.47 C57.84 156.34, 31.45 132.98, 0.96 106.72 M81.82 179.03 C63.8 156.29, 40.77 139.5, 3.52 103.41 M82.35 174.02 C64.04 156.99, 41.79 140.03, -1.29 101.58 M80.07 169.37 C64.84 157.78, 43.54 137.89, -2.58 96.9 M83.09 170.3 C56.92 148.8, 29.04 122.89, 1.4 99.42 M81.62 166.98 C54.53 136.59, 28.14 120.48, 0.4 93.71 M84.95 164.68 C66.21 148.13, 44.17 131.13, -1.56 92.57 M85.91 156.15 C56.21 131.7, 26.87 110.25, -4.16 90.96 M84.07 158.26 C62.51 142.46, 42.12 124.5, 1.56 88.75 M83.89 151.42 C57.74 129.85, 21.64 104.5, 2.43 79.46 M81.88 152.54 C66.19 141.32, 45.95 123.64, 0.91 80.19 M79.81 151.07 C60.44 131.81, 30.95 108.04, -4.16 74.77 M85.26 150.55 C56.09 123.12, 26.17 96.74, 1.16 78.26 M84.9 144.08 C54.37 120.1, 30.23 93.17, 2.55 70.67 M82.6 143.43 C58.33 122.61, 32.66 98.61, 1.71 70.61 M83.22 135.67 C63.56 121.63, 43.67 99.75, -2.45 62.16 M84.01 139.59 C61.23 117.15, 42.6 99.45, 0.7 67.73 M81.29 130.28 C52.05 110.86, 25.83 77.4, -1.9 62.97 M81.37 131.35 C54.61 108.26, 25.94 85.53, -0.75 60.17 M81.96 125.08 C58.66 105.03, 28.54 79.29, 1.49 56.58 M84.49 128 C64.1 113.65, 42.02 93.52, 1.5 57.09 M86.83 125.63 C61.48 103.14, 32.76 84.11, -1.23 53.65 M82 123.15 C65.46 106.56, 42.27 88.65, -1.22 51.42 M82.25 120.07 C70.65 102.62, 47.76 86.02, 0.54 43.11 M81.68 116.54 C56.54 93.83, 27.04 71.14, -2.3 46.48 M81.38 109.39 C56.04 91.56, 30.43 65.84, 2.65 41.59 M82.89 111.9 C62.29 95.23, 44.3 77.01, 0.32 41.08 M86.64 107.03 C64.59 87.86, 45.47 71.12, -3.28 37.12 M85.37 108.2 C63.14 89.99, 43.54 74.86, 1 32.86 M87.48 100.43 C51.06 71.23, 17.01 45.75, -3.83 27.31 M85.47 100.83 C58.37 78.54, 29.74 53.42, -1.26 28.07 M86.11 97.99 C58.02 73.23, 28.64 45.09, -1.83 25.62 M84.17 96.15 C53.55 68.68, 20.64 39.5, 1.64 23.44 M87.26 90.58 C56.05 65.41, 26.17 35.73, 2.17 20.96 M83.26 92.69 C60.3 70.86, 35.83 46.87, -0.31 17.48 M83.96 82.58 C63.38 72.95, 48.73 51.99, -0.35 11.22 M81.47 83.73 C53.94 60.45, 24.71 34.86, 0.95 11.57 M87.24 77.3 C60.62 60.78, 39.85 44.85, -0.15 10.29 M82.58 82.43 C53.13 52.77, 22.01 24.79, -0.35 8.61 M79.91 76.07 C61.11 54.88, 43.9 39.13, 3.55 1.51 M83.52 76.47 C58.01 53.48, 28.52 26.93, 0.32 2.13 M86.3 71.66 C51.07 46.05, 20.76 15.88, -1.71 2.02 M82.56 69.18 C66.31 53.46, 47.88 40.47, -0.58 0.23 M86.02 63.35 C66.95 47.93, 47.59 36.68, 4.18 0.24 M83.35 66.12 C57.59 44.02, 35.45 22.84, 9.49 -1.26 M83.71 58.37 C61.43 37.92, 41.35 19.98, 10.51 -4.97 M83.14 60.26 C68.11 47.95, 51.78 33.59, 14.16 -0.1 M86.76 54.94 C58.18 31.67, 38.9 14.2, 17.66 -0.37 M84.82 54.57 C61.69 33.29, 36.65 14.71, 20.44 0.04 M87.1 51.76 C64.09 33.77, 54.98 20.58, 26.25 -3.21 M85.09 47.17 C67.03 37.15, 52.26 23.71, 26.23 -3.74 M86.94 46.99 C65.61 28.38, 46.05 6.39, 34.97 -3.8 M82.59 41.93 C71.79 30.6, 59.59 20.3, 32.48 -0.46 M80.5 39.78 C64.39 20.35, 52.92 5.24, 34.99 2.21 M81.98 37.61 C65.14 21.54, 50.77 8.9, 40.09 -1.98 M79.77 29.26 C65.84 16.01, 55.51 4.21, 44.01 -3.98 M82.13 30.49 C73.85 22.26, 60.95 14.96, 42.24 -1.13 M80.28 24.02 C68.35 14.44, 54.43 7.8, 52.28 -2.12 M84.2 27.47 C77.07 18.78, 66.36 11.53, 48.79 -1.9 M86.82 25.14 C71.29 16.57, 63.77 7.59, 57.04 -5.21 M83.75 20.72 C77.98 17.24, 70.75 10.26, 55.16 -0.15 M87.21 19.68 C76.62 7.62, 65.11 7.26, 60.33 -2.03 M82.93 16.81 C77.44 11.51, 67.42 4.53, 62.43 -2.45 M86.8 12.31 C83.43 10.78, 74.03 9.04, 71.45 2.51 M83.29 11.95 C78.06 5.77, 71.2 1.81, 70.25 -2.86 M85.24 7.01 C80.14 4.48, 78.92 2.24, 75.93 0.28 M82.68 5.99 C80.25 3.07, 77.49 1.14, 73.66 -1.3" stroke="#ced4da" stroke-width="0.5" fill="none"></path><path d="M-1.38 -2.9 C26.55 4.73, 44.18 3.44, 81.93 -2.08 M-1.36 0.59 C18.48 -1.71, 34.44 -0.89, 83.62 1.5 M83.46 -0.27 C87.96 238.42, 87.11 480.33, 81.47 798.53 M81.99 -0.72 C80.41 297.42, 80.77 595.76, 82.71 797.58 M84.58 794.37 C58.42 793.81, 33.41 793.43, 2.88 793.66 M82.31 797.57 C59.75 797.73, 36.26 795.33, 1.44 798.56 M0.85 797.63 C4.71 541.71, 5.27 286.93, 0.3 0.92 M-0.2 797.83 C-4.09 510.27, -4.46 222.53, 0.72 0.53" stroke="#000000" stroke-width="1" fill="none"></path></g><g stroke-linecap="round" transform="translate(20.2570647930861 18.214871108124044) rotate(0 90.0421136025866 22.846501233343815)"><path d="M0 0 C0 0, 0 0, 0 0 M0 0 C0 0, 0 0, 0 0 M-0.08 4.87 C1.86 4.64, 4.8 2.48, 5.74 0.07 M0.36 6.95 C0.68 5.71, 1.65 3.15, 5.38 0.17 M-0.28 13.13 C0.89 5.27, 7.34 2.9, 8.93 2.93 M-0.32 12.19 C3.7 7.23, 6.92 6.18, 11.73 1.49 M-3.25 20.26 C4.4 12.78, 12.76 1.68, 15.83 0.05 M0.78 19.3 C4.67 12.19, 8.59 8.9, 13.75 0.72 M2.43 20.33 C2.86 14.94, 8.77 10.52, 19.13 0.85 M-1.02 25.57 C6.99 15.81, 14.56 9.24, 19.57 -1.48 M-0.12 34.13 C9.77 20.7, 14.18 10.93, 26.85 -0.23 M-0.39 31.89 C8.95 19.8, 19.49 7.58, 24.37 0.47 M-2.94 40.54 C14.79 22.53, 23.29 13.67, 30.55 2.34 M-1.72 38.01 C10.2 25.32, 16.86 15.73, 33 0.78 M0.47 39.28 C10.66 32.04, 19.62 18.17, 39.49 4.21 M0.9 40.68 C15.93 27, 27.31 9.07, 37.1 0.59 M-1.14 47.16 C17.25 34.42, 29.24 16.7, 45.53 -2.65 M1.8 45.52 C12.59 33.24, 21.42 22.55, 42.5 1.74 M4.33 44.85 C20.8 30.98, 23.87 20.23, 49.71 -3.63 M7.18 45.43 C20.66 30.23, 36.23 16.74, 46.06 0.75 M13.52 44.65 C28.45 29.47, 37.73 13.75, 51.21 -3.3 M10.65 47.97 C25.72 33.54, 38.51 16.03, 55.07 -1.37 M16.5 44.19 C30.08 28.87, 48.93 11.74, 57.84 0.9 M16.57 48.68 C28.98 32.75, 41.48 19.55, 56.14 -1.2 M22.66 45.47 C36.98 32.22, 50.63 17.45, 67.09 0.85 M24.26 45.76 C37.07 30.27, 49.99 14.44, 62.54 0.91 M25.04 45.8 C41.3 30.75, 51.14 15.62, 68.58 4.06 M26.71 46.65 C38.7 36.2, 53.39 21.53, 67.08 -1.23 M34.83 48.13 C43.67 35.89, 53.31 29.9, 73.08 -0.12 M31.46 45.94 C47.94 32.41, 60.6 14.24, 73.53 -1.8 M38.35 43.24 C55.85 33.99, 66.38 17.79, 83.01 1.75 M39.99 47.22 C52.08 29.08, 67.64 12.87, 77.43 -1.1 M47.59 44.03 C57.97 32.96, 69.8 11.75, 81.43 -2.51 M44.55 48.98 C56.98 34.42, 70.52 19.9, 85.5 0.34 M49.18 43.73 C57.41 33.08, 74.13 18.84, 90.57 -0.51 M47.59 46.46 C60.21 36.33, 70.83 24.49, 88.53 -0.4 M54.9 50.19 C68.53 37.16, 75.94 17.03, 96.78 3.01 M54.62 45.54 C67.58 31.1, 83.21 13.01, 96.7 1.31 M58.68 44.1 C70.76 34.88, 72.67 29.11, 101.09 -3.58 M61.54 48.62 C75.26 28.72, 93.56 9.26, 100.54 -0.53 M63.09 45.25 C76.69 31.55, 90.7 10.62, 108.15 -0.59 M63.58 48.48 C79.59 30.46, 92.56 16.17, 106.21 -0.67 M68.35 46.79 C75.57 34.58, 88.93 28.68, 112.77 1.3 M70.64 46.15 C81.83 34.28, 96.57 17.67, 112.45 -0.71 M74.85 49.48 C88.77 30.65, 102.99 10.23, 120.26 0 M76.17 48.83 C86.01 35.09, 100.22 18.12, 117.25 1.51 M80.1 43.89 C98.62 26.56, 110.49 11.65, 120.2 0.53 M80.54 47.69 C93.3 32.48, 104.31 19.75, 122.05 -1.96 M89.27 44.76 C94 34.6, 107.02 20.38, 124.2 -2.5 M87.93 47.82 C100.74 29.49, 115.53 11.1, 127.84 0.94 M88.18 49.11 C107.07 32.88, 114.66 17.24, 130.31 -1.88 M93.69 46.04 C100.42 35.98, 112.7 23.03, 133.93 0.89 M93.79 46.62 C105.14 36, 117.67 23.58, 141.45 0.48 M97.21 48.85 C103.98 38.35, 111.74 27.91, 138.81 1.11 M103.22 49.78 C111.31 35.59, 123.95 23.4, 146.44 -0.27 M101.33 46.23 C113.84 30.56, 128.07 16.36, 143.52 -0.82 M104.24 48.2 C120.48 31.24, 133.04 17.36, 146.51 -1.6 M109.17 45.54 C121.19 32.19, 134.4 19.67, 148.5 0.97 M112.26 46.84 C128.93 27.46, 145.8 8.18, 152.29 -3.39 M111.54 45.43 C129.91 28.24, 144.72 9.74, 153.03 -1.55 M116.83 44.27 C130.74 30.14, 141.22 24.12, 162.28 2.34 M119.79 45.67 C128.15 33.65, 137.18 25.36, 160.04 -0.35 M126 47.64 C131.29 33.7, 142.62 26.17, 167.93 -2.34 M124.55 45.8 C132.15 33.42, 142.52 24.27, 163.52 -1.57 M132.12 47.21 C136.21 34.26, 153.63 18.73, 172.03 -3 M127.86 47.22 C135.83 34.82, 147.76 26.17, 169.38 0.47 M133.55 46.87 C149.02 27.26, 162.1 14.69, 177.81 -2.61 M135.36 47.38 C145.66 37.66, 153.19 22.3, 174.83 1.04 M139.07 47.06 C153.23 31.74, 171.41 12.77, 183.39 -3.28 M138.98 46.34 C151.79 33.35, 164.61 20.46, 181.27 -1.06 M146.36 47.11 C153.11 37.48, 167.72 22.77, 181.52 5.99 M145.84 48.7 C154.19 35.53, 168.12 22.73, 180.38 4.4 M147 43.44 C161.79 35.09, 176.58 19.72, 177.87 9.52 M149.58 45.4 C158.61 37.66, 168.14 23.54, 178.79 10.83 M152.97 47.83 C165.08 40.25, 169.29 29.39, 179.6 21.98 M155.29 47.69 C161.77 39.78, 167.52 34.89, 180.99 19.57 M161.63 45.63 C163.54 43.62, 172.32 29.51, 182.37 24.91 M158.87 44.92 C166.51 40.86, 172.14 31.85, 178.81 23.95 M166.25 46.09 C168.39 42.21, 180.14 36.29, 176.18 29.2 M163.86 46.48 C169.85 43.95, 172.54 38.8, 179.52 31.46 M169.69 48.02 C173.4 46.5, 176.02 44.8, 181.29 34.75 M172.41 47.4 C175.46 44.36, 177.28 38.68, 180.52 34.94 M176.02 46.44 C176.81 46.39, 178.57 44.18, 180.3 43.51 M176.33 47.27 C178.3 45.77, 179.63 43.9, 179.65 42.94" stroke="#ced4da" stroke-width="0.5" fill="none"></path><path d="M3.1 3.28 C35.44 4.6, 76.24 0.53, 176.73 -1.78 M0.75 -1.98 C50 -2.23, 103.67 0.43, 180.09 1.65 M181.73 -2.74 C180.42 19.52, 179.51 35.01, 183.04 44.57 M180.5 -1.98 C181.34 10.33, 181.74 24.14, 180.11 45.2 M181.17 43.4 C142.5 40.17, 106.24 38.96, -0.91 43.18 M180.55 46.41 C131.43 44.06, 84.78 46.78, 0.39 43.73 M-3.91 42.96 C-2.99 31.24, 0.26 24.79, 2.41 2.37 M-0.76 45.71 C-1.44 34.9, 2.03 27.71, -1.84 -1.74" stroke="#000000" stroke-width="1" fill="none"></path></g><g transform="translate(87.29917839567315 28.56137234146763) rotate(0 23 12.5)"><text x="23" y="18" font-family="Virgil, Segoe UI Emoji" font-size="20px" fill="#000000" text-anchor="middle" style="white-space: pre;" direction="ltr">Logo</text></g><g stroke-linecap="round" transform="translate(41.555131319736574 209.55731293319434) rotate(0 14.00412160881524 13.17054294162449)"><path d="M-3.35 -1.78 C9.14 -2.42, 20.78 1.78, 24.04 -2.07 M0.01 1.65 C7.89 1.37, 13.2 0.4, 26.64 -0.24 M30.97 -1.12 C26.34 9.84, 24.2 20.94, 24.05 28.94 M28.03 -0.49 C26.72 6.97, 26.87 11.93, 26.86 26.73 M27.1 23.83 C20.22 26.36, 15.01 26.73, 1.43 25.77 M28.4 24.38 C21.05 27.69, 16.06 24.68, -1.37 25.09 M2.41 28.72 C-3.64 19.3, 1.39 12.77, 0.03 -3.34 M-1.84 24.6 C-0.7 20.88, -1.21 12.3, 1.86 0.84" stroke="#000000" stroke-width="1" fill="none"></path></g><g stroke-linecap="round"><g transform="translate(41.42338946511245 235.38680756487986) rotate(0 15.556999471997187 -13.824321953262768)"><path d="M-1.25 -0.46 C3.49 -3.84, 21.79 -18.33, 26.99 -22.62 M3.27 -3.18 C9.04 -7.23, 28.12 -23.61, 32.36 -27.18" stroke="#000000" stroke-width="1" fill="none"></path></g></g><g stroke-linecap="round" transform="translate(41.093620228052714 310.2832135826417) rotate(0 14.00412160881524 13.17054294162449)"><path d="M1.18 1.49 C3.19 -1.69, 11.98 3.55, 31 0.01 M-0.34 0.82 C9.35 -0.74, 23.07 -1.2, 29.26 1.48 M24.38 0.83 C23.85 9.77, 24.46 17.74, 28.25 26.38 M26.43 0.54 C26.4 7.64, 26.21 15.94, 26.07 25.89 M28.07 27.27 C22.79 25.85, 11.34 29.29, 2.06 27.12 M28.13 24.39 C20.99 25.38, 15.28 27.01, 1.15 27.55 M1.49 24.81 C0.5 13.54, -1.79 11.01, 2.66 -3.69 M-0.73 25.12 C1.92 21.57, 1.83 16.63, -1.42 -1.86" stroke="#000000" stroke-width="1" fill="none"></path></g><g stroke-linecap="round"><g transform="translate(40.96187837342859 336.1127082143272) rotate(0 15.613125999485419 -11.592910100426138)"><path d="M1.04 -2.77 C5.94 -7.09, 22.43 -21.98, 27.44 -25.08 M-1.83 1.89 C4.17 -2.17, 27.67 -17.73, 33.06 -22.33" stroke="#000000" stroke-width="1" fill="none"></path></g></g><g stroke-linecap="round" transform="translate(40.94658280735803 373.99157011658167) rotate(0 17.21976959893709 15.926812647443342)"><path d="M-2.33 3.17 C14.61 0.37, 26.54 2.58, 38.01 -0.68 M1.63 -0.7 C13 1.56, 22.93 -0.66, 34.33 -1.81 M31.08 3.41 C34.05 10.26, 32.82 16.96, 36.99 28.69 M33.1 1.44 C32.13 9.97, 32.82 20.22, 34.72 31.89 M31.06 34.72 C25.37 32.53, 8.24 29.91, 2.12 32.11 M33.01 32.22 C28.62 32.63, 21.69 29.65, -0.51 32.6 M-2.26 35.45 C2.66 19.83, -3.49 14.72, 1.9 -1.47 M1.77 33.36 C-2.01 22.38, 1.01 17.29, -1.73 1.22" stroke="#000000" stroke-width="1" fill="none"></path></g><g stroke-linecap="round" transform="translate(42.36115604399947 109.76187225079298) rotate(0 14.00412160881524 13.17054294162449)"><path d="M2.99 0.01 C10.26 1.78, 17.48 -1.12, 29.65 -2.74 M1.25 1.48 C7.51 -0.55, 16.03 -1.62, 28.42 -1.98 M28.25 0.04 C26.58 6.14, 30.11 16.07, 29.1 24.04 M26.07 -0.45 C26.4 7.78, 27.94 16.85, 28.47 27.06 M30.07 27.12 C16.07 24.9, 14.12 26.99, -3.91 23.61 M29.16 27.55 C22.55 24.67, 14.21 27.19, -0.76 26.36 M2.66 22.65 C-3.19 20.18, 2.2 13.47, -2.43 3.72 M-1.42 24.49 C1.14 18.01, -2.2 9.55, -1.5 -0.28" stroke="#000000" stroke-width="1" fill="none"></path></g><g stroke-linecap="round"><g transform="translate(42.22941418937535 135.5913668824785) rotate(0 13.510901037072472 -11.142682107891517)"><path d="M0.01 2.31 C4.71 -1.53, 25.72 -16.84, 30.45 -20.95 M-3.43 1.1 C0.84 -3.66, 24.1 -19.88, 29.06 -24.6" stroke="#000000" stroke-width="1" fill="none"></path></g></g><g stroke-linecap="round" transform="translate(1000.7106764067566 18.665146531952132) rotate(0 24.05548935797151 24.05548935797151)"><path d="M21.89 0.9 C26.62 0.4, 33.19 2.22, 37.55 5.01 C41.91 7.79, 46.73 12.73, 48.04 17.6 C49.36 22.47, 47.93 29.47, 45.46 34.22 C43 38.96, 38.05 43.8, 33.27 46.09 C28.49 48.37, 21.75 49.17, 16.79 47.93 C11.82 46.69, 6.25 43, 3.48 38.66 C0.71 34.33, -0.4 27.34, 0.16 21.92 C0.72 16.5, 1.94 9.84, 6.84 6.14 C11.73 2.44, 24.78 0.28, 29.55 -0.3 C34.32 -0.87, 35.61 2.29, 35.46 2.7 M31.58 1.07 C36.55 2.57, 42.48 7.62, 45.23 12.27 C47.97 16.93, 49.07 24.17, 48.05 29.02 C47.03 33.87, 42.97 38.07, 39.11 41.38 C35.25 44.69, 29.95 48.97, 24.88 48.88 C19.81 48.79, 12.9 44.19, 8.69 40.84 C4.48 37.49, 0.51 33.86, -0.37 28.78 C-1.24 23.69, 0.88 15.07, 3.45 10.34 C6.02 5.62, 10.38 1.84, 15.04 0.42 C19.71 -1, 28.42 1.41, 31.45 1.82 C34.48 2.23, 33.03 2.79, 33.22 2.89" stroke="#000000" stroke-width="1" fill="none"></path></g><g stroke-linecap="round"><g transform="translate(1007.437666557711 58.529197234010326) rotate(0 17.358015873289332 -15.850898861796964)"><path d="M-0.2 0.49 C5.39 -5.05, 28.17 -26.7, 34.21 -32.19 M-1.77 -0.29 C4.14 -5.13, 30.23 -25.55, 36.49 -30.73" stroke="#000000" stroke-width="1" fill="none"></path></g></g><g stroke-linecap="round" transform="translate(10 10) rotate(0 595.641125015035 439.8162147864921)"><path d="M-0.19 1.31 C336.56 7.52, 675.42 6.07, 1190.69 -0.08 M0.52 -0.67 C250.12 9.49, 498.89 9.24, 1190.59 0.51 M1191.59 -1.07 C1194.35 192.72, 1192.84 387.54, 1190.78 879.86 M1191.17 -0.68 C1193.49 265.71, 1193.08 529.81, 1190.91 880.06 M1190.28 878.49 C826.7 874.05, 462.49 874.07, -1.42 879.23 M1190.61 879.18 C790.18 880.25, 386.89 879.02, -0.09 880.01 M0.67 881.05 C5.49 646.91, 2.8 417.74, 0.54 -1.38 M-0.37 880.26 C5.29 561.98, 5.66 245.7, 0.59 0.45" stroke="#000000" stroke-width="2" fill="none"></path></g><g stroke-linecap="round" transform="translate(11.465227201772905 11.375321379695379) rotate(0 594.3726616299082 31.652981980290974)"><path d="M0 0 C275.29 0, 550.57 0, 1188.75 0 M0 0 C238.88 0, 477.76 0, 1188.75 0 M1188.75 0 C1188.75 15.36, 1188.75 30.72, 1188.75 63.31 M1188.75 0 C1188.75 21.26, 1188.75 42.51, 1188.75 63.31 M1188.75 63.31 C913.29 63.31, 637.84 63.31, 0 63.31 M1188.75 63.31 C831.12 63.31, 473.49 63.31, 0 63.31 M0 63.31 C0 38.42, 0 13.54, 0 0 M0 63.31 C0 45.2, 0 27.1, 0 0" stroke="#000000" stroke-width="1" fill="none"></path></g><g transform="translate(1061.6734017279987 30.220635889923642) rotate(0 26 12.5)"><text x="0" y="18" font-family="Virgil, Segoe UI Emoji" font-size="20px" fill="#000000" text-anchor="start" style="white-space: pre;" direction="ltr">Name</text></g><g stroke-linecap="round"><g transform="translate(1154.0889607309282 37.32226451589531) rotate(0 10.796742748056658 5.3983713740282155)"><path d="M0 0 C3.84 3.91, 7.67 7.83, 10.59 10.8 M0 0 C3.24 3.3, 6.48 6.61, 10.59 10.8 M10.59 10.8 C12.82 8.7, 15.06 6.61, 21.59 0.49 M10.59 10.8 C14.45 7.17, 18.32 3.55, 21.59 0.49" stroke="#000000" stroke-width="1" fill="none"></path></g></g><g stroke-linecap="round"><g transform="translate(217.16788524734875 843.0415694244231) rotate(88.2968567217736 14.368477675319355 10.057534835209708)"><path d="M0 0 C3.83 5.47, 7.66 10.94, 14.09 20.12 M0 0 C3.88 5.54, 7.75 11.07, 14.09 20.12 M14.09 20.12 C17.56 15.56, 21.04 11, 28.74 0.91 M14.09 20.12 C17.04 16.24, 20 12.37, 28.74 0.91" stroke="#000000" stroke-width="1" fill="none"></path></g></g><g stroke-linecap="round" transform="translate(295.9985157404926 20.97277729134703) rotate(0 157.82297487600226 20.640831724225677)"><path d="M0 0 C93.02 0, 186.04 0, 315.65 0 M0 0 C114.8 0, 229.6 0, 315.65 0 M315.65 0 C315.65 12.96, 315.65 25.93, 315.65 41.28 M315.65 0 C315.65 14.58, 315.65 29.15, 315.65 41.28 M315.65 41.28 C228.98 41.28, 142.31 41.28, 0 41.28 M315.65 41.28 C205.97 41.28, 96.3 41.28, 0 41.28 M0 41.28 C0 32.47, 0 23.66, 0 0 M0 41.28 C0 26.58, 0 11.88, 0 0" stroke="#000000" stroke-width="1" fill="none"></path></g><g stroke-linecap="round" transform="translate(575.1147995302645 31.259080573565598) rotate(0 6.956969286289677 6.956969286289677)"><path d="M13.91 6.96 C13.91 7.36, 13.88 7.77, 13.81 8.17 C13.74 8.56, 13.63 8.96, 13.49 9.34 C13.36 9.71, 13.18 10.09, 12.98 10.44 C12.78 10.78, 12.55 11.12, 12.29 11.43 C12.03 11.74, 11.74 12.03, 11.43 12.29 C11.12 12.55, 10.78 12.78, 10.44 12.98 C10.09 13.18, 9.71 13.36, 9.34 13.49 C8.96 13.63, 8.56 13.74, 8.17 13.81 C7.77 13.88, 7.36 13.91, 6.96 13.91 C6.55 13.91, 6.15 13.88, 5.75 13.81 C5.35 13.74, 4.96 13.63, 4.58 13.49 C4.2 13.36, 3.83 13.18, 3.48 12.98 C3.13 12.78, 2.79 12.55, 2.49 12.29 C2.18 12.03, 1.89 11.74, 1.63 11.43 C1.37 11.12, 1.13 10.78, 0.93 10.44 C0.73 10.09, 0.56 9.71, 0.42 9.34 C0.28 8.96, 0.18 8.56, 0.11 8.17 C0.04 7.77, 0 7.36, 0 6.96 C0 6.55, 0.04 6.15, 0.11 5.75 C0.18 5.35, 0.28 4.96, 0.42 4.58 C0.56 4.2, 0.73 3.83, 0.93 3.48 C1.13 3.13, 1.37 2.79, 1.63 2.49 C1.89 2.18, 2.18 1.89, 2.49 1.63 C2.79 1.37, 3.13 1.13, 3.48 0.93 C3.83 0.73, 4.2 0.56, 4.58 0.42 C4.96 0.28, 5.35 0.18, 5.75 0.11 C6.15 0.04, 6.55 0, 6.96 0 C7.36 0, 7.77 0.04, 8.17 0.11 C8.56 0.18, 8.96 0.28, 9.34 0.42 C9.71 0.56, 10.09 0.73, 10.44 0.93 C10.78 1.13, 11.12 1.37, 11.43 1.63 C11.74 1.89, 12.03 2.18, 12.29 2.49 C12.55 2.79, 12.78 3.13, 12.98 3.48 C13.18 3.83, 13.36 4.2, 13.49 4.58 C13.63 4.96, 13.74 5.35, 13.81 5.75 C13.88 6.15, 13.9 6.76, 13.91 6.96 C13.93 7.16, 13.93 6.76, 13.91 6.96" stroke="#000000" stroke-width="1" fill="none"></path></g><g stroke-linecap="round"><g transform="translate(587.072805553411 43.4085253923713) rotate(0 4.215828589913599 3.9816158904734493)"><path d="M0 0 C3.08 2.91, 6.16 5.81, 8.43 7.96 M0 0 C2.69 2.54, 5.38 5.09, 8.43 7.96" stroke="#000000" stroke-width="1" fill="none"></path></g></g><g transform="translate(310.0575025301123 29.970600925470535) rotate(0 72 12.5)"><text x="0" y="18" font-family="Virgil, Segoe UI Emoji" font-size="20px" fill="#000000" text-anchor="start" style="white-space: pre;" direction="ltr">Search here ...</text></g><g stroke-linecap="round" transform="translate(837.8231100110297 17.84536330616038) rotate(0 27.621709298296537 24.600584843795104)"><path d="M0 0 C16.63 0, 33.27 0, 55.24 0 M0 0 C15.32 0, 30.64 0, 55.24 0 M55.24 0 C55.24 15.71, 55.24 31.43, 55.24 49.2 M55.24 0 C55.24 17.72, 55.24 35.44, 55.24 49.2 M55.24 49.2 C43.77 49.2, 32.29 49.2, 0 49.2 M55.24 49.2 C43.8 49.2, 32.35 49.2, 0 49.2 M0 49.2 C0 32.17, 0 15.13, 0 0 M0 49.2 C0 32.12, 0 15.04, 0 0" stroke="#000000" stroke-width="1" fill="none"></path></g><g stroke-linecap="round"><g transform="translate(872.0689945119448 58.89813314516505) rotate(0 5.159877839377259 -4.122719218282782)" fill-rule="evenodd"><path d="M0.35 -1.97 L9.51 -0.02 L5.61 -10.33 L-1.94 0.19" stroke="none" stroke-width="0" fill="#868e96" fill-rule="evenodd"></path><path d="M0.3 -0.64 C2.59 -0.6, 5.54 -0.89, 10.88 -0.46 M0.13 0.2 C2.91 -0.41, 6.38 0.41, 11.24 -0.3 M10.08 -0.49 C8.83 -2.76, 8.14 -3.61, 5.58 -7.93 M10.92 0.25 C9.39 -1.9, 9.02 -3.1, 4.44 -9.04 M4.33 -7.65 C3.96 -5.24, 2.87 -4.34, -0.92 0.79 M4.56 -8.64 C2.98 -5.29, 1.57 -3, 0.23 0.48 M0 0 C0 0, 0 0, 0 0 M0 0 C0 0, 0 0, 0 0" stroke="#000000" stroke-width="1" fill="none"></path></g></g><g stroke-linecap="round"><g transform="translate(856.3415902676716 48.61104128344323) rotate(0 -3.4150253534894546 5.08323764030763)" fill-rule="evenodd"><path d="M-1.61 -0.26 L-7.89 8.65 L0.03 10.34 L-1.03 -1.06" stroke="none" stroke-width="0" fill="#868e96" fill-rule="evenodd"></path><path d="M0.26 -0.9 C-0.89 0.94, -4.06 3.7, -8.99 10.59 M-0.1 -0.57 C-2.08 3.52, -5.01 5.65, -8.88 10.76 M-9.23 9.65 C-5.14 11.01, -1.48 10.95, 1.03 9.88 M-9.01 10.11 C-4.54 10.67, -1.95 9.77, 1.91 10.4 M2.4 11.07 C2.29 6.76, 0.03 5.65, 0.35 -0.89 M1.73 10.56 C1.33 6.3, 0.86 3.33, 0.38 0.29 M0 0 C0 0, 0 0, 0 0 M0 0 C0 0, 0 0, 0 0" stroke="#000000" stroke-width="1" fill="none"></path></g></g><g stroke-linecap="round" transform="translate(854.4070900317938 25.99376315474592) rotate(0 11.129419261465046 11.129419261465273)"><path d="M14.24 1.1 C16.33 1.2, 18.8 1.68, 20.16 3.51 C21.52 5.35, 22.41 9.51, 22.38 12.12 C22.36 14.73, 21.57 17.53, 19.99 19.17 C18.41 20.82, 15.57 21.75, 12.91 22 C10.26 22.25, 6.1 21.85, 4.07 20.7 C2.03 19.56, 1.12 17.47, 0.7 15.12 C0.29 12.77, 0.57 8.98, 1.59 6.62 C2.61 4.26, 4.79 1.88, 6.82 0.95 C8.86 0.03, 12.36 1.02, 13.8 1.09 C15.24 1.17, 15.53 1.44, 15.47 1.4 M8.95 0.16 C10.99 -0.04, 14.55 -0.05, 16.95 1.36 C19.34 2.77, 22.7 6.23, 23.33 8.62 C23.96 11.01, 22.09 13.56, 20.73 15.7 C19.37 17.84, 17.26 20.62, 15.18 21.46 C13.1 22.3, 10.43 21.2, 8.25 20.75 C6.07 20.3, 3.3 20.32, 2.1 18.75 C0.91 17.18, 0.65 13.91, 1.1 11.33 C1.54 8.75, 3.17 5.35, 4.76 3.27 C6.36 1.19, 9.6 -0.55, 10.66 -1.15 C11.72 -1.75, 11.05 -0.75, 11.11 -0.33" stroke="none" stroke-width="0" fill="#868e96"></path><path d="M5.63 1.42 C7.61 0.38, 11.06 0.03, 13.5 0.49 C15.94 0.94, 18.97 2.2, 20.28 4.17 C21.6 6.14, 21.47 9.84, 21.41 12.28 C21.34 14.72, 21.51 17.23, 19.89 18.8 C18.26 20.37, 14.01 21.4, 11.65 21.7 C9.29 22, 7.74 21.92, 5.73 20.61 C3.71 19.3, 0.48 16.24, -0.45 13.84 C-1.37 11.44, -1.16 8.32, 0.2 6.21 C1.56 4.1, 6.1 2.05, 7.71 1.18 C9.31 0.31, 9.95 0.95, 9.83 0.98 M11.94 -0.66 C14.51 -0.21, 19.6 3.31, 21.09 5.08 C22.58 6.85, 21.16 7.62, 20.87 9.96 C20.59 12.29, 20.81 17.22, 19.4 19.1 C17.98 20.97, 14.47 20.83, 12.38 21.2 C10.29 21.57, 8.58 22.2, 6.85 21.33 C5.11 20.45, 3.16 18.53, 1.96 15.94 C0.76 13.35, -1.17 8.14, -0.35 5.81 C0.48 3.47, 4.84 2.71, 6.88 1.93 C8.92 1.15, 11.04 1.39, 11.9 1.1 C12.75 0.82, 11.96 -0.03, 12.02 0.2" stroke="#000000" stroke-width="1" fill="none"></path></g><g stroke-linecap="round" transform="translate(863.1170703233747 22.848492493897083) rotate(0 2.0565231244013376 2.05652312440111)"><path d="M2.91 -0.82 C3.24 -0.77, 3.68 0.81, 4 1.42 C4.32 2.04, 4.86 2.53, 4.83 2.87 C4.8 3.21, 4.45 3.22, 3.82 3.47 C3.19 3.73, 1.54 4.23, 1.06 4.38 C0.57 4.53, 0.99 4.74, 0.94 4.39 C0.88 4.04, 0.7 2.86, 0.71 2.26 C0.72 1.65, 1.05 1.04, 1 0.76 C0.95 0.48, 0.08 0.62, 0.43 0.6 C0.78 0.57, 2.69 0.69, 3.07 0.6 C3.45 0.51, 2.71 0.02, 2.71 0.07 M0.41 -0.6 C1.25 -0.8, 3.48 0.01, 3.97 0.2 C4.46 0.38, 3.41 0.15, 3.36 0.51 C3.31 0.88, 3.62 2.05, 3.68 2.37 C3.75 2.69, 3.97 1.91, 3.76 2.44 C3.56 2.97, 2.78 5.1, 2.47 5.55 C2.17 6.01, 2.09 5.63, 1.91 5.17 C1.73 4.71, 1.64 3.64, 1.39 2.79 C1.15 1.93, 0.36 0.55, 0.44 0.02 C0.51 -0.5, 1.65 -0.46, 1.86 -0.38 C2.08 -0.3, 2 0.36, 1.73 0.5" stroke="none" stroke-width="0" fill="#868e96"></path><path d="M1.44 0.33 C1.94 0.13, 2.92 -0.24, 3.19 0.01 C3.45 0.25, 2.8 1.36, 3.03 1.81 C3.26 2.25, 4.7 2.44, 4.58 2.68 C4.47 2.91, 2.68 2.97, 2.34 3.22 C1.99 3.47, 2.95 4.23, 2.51 4.17 C2.08 4.12, 0.22 3.33, -0.3 2.9 C-0.82 2.48, -0.74 1.86, -0.61 1.63 C-0.47 1.4, 0.03 1.7, 0.5 1.54 C0.96 1.38, 2.12 0.94, 2.18 0.65 C2.23 0.36, 0.88 -0.06, 0.85 -0.19 M3.41 1 C3.81 0.9, 1.92 -1.06, 2 -0.82 C2.08 -0.58, 3.7 1.92, 3.91 2.42 C4.13 2.92, 3.24 1.81, 3.28 2.18 C3.32 2.55, 4.25 4.13, 4.15 4.62 C4.05 5.11, 3.5 5.6, 2.68 5.12 C1.85 4.63, -0.55 2.17, -0.79 1.69 C-1.03 1.2, 1.2 2.25, 1.24 2.2 C1.28 2.15, -0.51 1.79, -0.56 1.39 C-0.61 0.99, 0.62 -0.18, 0.94 -0.21 C1.26 -0.24, 1.18 1.25, 1.36 1.23" stroke="#000000" stroke-width="1" fill="none"></path></g><g stroke-linecap="round" transform="translate(864.0848459113286 57.93035755721144) rotate(0 2.0565231244013376 2.05652312440111)"><path d="M3.01 0.53 C3.51 0.9, 4.39 1.25, 4.65 1.55 C4.9 1.85, 4.92 1.94, 4.53 2.34 C4.14 2.75, 2.72 3.54, 2.33 3.97 C1.93 4.39, 2.34 4.98, 2.17 4.89 C2.01 4.8, 1.58 3.91, 1.34 3.44 C1.1 2.97, 1.05 2.4, 0.72 2.06 C0.39 1.73, -0.71 1.72, -0.62 1.42 C-0.54 1.12, 0.73 0.56, 1.22 0.26 C1.71 -0.04, 1.95 -0.52, 2.34 -0.37 C2.72 -0.22, 3.54 1.18, 3.53 1.18 M3.54 0.13 C4.03 0.2, 3.05 -0.11, 3.07 0.19 C3.09 0.49, 3.51 1.62, 3.68 1.94 C3.84 2.26, 4.16 1.52, 4.04 2.11 C3.91 2.69, 3.19 4.92, 2.9 5.47 C2.61 6.01, 2.52 5.76, 2.29 5.38 C2.07 5, 1.88 4.02, 1.55 3.19 C1.22 2.37, 0.31 0.99, 0.3 0.43 C0.29 -0.12, 1.09 -0.13, 1.49 -0.15 C1.89 -0.18, 2.74 0.22, 2.69 0.27 C2.63 0.32, 1.27 0.26, 1.16 0.12" stroke="none" stroke-width="0" fill="#868e96"></path><path d="M2.56 -0.14 C2.83 -0.05, 2.3 0.93, 2.64 1.3 C2.98 1.66, 4.59 1.79, 4.62 2.04 C4.64 2.28, 3.02 2.4, 2.78 2.75 C2.53 3.09, 3.58 4.01, 3.15 4.1 C2.73 4.18, 0.84 3.56, 0.24 3.25 C-0.35 2.94, -0.42 2.43, -0.42 2.24 C-0.42 2.06, -0.06 2.34, 0.25 2.13 C0.56 1.92, 1.24 1.38, 1.45 0.99 C1.66 0.59, 1.24 -0.02, 1.49 -0.23 C1.73 -0.44, 2.76 -0.22, 2.91 -0.28 M0.1 -1.23 C0.24 -1.42, 2.17 0.64, 2.72 0.89 C3.26 1.13, 2.9 -0.15, 3.35 0.24 C3.81 0.62, 5.24 2.41, 5.45 3.17 C5.66 3.94, 5.37 4.92, 4.6 4.85 C3.84 4.77, 1.32 2.85, 0.86 2.72 C0.4 2.58, 2.19 3.97, 1.84 4.05 C1.48 4.12, -0.85 3.75, -1.29 3.19 C-1.72 2.63, -1.13 1.02, -0.78 0.7 C-0.44 0.38, 0.4 1.45, 0.78 1.27 C1.16 1.08, 1.25 -0.51, 1.49 -0.43" stroke="#000000" stroke-width="1" fill="none"></path></g><g stroke-linecap="round" transform="translate(854.4070900317938 38.574845798141496) rotate(0 11.129419261465046 10.161643673511776)"><path d="M1.85 0.17 L21.75 -0.48 L21.7 20.51 L0.33 18.91" stroke="none" stroke-width="0" fill="#868e96"></path><path d="M0.03 0.47 C6 -0.31, 8.87 1.4, 23.29 0.39 M0.06 -0.98 C3.81 -0.75, 8.27 0.07, 22.83 0.6 M23 -0.76 C22.1 5.63, 20.95 16.41, 23.59 18.48 M21.89 -0.61 C23.17 4.74, 23.12 9.41, 21.55 19.4 M23.47 18.82 C13.51 19.2, 6.91 20.13, -0.73 21.25 M23.07 20.44 C12.46 20.59, 4.93 21.2, 0.42 20.79 M0.46 21.89 C1.57 14.36, 1.6 8.39, -1.92 0.97 M-0.81 20.19 C0.3 13.83, -1.01 9.2, -0.51 -0.53" stroke="#000000" stroke-width="1" fill="none"></path></g><g stroke-linecap="round" transform="translate(853.7120971927334 51.06133903046725) rotate(40.28644796306108 1.580102734652428 2.5762544586725653)"><path d="M0 0 L3.16 0 L3.16 5.15 L0 5.15" stroke="none" stroke-width="0" fill="#868e96"></path><path d="M0 0 C0.99 0, 1.98 0, 3.16 0 M0 0 C1.12 0, 2.23 0, 3.16 0 M3.16 0 C3.16 1.41, 3.16 2.83, 3.16 5.15 M3.16 0 C3.16 1.79, 3.16 3.58, 3.16 5.15 M3.16 5.15 C2.49 5.15, 1.81 5.15, 0 5.15 M3.16 5.15 C2.03 5.15, 0.91 5.15, 0 5.15 M0 5.15 C0 3.47, 0 1.79, 0 0 M0 5.15 C0 4.11, 0 3.08, 0 0" stroke="#868e96" stroke-width="1" fill="none"></path></g><g stroke-linecap="round" transform="translate(854.7137449262655 53.73239965321909) rotate(89.99999999999994 1.580102734652428 2.5762544586725653)"><path d="M0 0 L3.16 0 L3.16 5.15 L0 5.15" stroke="none" stroke-width="0" fill="#868e96"></path><path d="M0 0 C1.02 0, 2.04 0, 3.16 0 M0 0 C0.64 0, 1.28 0, 3.16 0 M3.16 0 C3.16 1.35, 3.16 2.7, 3.16 5.15 M3.16 0 C3.16 1.23, 3.16 2.46, 3.16 5.15 M3.16 5.15 C2.45 5.15, 1.74 5.15, 0 5.15 M3.16 5.15 C2.18 5.15, 1.19 5.15, 0 5.15 M0 5.15 C0 3.2, 0 1.25, 0 0 M0 5.15 C0 3.67, 0 2.19, 0 0" stroke="#868e96" stroke-width="1" fill="none"></path></g><g stroke-linecap="round" transform="translate(863.8336857099657 28.433580869054822) rotate(89.99999999999994 1.3740023779587318 10.150442567169648)"><path d="M0 0 L2.75 0 L2.75 20.3 L0 20.3" stroke="none" stroke-width="0" fill="#868e96"></path><path d="M0 0 C0.79 0, 1.57 0, 2.75 0 M0 0 C0.65 0, 1.3 0, 2.75 0 M2.75 0 C2.75 4.4, 2.75 8.79, 2.75 20.3 M2.75 0 C2.75 6.94, 2.75 13.88, 2.75 20.3 M2.75 20.3 C2.05 20.3, 1.36 20.3, 0 20.3 M2.75 20.3 C1.88 20.3, 1.02 20.3, 0 20.3 M0 20.3 C0 14.45, 0 8.6, 0 0 M0 20.3 C0 15.99, 0 11.69, 0 0" stroke="#868e96" stroke-width="1" fill="none"></path></g><g stroke-linecap="round" transform="translate(874.7377685814463 50.063126302880164) rotate(318.1672250384163 1.1335519618160106 2.7823548153662614)"><path d="M0 0 L2.27 0 L2.27 5.56 L0 5.56" stroke="none" stroke-width="0" fill="#868e96"></path><path d="M0 0 C0.84 0, 1.69 0, 2.27 0 M0 0 C0.72 0, 1.44 0, 2.27 0 M2.27 0 C2.27 2.17, 2.27 4.34, 2.27 5.56 M2.27 0 C2.27 2.09, 2.27 4.18, 2.27 5.56 M2.27 5.56 C1.59 5.56, 0.91 5.56, 0 5.56 M2.27 5.56 C1.42 5.56, 0.56 5.56, 0 5.56 M0 5.56 C0 4.03, 0 2.49, 0 0 M0 5.56 C0 3.84, 0 2.12, 0 0" stroke="#868e96" stroke-width="1" fill="none"></path></g><g stroke-linecap="round" transform="translate(873.4022382700705 53.95842304439293) rotate(270 1.1335519618160106 2.7823548153662614)"><path d="M0 0 L2.27 0 L2.27 5.56 L0 5.56" stroke="none" stroke-width="0" fill="#868e96"></path><path d="M0 0 C0.72 0, 1.45 0, 2.27 0 M0 0 C0.82 0, 1.63 0, 2.27 0 M2.27 0 C2.27 1.16, 2.27 2.31, 2.27 5.56 M2.27 0 C2.27 1.15, 2.27 2.31, 2.27 5.56 M2.27 5.56 C1.48 5.56, 0.7 5.56, 0 5.56 M2.27 5.56 C1.48 5.56, 0.69 5.56, 0 5.56 M0 5.56 C0 3.63, 0 1.69, 0 0 M0 5.56 C0 4.19, 0 2.82, 0 0" stroke="#868e96" stroke-width="1" fill="none"></path></g><g stroke-linecap="round" transform="translate(901.4401752425565 17.84536330616038) rotate(0 27.621709298296537 24.600584843795104)"><path d="M0 0 C14.03 0, 28.06 0, 55.24 0 M0 0 C11.68 0, 23.35 0, 55.24 0 M55.24 0 C55.24 14.2, 55.24 28.4, 55.24 49.2 M55.24 0 C55.24 16.42, 55.24 32.83, 55.24 49.2 M55.24 49.2 C34.61 49.2, 13.98 49.2, 0 49.2 M55.24 49.2 C44 49.2, 32.75 49.2, 0 49.2 M0 49.2 C0 33.59, 0 17.97, 0 0 M0 49.2 C0 34.01, 0 18.83, 0 0" stroke="#000000" stroke-width="1" fill="none"></path></g><g stroke-linecap="round" transform="translate(907.4251560980556 29.03229438321864) rotate(0 21.75786687351456 14.437463065603083)"><path d="M0.33 -1.56 L44.43 -0.77 L44.23 29.23 L-1.32 28.98" stroke="none" stroke-width="0" fill="#868e96"></path><path d="M-1.25 -1.43 C13.7 1.45, 27.86 1.48, 41.74 -0.51 M-0.83 -0.57 C15.58 0.66, 28.43 -0.88, 43.4 0.47 M44.35 1.77 C44.85 6.18, 41.48 16.81, 44.19 27.14 M43.05 0.79 C43.3 10.05, 43.76 21.81, 44.25 29.44 M43.8 29.6 C28.45 29.3, 11.31 28.1, -1.93 29.41 M43.4 29.58 C29.22 28.22, 15.88 28.94, 0.17 27.89 M-1.76 26.93 C0.23 21.51, -1.02 18.06, 0.17 -0.51 M0.17 28.17 C0.24 21.87, 0.77 13.88, 0.88 0.13" stroke="#000000" stroke-width="1" fill="none"></path></g><g stroke-linecap="round"><g transform="translate(907.9806861375482 31.603749678838994) rotate(0 11.259488330913882 8.359597164920501)"><path d="M0.37 1.15 C6.06 5.2, 8.04 7.37, 22.15 15.9 M0.9 0.67 C5.38 4.26, 12.62 10.62, 21.03 16.05" stroke="#000000" stroke-width="1" fill="none"></path></g></g><g stroke-linecap="round"><g transform="translate(930.1420021623926 49.19105221144082) rotate(0 10.20729556840024 -10.419663106107691)"><path d="M1.2 1.19 C2.86 -5.28, 10.04 -10.19, 20.42 -22.03 M-0.92 -0.87 C4.67 -4.62, 9.39 -10.66, 21.34 -19.94" stroke="#000000" stroke-width="1" fill="none"></path></g></g><g stroke-linecap="round"><g transform="translate(293.5292338481031 117.84361549270727) rotate(0 139.0345559471166 0.09065972855927384)"><path d="M-2.72 -0.78 C101.06 -3.63, 199.85 -4.92, 277.69 3.02 M-0.17 0.73 C101.86 2.9, 206.29 4.57, 280.79 1.42" stroke="#000000" stroke-width="1" fill="none"></path></g></g><g transform="translate(308.90810572329156 87.4640818270916) rotate(0 103 10)"><text x="0" y="14" font-family="Virgil, Segoe UI Emoji" font-size="16px" fill="#000000" text-anchor="start" style="white-space: pre;" direction="ltr">Growi / Settings / Profile</text></g><g stroke-linecap="round"><g transform="translate(259.36666384417185 72.66569643871799) rotate(0 0.5524512658985259 406.1058508765676)"><path d="M0.01 -1.34 C1.79 224.75, 4.02 445.14, -0.43 813.1 M0.74 0.33 C-1.34 283.18, -2.29 564.41, 1.61 813.55" stroke="#000000" stroke-width="1" fill="none"></path></g></g><g transform="translate(46.16635240629512 379.91838276402495) rotate(0 12 11.5)"><text x="12" y="17" font-family="Virgil, Segoe UI Emoji" font-size="16px" fill="#000000" text-anchor="middle" style="white-space: pre;" direction="ltr"></text></g><g transform="translate(117.65455363347155 178.76274863232027) rotate(0 26.5 10)"><text x="0" y="14" font-family="Virgil, Segoe UI Emoji" font-size="16px" fill="#000000" text-anchor="start" style="white-space: pre;" direction="ltr">Profile</text></g><g transform="translate(117.65455363347155 235.41243625064453) rotate(0 61 10)"><text x="0" y="14" font-family="Virgil, Segoe UI Emoji" font-size="16px" fill="#000000" text-anchor="start" style="white-space: pre;" direction="ltr">Social networks</text></g><g transform="translate(117.65455363347155 292.0621238689688) rotate(0 37.5 10)"><text x="0" y="14" font-family="Virgil, Segoe UI Emoji" font-size="16px" fill="#000000" text-anchor="start" style="white-space: pre;" direction="ltr">Payments</text></g><g transform="translate(117.65455363347155 122.113061013996) rotate(0 30.5 10)"><text x="0" y="14" font-family="Virgil, Segoe UI Emoji" font-size="16px" fill="#000000" text-anchor="start" style="white-space: pre;" direction="ltr">General</text></g><g stroke-linecap="round"><g transform="translate(197.28166813238568 827.1095804578711) rotate(0 -0.36457120865361503 32.689131869366804)"><path d="M1.67 3.55 C1.7 13.71, -5.57 36.25, -0.74 59.22 M-0.94 1.58 C-1.7 21.87, -1.53 47.17, -0.62 63.8" stroke="#000000" stroke-width="1" fill="none"></path></g></g><g stroke-linecap="round"><g transform="translate(196.23704349375384 827.1095804578711) rotate(0 32.72674246616998 -2.569466560350577)"><path d="M3.01 -2.83 C21.05 1.41, 50.88 -5.95, 65.46 -4.75 M0 -0.73 C18.96 0.46, 37.53 -0.87, 64.64 -1.51" stroke="#000000" stroke-width="1" fill="none"></path></g></g><g transform="translate(315.76221459748194 197.48917112082745) rotate(0 39.5 10)"><text x="0" y="14" font-family="Virgil, Segoe UI Emoji" font-size="16px" fill="#000000" text-anchor="start" style="white-space: pre;" direction="ltr">Username:</text></g><g transform="translate(313.7916825955017 262.5167271861758) rotate(0 44 10)"><text x="0" y="14" font-family="Virgil, Segoe UI Emoji" font-size="16px" fill="#000000" text-anchor="start" style="white-space: pre;" direction="ltr">First name:</text></g><g transform="translate(313.7916825955017 320.64742124459326) rotate(0 44.5 10)"><text x="0" y="14" font-family="Virgil, Segoe UI Emoji" font-size="16px" fill="#000000" text-anchor="start" style="white-space: pre;" direction="ltr">Last name:</text></g><g transform="translate(312.8064165945116 373.8517852980601) rotate(0 32.5 10)"><text x="0" y="14" font-family="Virgil, Segoe UI Emoji" font-size="16px" fill="#000000" text-anchor="start" style="white-space: pre;" direction="ltr">Country:</text></g><g stroke-linecap="round" transform="translate(441.16192621878236 195.84137889023555) rotate(0 122.97469647238631 14.332715206571834)"><path d="M0.77 -2.77 C87.67 -3.26, 178.85 -2.98, 245.35 2.26 M1.35 0.52 C65.18 -1.86, 128.23 0.94, 246.6 -0.16 M244.99 0.77 C241.9 12.23, 243.9 26.07, 248.09 29.91 M246.29 1.44 C246.66 8.37, 245.55 18.06, 247.71 28.3 M244.68 31.9 C167.43 22.55, 82.74 27.04, 0.19 29.41 M245.4 27.57 C189.14 27.36, 134.47 26.09, 1.28 30.04 M2.03 27.61 C2.11 25.4, 4.15 13.91, -2.98 1.53 M-0.81 27.18 C-0.41 21.95, -0.52 13.38, -0.65 0.69" stroke="#000000" stroke-width="1" fill="none"></path></g><g stroke-linecap="round" transform="translate(433.70891431136533 257.185399974363) rotate(0 122.97469647238631 14.332715206571834)"><path d="M-2.54 -0.46 C82.76 -2.89, 164.13 -2.58, 244.62 3.2 M0.65 1.06 C87.24 -0.09, 174.31 -2.21, 245.44 -0.78 M243.35 -2.85 C244.31 15.06, 248.71 18.33, 244.2 30.19 M247.32 -0.58 C245.41 7.44, 245.45 17.37, 247.29 26.96 M242.93 31.76 C154.74 24.5, 61.49 27.84, 2.99 26.84 M246 29.87 C189.85 27.03, 134.76 29.57, -0.41 29.76 M-1.17 25.19 C-3.54 22.13, -0.68 14.43, -0.21 -2.62 M1.44 26.91 C2.01 19.86, -0.42 9.54, -0.74 1.32" stroke="#000000" stroke-width="1" fill="none"></path></g><g stroke-linecap="round" transform="translate(433.70891431136533 319.10272966675336) rotate(0 122.97469647238631 14.332715206571834)"><path d="M3.24 2.36 C54.56 0.11, 116.85 1.75, 246.7 -2.34 M-1.09 -0.52 C90.46 2.47, 179.79 2.64, 247.32 -1.34 M244.89 1.58 C249.49 9.6, 244.27 8.96, 247.48 28.26 M244.46 -0.39 C247.96 8.19, 247.69 16.73, 246.64 28.26 M246.88 28.27 C180.27 25.11, 110.63 27.2, -0.71 29.66 M247.16 28.22 C155.65 31.88, 64.1 31.33, 0.76 29.16 M0.1 25.42 C-0.95 20.8, 1.86 5.77, 1.81 2 M0.46 26.71 C-0.25 19.06, 1.01 11.25, -1.9 1.52" stroke="#000000" stroke-width="1" fill="none"></path></g><g stroke-linecap="round" transform="translate(430.26906266178776 373.56704745172647) rotate(0 122.97469647238631 14.332715206571834)"><path d="M2.74 0.54 C51.48 -0.92, 105.78 2.12, 246.47 0.77 M-1.5 -1.17 C52.78 4.34, 105.5 2.83, 246.06 1.35 M247.59 2.93 C248.02 9.11, 249.91 15.92, 245.39 27.7 M245.14 1.94 C246.5 9.77, 246.06 19.09, 247.24 29 M244.92 27.11 C157.34 25.75, 63.86 24.22, -2.35 27.4 M245.23 29.29 C148.07 25.06, 48.83 25.81, -0.48 28.11 M2.69 25.26 C3.29 25.3, -3.07 11.61, 3.76 2.03 M1.81 27.56 C-1.72 21.59, -0.43 13.04, 1.46 -0.81" stroke="#000000" stroke-width="1" fill="none"></path></g></svg>